G04 #@! TF.GenerationSoftware,KiCad,Pcbnew,(6.0.5)*
G04 #@! TF.CreationDate,2022-05-24T22:09:51+02:00*
G04 #@! TF.ProjectId,LPKeyboard,4c504b65-7962-46f6-9172-642e6b696361,rev?*
G04 #@! TF.SameCoordinates,Original*
G04 #@! TF.FileFunction,Soldermask,Top*
G04 #@! TF.FilePolarity,Negative*
%FSLAX46Y46*%
G04 Gerber Fmt 4.6, Leading zero omitted, Abs format (unit mm)*
G04 Created by KiCad (PCBNEW (6.0.5)) date 2022-05-24 22:09:51*
%MOMM*%
%LPD*%
G01*
G04 APERTURE LIST*
G04 Aperture macros list*
%AMRoundRect*
0 Rectangle with rounded corners*
0 $1 Rounding radius*
0 $2 $3 $4 $5 $6 $7 $8 $9 X,Y pos of 4 corners*
0 Add a 4 corners polygon primitive as box body*
4,1,4,$2,$3,$4,$5,$6,$7,$8,$9,$2,$3,0*
0 Add four circle primitives for the rounded corners*
1,1,$1+$1,$2,$3*
1,1,$1+$1,$4,$5*
1,1,$1+$1,$6,$7*
1,1,$1+$1,$8,$9*
0 Add four rect primitives between the rounded corners*
20,1,$1+$1,$2,$3,$4,$5,0*
20,1,$1+$1,$4,$5,$6,$7,0*
20,1,$1+$1,$6,$7,$8,$9,0*
20,1,$1+$1,$8,$9,$2,$3,0*%
%AMRotRect*
0 Rectangle, with rotation*
0 The origin of the aperture is its center*
0 $1 length*
0 $2 width*
0 $3 Rotation angle, in degrees counterclockwise*
0 Add horizontal line*
21,1,$1,$2,0,0,$3*%
G04 Aperture macros list end*
%ADD10C,3.400000*%
%ADD11C,1.900000*%
%ADD12R,0.900000X1.200000*%
%ADD13R,1.700000X0.820000*%
%ADD14RoundRect,0.205000X0.645000X0.205000X-0.645000X0.205000X-0.645000X-0.205000X0.645000X-0.205000X0*%
%ADD15RotRect,0.900000X1.200000X140.000000*%
%ADD16RotRect,0.900000X1.200000X160.000000*%
%ADD17R,1.600000X1.600000*%
%ADD18O,1.600000X1.600000*%
%ADD19RotRect,1.700000X0.820000X140.000000*%
%ADD20RoundRect,0.205000X0.625870X-0.257559X-0.362327X0.571637X-0.625870X0.257559X0.362327X-0.571637X0*%
%ADD21C,2.000000*%
%ADD22RotRect,1.700000X0.820000X160.000000*%
%ADD23RoundRect,0.205000X0.676216X-0.027966X-0.535988X0.413240X-0.676216X0.027966X0.535988X-0.413240X0*%
%ADD24C,0.800000*%
%ADD25O,1.600000X2.000000*%
%ADD26RoundRect,0.200000X0.275000X-0.200000X0.275000X0.200000X-0.275000X0.200000X-0.275000X-0.200000X0*%
G04 APERTURE END LIST*
D10*
X139597500Y-77564400D03*
D11*
X134097500Y-77564400D03*
X145097500Y-77564400D03*
X139597500Y-71664400D03*
X144597500Y-73764400D03*
X134597500Y-73764400D03*
X151188790Y-145599140D03*
D10*
X146975546Y-142063808D03*
D11*
X142762302Y-138528476D03*
X150767993Y-137544146D03*
X153248361Y-142366777D03*
X145587917Y-135938901D03*
D12*
X91049127Y-68231064D03*
X87749127Y-68231064D03*
D11*
X109097500Y-105564400D03*
X98097500Y-105564400D03*
D10*
X103597500Y-105564400D03*
D11*
X103597500Y-99664400D03*
X98597500Y-101764400D03*
X108597500Y-101764400D03*
D13*
X88147500Y-61529800D03*
X88147500Y-63029800D03*
D14*
X83047500Y-63029800D03*
D13*
X83047500Y-61529800D03*
D11*
X109097500Y-54564400D03*
X98097500Y-54564400D03*
D10*
X103597500Y-54564400D03*
D11*
X103597500Y-48664400D03*
X98597500Y-50764400D03*
X108597500Y-50764400D03*
D15*
X169020276Y-152295887D03*
X166492330Y-150174687D03*
D13*
X142147500Y-97572800D03*
X142147500Y-99072800D03*
D14*
X137047500Y-99072800D03*
D13*
X137047500Y-97572800D03*
D16*
X132601361Y-126716500D03*
X129500375Y-125587834D03*
D13*
X49960000Y-98529800D03*
X49960000Y-100029800D03*
D14*
X44860000Y-100029800D03*
D13*
X44860000Y-98529800D03*
D12*
X52861627Y-105231064D03*
X49561627Y-105231064D03*
D11*
X72597500Y-73764400D03*
X62597500Y-73764400D03*
X67597500Y-71664400D03*
D10*
X67597500Y-77564400D03*
D11*
X73097500Y-77564400D03*
X62097500Y-77564400D03*
D13*
X160147500Y-79404800D03*
X160147500Y-80904800D03*
D14*
X155047500Y-80904800D03*
D13*
X155047500Y-79404800D03*
D17*
X170825000Y-60432500D03*
D18*
X170825000Y-62972500D03*
X170825000Y-65512500D03*
X170825000Y-68052500D03*
X170825000Y-70592500D03*
X170825000Y-73132500D03*
X170825000Y-75672500D03*
X170825000Y-78212500D03*
X170825000Y-80752500D03*
X170825000Y-83292500D03*
X170825000Y-85832500D03*
X170825000Y-88372500D03*
X186065000Y-88372500D03*
X186065000Y-85832500D03*
X186065000Y-83292500D03*
X186065000Y-80752500D03*
X186065000Y-78212500D03*
X186065000Y-75672500D03*
X186065000Y-73132500D03*
X186065000Y-70592500D03*
X186065000Y-68052500D03*
X186065000Y-65512500D03*
X186065000Y-62972500D03*
X186065000Y-60432500D03*
D12*
X52861627Y-71231064D03*
X49561627Y-71231064D03*
D15*
X155231477Y-140725711D03*
X152703531Y-138604511D03*
D11*
X98097500Y-88564400D03*
X109097500Y-88564400D03*
D10*
X103597500Y-88564400D03*
D11*
X103597500Y-82664400D03*
X98597500Y-84764400D03*
X108597500Y-84764400D03*
D13*
X142147500Y-115529800D03*
X142147500Y-117029800D03*
D14*
X137047500Y-117029800D03*
D13*
X137047500Y-115529800D03*
D12*
X91049127Y-102231064D03*
X87749127Y-102231064D03*
X73049127Y-105231064D03*
X69749127Y-105231064D03*
X55049127Y-122231064D03*
X51749127Y-122231064D03*
D11*
X109097500Y-122564400D03*
D10*
X103597500Y-122564400D03*
D11*
X98097500Y-122564400D03*
X103597500Y-116664400D03*
X108597500Y-118764400D03*
X98597500Y-118764400D03*
D12*
X91049127Y-51231064D03*
X87749127Y-51231064D03*
D11*
X116097500Y-74564400D03*
X127097500Y-74564400D03*
D10*
X121597500Y-74564400D03*
D11*
X121597500Y-68664400D03*
X126597500Y-70764400D03*
X116597500Y-70764400D03*
D13*
X88147500Y-78529800D03*
X88147500Y-80029800D03*
D14*
X83047500Y-80029800D03*
D13*
X83047500Y-78529800D03*
D11*
X41910000Y-60564400D03*
X52910000Y-60564400D03*
D10*
X47410000Y-60564400D03*
D11*
X47410000Y-54664400D03*
X52410000Y-56764400D03*
X42410000Y-56764400D03*
D13*
X70147500Y-115529800D03*
X70147500Y-117029800D03*
D14*
X65047500Y-117029800D03*
D13*
X65047500Y-115529800D03*
X70147500Y-64529800D03*
X70147500Y-66029800D03*
D14*
X65047500Y-66029800D03*
D13*
X65047500Y-64529800D03*
D11*
X41910000Y-77564400D03*
D10*
X47410000Y-77564400D03*
D11*
X52910000Y-77564400D03*
X47410000Y-71664400D03*
X52410000Y-73764400D03*
X42410000Y-73764400D03*
D13*
X106147500Y-92529800D03*
X106147500Y-94029800D03*
D14*
X101047500Y-94029800D03*
D13*
X101047500Y-92529800D03*
D19*
X157307439Y-133717832D03*
X156343258Y-134866899D03*
D20*
X152436431Y-131588682D03*
D19*
X153400612Y-130439615D03*
D11*
X91097500Y-125564400D03*
D10*
X85597500Y-125564400D03*
D11*
X80097500Y-125564400D03*
X85597500Y-119664400D03*
X90597500Y-121764400D03*
X80597500Y-121764400D03*
D12*
X73049127Y-88231064D03*
X69749127Y-88231064D03*
D10*
X67597500Y-60564400D03*
D11*
X73097500Y-60564400D03*
X62097500Y-60564400D03*
X67597500Y-54664400D03*
X72597500Y-56764400D03*
X62597500Y-56764400D03*
X80097500Y-74564400D03*
X91097500Y-74564400D03*
D10*
X85597500Y-74564400D03*
D11*
X85597500Y-68664400D03*
X90597500Y-70764400D03*
X80597500Y-70764400D03*
X62097500Y-111564400D03*
X73097500Y-111564400D03*
D10*
X67597500Y-111564400D03*
D11*
X67597500Y-105664400D03*
X62597500Y-107764400D03*
X72597500Y-107764400D03*
D12*
X145199127Y-54231064D03*
X141899127Y-54231064D03*
X109049127Y-116231064D03*
X105749127Y-116231064D03*
X109049127Y-99231064D03*
X105749127Y-99231064D03*
X73049127Y-122231064D03*
X69749127Y-122231064D03*
D11*
X162116179Y-132576384D03*
D10*
X157902935Y-129041052D03*
D11*
X153689691Y-125505720D03*
X161695382Y-124521390D03*
X164175750Y-129344021D03*
X156515306Y-122916145D03*
D12*
X163049127Y-69106064D03*
X159749127Y-69106064D03*
D10*
X139597500Y-111564400D03*
D11*
X134097500Y-111564400D03*
X145097500Y-111564400D03*
X139597500Y-105664400D03*
X144597500Y-107764400D03*
X134597500Y-107764400D03*
D13*
X49960000Y-64529800D03*
X49960000Y-66029800D03*
D14*
X44860000Y-66029800D03*
D13*
X44860000Y-64529800D03*
D10*
X67597500Y-128564400D03*
D11*
X62097500Y-128564400D03*
X73097500Y-128564400D03*
X67597500Y-122664400D03*
X62597500Y-124764400D03*
X72597500Y-124764400D03*
D12*
X127049127Y-102231064D03*
X123749127Y-102231064D03*
D11*
X127097500Y-91564400D03*
D10*
X121597500Y-91564400D03*
D11*
X116097500Y-91564400D03*
X121597500Y-85664400D03*
X116597500Y-87764400D03*
X126597500Y-87764400D03*
X41910000Y-94564400D03*
X52910000Y-94564400D03*
D10*
X47410000Y-94564400D03*
D11*
X47410000Y-88664400D03*
X52410000Y-90764400D03*
X42410000Y-90764400D03*
D13*
X124147500Y-112529800D03*
X124147500Y-114029800D03*
D14*
X119047500Y-114029800D03*
D13*
X119047500Y-112529800D03*
D10*
X85597500Y-57564400D03*
D11*
X80097500Y-57564400D03*
X91097500Y-57564400D03*
X85597500Y-51664400D03*
X90597500Y-53764400D03*
X80597500Y-53764400D03*
D13*
X124147500Y-95529800D03*
X124147500Y-97029800D03*
D14*
X119047500Y-97029800D03*
D13*
X119047500Y-95529800D03*
D11*
X163097500Y-75439400D03*
D10*
X157597500Y-75439400D03*
D11*
X152097500Y-75439400D03*
X157597500Y-69539400D03*
X162597500Y-71639400D03*
X152597500Y-71639400D03*
D13*
X88147500Y-112529800D03*
X88147500Y-114029800D03*
D14*
X83047500Y-114029800D03*
D13*
X83047500Y-112529800D03*
X106147500Y-126529800D03*
X106147500Y-128029800D03*
D14*
X101047500Y-128029800D03*
D13*
X101047500Y-126529800D03*
D21*
X174143600Y-109814800D03*
X180643600Y-109814800D03*
X174143600Y-114314800D03*
X180643600Y-114314800D03*
D13*
X106147500Y-109529800D03*
X106147500Y-111029800D03*
D14*
X101047500Y-111029800D03*
D13*
X101047500Y-109529800D03*
X52147500Y-132529800D03*
X52147500Y-134029800D03*
D14*
X47047500Y-134029800D03*
D13*
X47047500Y-132529800D03*
X49960000Y-81529800D03*
X49960000Y-83029800D03*
D14*
X44860000Y-83029800D03*
D13*
X44860000Y-81529800D03*
D11*
X62097500Y-94564400D03*
X73097500Y-94564400D03*
D10*
X67597500Y-94564400D03*
D11*
X67597500Y-88664400D03*
X62597500Y-90764400D03*
X72597500Y-90764400D03*
D10*
X121597500Y-108564400D03*
D11*
X116097500Y-108564400D03*
X127097500Y-108564400D03*
X121597500Y-102664400D03*
X126597500Y-104764400D03*
X116597500Y-104764400D03*
D12*
X52861627Y-88231064D03*
X49561627Y-88231064D03*
D19*
X146380050Y-146740589D03*
X145415869Y-147889656D03*
D20*
X141509042Y-144611439D03*
D19*
X142473223Y-143462372D03*
D13*
X70147500Y-81529800D03*
X70147500Y-83029800D03*
D14*
X65047500Y-83029800D03*
D13*
X65047500Y-81529800D03*
D12*
X73049127Y-54231064D03*
X69749127Y-54231064D03*
X73049127Y-71231064D03*
X69749127Y-71231064D03*
X127049127Y-68231064D03*
X123749127Y-68231064D03*
D11*
X80097500Y-108564400D03*
X91097500Y-108564400D03*
D10*
X85597500Y-108564400D03*
D11*
X85597500Y-102664400D03*
X80597500Y-104764400D03*
X90597500Y-104764400D03*
D19*
X160168849Y-158310766D03*
X159204668Y-159459833D03*
D20*
X155297841Y-156181616D03*
D19*
X156262022Y-155032549D03*
D10*
X121597500Y-57564400D03*
D11*
X127097500Y-57564400D03*
X116097500Y-57564400D03*
X121597500Y-51664400D03*
X126597500Y-53764400D03*
X116597500Y-53764400D03*
X52910000Y-111564400D03*
X41910000Y-111564400D03*
D10*
X47410000Y-111564400D03*
D11*
X47410000Y-105664400D03*
X52410000Y-107764400D03*
X42410000Y-107764400D03*
D15*
X166158866Y-127702955D03*
X163630920Y-125581755D03*
D13*
X88147500Y-129529800D03*
X88147500Y-131029800D03*
D14*
X83047500Y-131029800D03*
D13*
X83047500Y-129529800D03*
D12*
X52861627Y-54231064D03*
X49561627Y-54231064D03*
D13*
X160147500Y-96404800D03*
X160147500Y-97904800D03*
D14*
X155047500Y-97904800D03*
D13*
X155047500Y-96404800D03*
D12*
X109049127Y-65231064D03*
X105749127Y-65231064D03*
D11*
X134097500Y-94564400D03*
D10*
X139597500Y-94564400D03*
D11*
X145097500Y-94564400D03*
X139597500Y-88664400D03*
X134597500Y-90764400D03*
X144597500Y-90764400D03*
D13*
X142297500Y-81529800D03*
X142297500Y-83029800D03*
D14*
X137197500Y-83029800D03*
D13*
X137197500Y-81529800D03*
D19*
X171096240Y-145288010D03*
X170132059Y-146437077D03*
D20*
X166225232Y-143158860D03*
D19*
X167189413Y-142009793D03*
D10*
X171691735Y-140611229D03*
D11*
X167478491Y-137075897D03*
X175904979Y-144146561D03*
X175484182Y-136091567D03*
X177964550Y-140914198D03*
X170304106Y-134486322D03*
D12*
X145049127Y-105231064D03*
X141749127Y-105231064D03*
D11*
X145097500Y-60564400D03*
X134097500Y-60564400D03*
D10*
X139597500Y-60564400D03*
D11*
X139597500Y-54664400D03*
X134597500Y-56764400D03*
X144597500Y-56764400D03*
X152097500Y-92439400D03*
D10*
X157597500Y-92439400D03*
D11*
X163097500Y-92439400D03*
X157597500Y-86539400D03*
X162597500Y-88639400D03*
X152597500Y-88639400D03*
D22*
X126347153Y-135397863D03*
X125834123Y-136807402D03*
D23*
X121041691Y-135063099D03*
D22*
X121554721Y-133653560D03*
D11*
X109097500Y-71564400D03*
X98097500Y-71564400D03*
D10*
X103597500Y-71564400D03*
D11*
X103597500Y-65664400D03*
X98597500Y-67764400D03*
X108597500Y-67764400D03*
D12*
X145049127Y-87274064D03*
X141749127Y-87274064D03*
D24*
X153035000Y-61907500D03*
X153035000Y-54907500D03*
D25*
X150735000Y-64607500D03*
X155335000Y-59507500D03*
X155335000Y-56507500D03*
X155335000Y-63507500D03*
D13*
X70147500Y-98529800D03*
X70147500Y-100029800D03*
D14*
X65047500Y-100029800D03*
D13*
X65047500Y-98529800D03*
X49960000Y-115529800D03*
X49960000Y-117029800D03*
D14*
X44860000Y-117029800D03*
D13*
X44860000Y-115529800D03*
D10*
X125307184Y-130799454D03*
D11*
X130475493Y-132680565D03*
X120138875Y-128918343D03*
X127325103Y-125255268D03*
X121908397Y-125518521D03*
X131305324Y-128938723D03*
D12*
X91049127Y-85231064D03*
X87749127Y-85231064D03*
D13*
X124147500Y-78529800D03*
X124147500Y-80029800D03*
D14*
X119047500Y-80029800D03*
D13*
X119047500Y-78529800D03*
X124147500Y-61529800D03*
X124147500Y-63029800D03*
D14*
X119047500Y-63029800D03*
D13*
X119047500Y-61529800D03*
D11*
X44097500Y-128564400D03*
D10*
X49597500Y-128564400D03*
D11*
X55097500Y-128564400D03*
X49597500Y-122664400D03*
X44597500Y-124764400D03*
X54597500Y-124764400D03*
D12*
X145199127Y-71231064D03*
X141899127Y-71231064D03*
X91049127Y-119231064D03*
X87749127Y-119231064D03*
D13*
X70147500Y-132529800D03*
X70147500Y-134029800D03*
D14*
X65047500Y-134029800D03*
D13*
X65047500Y-132529800D03*
D12*
X127049127Y-51231064D03*
X123749127Y-51231064D03*
X127049127Y-85231064D03*
X123749127Y-85231064D03*
D13*
X106147500Y-58529800D03*
X106147500Y-60029800D03*
D14*
X101047500Y-60029800D03*
D13*
X101047500Y-58529800D03*
D12*
X163049127Y-86106064D03*
X159749127Y-86106064D03*
X109049127Y-48231064D03*
X105749127Y-48231064D03*
D10*
X160764346Y-153633985D03*
D11*
X156551102Y-150098653D03*
X164977590Y-157169317D03*
X164556793Y-149114323D03*
X167037161Y-153936954D03*
X159376717Y-147509078D03*
D13*
X142297500Y-64529800D03*
X142297500Y-66029800D03*
D14*
X137197500Y-66029800D03*
D13*
X137197500Y-64529800D03*
X88147500Y-95529800D03*
X88147500Y-97029800D03*
D14*
X83047500Y-97029800D03*
D13*
X83047500Y-95529800D03*
D12*
X109049127Y-82231064D03*
X105749127Y-82231064D03*
D26*
X165252400Y-61632600D03*
X165252400Y-59982600D03*
D15*
X179947666Y-139273132D03*
X177419720Y-137151932D03*
D11*
X80097500Y-91564400D03*
X91097500Y-91564400D03*
D10*
X85597500Y-91564400D03*
D11*
X85597500Y-85664400D03*
X90597500Y-87764400D03*
X80597500Y-87764400D03*
D13*
X106147500Y-75529800D03*
X106147500Y-77029800D03*
D14*
X101047500Y-77029800D03*
D13*
X101047500Y-75529800D03*
D24*
X157642915Y-54911819D03*
X157642915Y-61911819D03*
D25*
X159942915Y-64611819D03*
X155342915Y-59511819D03*
X155342915Y-56511819D03*
X155342915Y-63511819D03*
D21*
X174143600Y-109814800D03*
X180643600Y-109814800D03*
X180643600Y-114314800D03*
X174143600Y-114314800D03*
M02*
