M48
; DRILL file {KiCad (6.0.5)} date Tue 24 May 2022 10:08:36 PM CEST
; FORMAT={-:-/ absolute / inch / decimal}
; #@! TF.CreationDate,2022-05-24T22:08:36+02:00
; #@! TF.GenerationSoftware,Kicad,Pcbnew,(6.0.5)
; #@! TF.FileFunction,Plated,1,2,PTH
FMAT,2
INCH
; #@! TA.AperFunction,Plated,PTH,ViaDrill
T1C0.0157
; #@! TA.AperFunction,Plated,PTH,ComponentDrill
T2C0.0354
; #@! TA.AperFunction,Plated,PTH,ComponentDrill
T3C0.0394
; #@! TA.AperFunction,Plated,PTH,ComponentDrill
T4C0.0433
; #@! TA.AperFunction,Plated,PTH,ComponentDrill
T5C0.0472
%
G90
G05
T1
X1.6976Y-3.8726
X1.7Y-2.525
X1.7Y-2.65
X1.7Y-3.2
X1.7Y-4.55
X1.75Y-3.35
X1.775Y-4.0
X1.7797Y-5.2203
X1.8Y-5.325
X1.825Y-4.7
X1.9471Y-4.1471
X1.95Y-3.475
X1.95Y-4.675
X1.9512Y-2.1351
X1.9512Y-2.8044
X1.975Y-2.65
X1.975Y-3.35
X1.975Y-4.0
X2.0304Y-4.5946
X2.0373Y-4.8123
X2.0433Y-3.9382
X2.05Y-5.325
X2.0504Y-2.5996
X2.0561Y-3.2689
X2.0812Y-2.8044
X2.0812Y-3.4737
X2.0812Y-4.143
X2.0831Y-2.1331
X2.1263Y-5.2737
X2.1673Y-4.8122
X2.225Y-2.525
X2.225Y-2.65
X2.225Y-3.2
X2.225Y-3.725
X2.4618Y-3.9382
X2.4732Y-5.2768
X2.4754Y-2.5996
X2.4811Y-3.2689
X2.4925Y-4.6075
X2.5Y-5.225
X2.525Y-2.675
X2.525Y-3.35
X2.525Y-4.675
X2.55Y-4.025
X2.7445Y-4.1445
X2.746Y-2.1351
X2.746Y-2.8044
X2.746Y-3.4737
X2.746Y-4.8122
X2.775Y-2.65
X2.775Y-3.325
X2.775Y-4.675
X2.775Y-5.325
X2.8Y-4.0
X2.8402Y-3.2098
X2.8516Y-4.5484
X2.8573Y-5.2177
X2.8595Y-2.5405
X2.8704Y-2.1296
X2.8709Y-3.8791
X2.8733Y-2.8017
X2.8759Y-3.4737
X2.8759Y-4.143
X2.8759Y-4.8122
X3.1902Y-3.2098
X3.2Y-2.475
X3.2Y-5.15
X3.2016Y-4.5484
X3.2073Y-5.2177
X3.2105Y-2.5405
X3.2198Y-3.8698
X3.275Y-3.225
X3.3Y-3.9
X3.3Y-4.575
X3.4494Y-4.6994
X3.4523Y-4.0273
X3.4547Y-2.017
X3.4547Y-2.6863
X3.4547Y-3.3556
X3.475Y-2.525
X3.475Y-3.9
X3.475Y-4.55
X3.475Y-5.225
X3.5Y-3.225
X3.5526Y-2.4224
X3.5583Y-3.0917
X3.564Y-3.761
X3.5697Y-4.4303
X3.5754Y-5.0996
X3.5799Y-4.0201
X3.5827Y-4.6923
X3.5838Y-2.0162
X3.5846Y-2.6863
X3.5951Y-3.3451
X3.7Y-2.325
X3.725Y-2.475
X3.725Y-2.825
X3.8833Y-3.0917
X3.889Y-3.761
X3.8947Y-4.4303
X3.9Y-5.025
X3.9208Y-2.4208
X3.9219Y-5.0969
X4.0Y-2.45
X4.0Y-3.125
X4.0Y-3.775
X4.0Y-4.45
X4.1572Y-4.5822
X4.1634Y-1.8989
X4.1634Y-2.5682
X4.1634Y-3.2374
X4.1634Y-3.9067
X4.175Y-5.1
X4.2Y-2.425
X4.2Y-3.1
X4.2Y-3.775
X4.2Y-4.45
X4.2517Y-3.6983
X4.2585Y-2.3665
X4.2671Y-4.3829
X4.2685Y-4.9815
X4.2739Y-3.0511
X4.2933Y-2.5682
X4.2933Y-3.2374
X4.2933Y-3.9067
X4.2972Y-1.9028
X4.299Y-4.576
X4.5742Y-3.1508
X4.6049Y-3.8201
X4.6106Y-4.4894
X4.6185Y-2.4815
X4.625Y-3.2
X4.65Y-3.875
X4.675Y-2.55
X4.675Y-4.55
X4.699Y-5.251
X4.725Y-5.2
X4.872Y-2.017
X4.872Y-2.6863
X4.872Y-3.3556
X4.872Y-4.0248
X4.9Y-2.525
X4.9Y-4.55
X4.925Y-3.225
X4.925Y-3.875
X4.95Y-5.45
X4.9595Y-3.8155
X4.9624Y-4.4876
X4.9663Y-2.4837
X4.9691Y-3.1559
X4.9953Y-2.6797
X5.001Y-4.024
X5.0019Y-2.017
X5.0019Y-3.3556
X5.0444Y-5.3306
X5.0984Y-4.9444
X5.125Y-3.2
X5.125Y-3.325
X5.2205Y-4.9888
X5.275Y-5.05
X5.2963Y-3.2787
X5.2965Y-3.9006
X5.3Y-3.825
X5.3Y-4.9
X5.3175Y-4.6075
X5.3254Y-2.5996
X5.35Y-2.65
X5.35Y-3.325
X5.375Y-4.7
X5.5139Y-5.6361
X5.55Y-5.575
X5.5724Y-2.8224
X5.5807Y-3.436
X5.5807Y-4.143
X5.5866Y-2.1351
X5.6Y-4.675
X5.625Y-2.65
X5.625Y-3.975
X5.625Y-4.85
X5.6701Y-4.6049
X5.672Y-3.278
X5.6736Y-3.9014
X5.675Y-3.35
X5.675Y-5.875
X5.677Y-2.598
X5.7Y-4.85
X5.7088Y-4.1412
X5.7106Y-2.8142
X5.7106Y-3.436
X5.7168Y-2.1344
X5.8Y-3.5
X5.8Y-4.225
X5.8179Y-5.8321
X5.825Y-3.575
X5.825Y-4.5
X5.85Y-2.85
X5.85Y-4.225
X5.85Y-4.325
X5.875Y-3.175
X5.875Y-5.125
X5.925Y-3.3
X5.925Y-3.475
X5.925Y-4.475
X5.925Y-5.2
X5.9479Y-5.1271
X5.95Y-2.75
X5.95Y-3.1
X5.9689Y-3.3907
X5.975Y-2.675
X5.975Y-5.025
X6.012Y-5.4569
X6.0265Y-3.1235
X6.0455Y-3.8545
X6.05Y-4.175
X6.05Y-4.325
X6.0679Y-6.0821
X6.075Y-3.25
X6.1Y-4.375
X6.1Y-6.025
X6.1115Y-5.5404
X6.125Y-2.875
X6.125Y-4.1
X6.125Y-5.375
X6.175Y-4.025
X6.225Y-6.325
X6.2519Y-5.3231
X6.275Y-3.3821
X6.3Y-2.725
X6.325Y-3.25
X6.325Y-3.925
X6.35Y-6.3
X6.375Y-3.175
X6.375Y-3.85
X6.4196Y-3.3893
X6.4299Y-2.7201
X6.4365Y-4.9385
X6.4523Y-5.6408
X6.4972Y-2.3528
X6.5Y-5.575
X6.506Y-2.4265
X6.525Y-2.7
X6.525Y-2.825
X6.55Y-5.025
X6.5548Y-5.9124
X6.6Y-2.275
X6.6Y-2.475
X6.6Y-3.525
X6.6543Y-5.9959
X6.675Y-5.825
X6.7598Y-5.8119
X6.9802Y-5.3948
X7.0846Y-5.4832
X7.112Y-2.787
X7.175Y-2.575
X7.175Y-3.35
X7.225Y-2.275
T3
X6.7254Y-2.3792
X6.7254Y-2.4792
X6.7254Y-2.5792
X6.7254Y-2.6792
X6.7254Y-2.7792
X6.7254Y-2.8792
X6.7254Y-2.9792
X6.7254Y-3.0792
X6.7254Y-3.1792
X6.7254Y-3.2792
X6.7254Y-3.3792
X6.7254Y-3.4792
X7.3254Y-2.3792
X7.3254Y-2.4792
X7.3254Y-2.5792
X7.3254Y-2.6792
X7.3254Y-2.7792
X7.3254Y-2.8792
X7.3254Y-2.9792
X7.3254Y-3.0792
X7.3254Y-3.1792
X7.3254Y-3.2792
X7.3254Y-3.3792
X7.3254Y-3.4792
T4
X6.856Y-4.3234
X6.856Y-4.3234
X6.856Y-4.5006
X6.856Y-4.5006
X7.112Y-4.3234
X7.112Y-4.3234
X7.112Y-4.5006
X7.112Y-4.5006
T5
X1.6697Y-2.2348
X1.6697Y-2.9041
X1.6697Y-3.5734
X1.6697Y-4.2427
X1.7558Y-4.912
X1.8665Y-2.1521
X1.8665Y-2.8214
X1.8665Y-3.4907
X1.8665Y-4.16
X1.9527Y-4.8293
X2.0634Y-2.2348
X2.0634Y-2.9041
X2.0634Y-3.5734
X2.0634Y-4.2427
X2.1495Y-4.912
X2.4645Y-2.2348
X2.4645Y-2.9041
X2.4645Y-3.5734
X2.4645Y-4.2427
X2.4645Y-4.912
X2.6613Y-2.1521
X2.6613Y-2.8214
X2.6613Y-3.4907
X2.6613Y-4.16
X2.6613Y-4.8293
X2.8582Y-2.2348
X2.8582Y-2.9041
X2.8582Y-3.5734
X2.8582Y-4.2427
X2.8582Y-4.912
X3.1731Y-2.1167
X3.1731Y-2.786
X3.1731Y-3.4553
X3.1731Y-4.1246
X3.1731Y-4.7939
X3.37Y-2.034
X3.37Y-2.7033
X3.37Y-3.3726
X3.37Y-4.0419
X3.37Y-4.7112
X3.5668Y-2.1167
X3.5668Y-2.786
X3.5668Y-3.4553
X3.5668Y-4.1246
X3.5668Y-4.7939
X3.8818Y-1.9986
X3.8818Y-2.6679
X3.8818Y-3.3372
X3.8818Y-4.0065
X3.8818Y-4.6758
X4.0786Y-1.9159
X4.0786Y-2.5852
X4.0786Y-3.2545
X4.0786Y-3.9238
X4.0786Y-4.5931
X4.2755Y-1.9986
X4.2755Y-2.6679
X4.2755Y-3.3372
X4.2755Y-4.0065
X4.2755Y-4.6758
X4.5905Y-2.1167
X4.5905Y-2.786
X4.5905Y-3.4553
X4.5905Y-4.1246
X4.7873Y-2.034
X4.7873Y-2.7033
X4.7873Y-3.3726
X4.7873Y-4.0419
X4.7995Y-4.9417
X4.9842Y-2.1167
X4.9842Y-2.786
X4.9842Y-3.4553
X4.9842Y-4.1246
X5.0128Y-4.9313
X5.1695Y-5.0763
X5.2991Y-2.2348
X5.2991Y-2.9041
X5.2991Y-3.5734
X5.2991Y-4.2427
X5.496Y-2.1521
X5.496Y-2.8214
X5.496Y-3.4907
X5.496Y-4.16
X5.6928Y-2.2348
X5.6928Y-2.9041
X5.6928Y-3.5734
X5.6928Y-4.2427
X5.7318Y-5.3519
X5.9357Y-5.4151
X6.0078Y-2.8204
X6.0078Y-3.4897
X6.0334Y-5.605
X6.162Y-4.8392
X6.2046Y-2.7378
X6.2046Y-3.4071
X6.2747Y-5.8074
X6.366Y-4.9024
X6.4015Y-2.8204
X6.4015Y-3.4897
X6.4636Y-5.0923
X6.4786Y-5.8706
X6.5763Y-6.0605
X6.7049Y-5.2947
X6.9088Y-5.3579
X7.0065Y-5.5478
T2
G00X5.9344Y-2.5357
M15
G01X5.9344Y-2.5515
M16
G05
G00X6.1156Y-2.2168
M15
G01X6.1156Y-2.2326
M16
G05
G00X6.1156Y-2.3349
M15
G01X6.1156Y-2.3507
M16
G05
G00X6.1156Y-2.4924
M15
G01X6.1156Y-2.5082
M16
G05
G00X6.1159Y-2.2327
M15
G01X6.1159Y-2.217
M16
G05
G00X6.1159Y-2.3509
M15
G01X6.1159Y-2.3351
M16
G05
G00X6.1159Y-2.5083
M15
G01X6.1159Y-2.4926
M16
G05
G00X6.297Y-2.5516
M15
G01X6.297Y-2.5359
M16
G05
T0
M30
