%FSLAX45Y45*%
G04 Gerber Fmt 4.5, Leading zero omitted, Abs format (unit mm)*
G04 Created by KiCad (PCBNEW (6.0.5)) date 2022-05-24 22:08:34*
%MOMM*%
%LPD*%
G01*
G04 APERTURE LIST*
%TA.AperFunction,Profile*%
%ADD10C,0.100000*%
%TD*%
%ADD11C,0.200000*%
%ADD12C,0.040000*%
%ADD13C,0.090000*%
%ADD14C,0.100000*%
%ADD15C,0.110000*%
%ADD16C,0.120000*%
G04 APERTURE END LIST*
D10*
X11557000Y-4889500D02*
X11239500Y-4572000D01*
X13271500Y-5080000D02*
X13081000Y-4889500D01*
X16065500Y-5080000D02*
X13271500Y-5080000D01*
X9461500Y-4572000D02*
X9144000Y-4889500D01*
X9144000Y-4889500D02*
X7683500Y-4889500D01*
X16954500Y-5588000D02*
X16065500Y-5080000D01*
X4064000Y-12446000D02*
X4064000Y-13716000D01*
X16256000Y-16637000D02*
X18542000Y-13970000D01*
X7366000Y-5207000D02*
X3619500Y-5207000D01*
X13081000Y-4889500D02*
X11557000Y-4889500D01*
X18542000Y-13970000D02*
X18796000Y-9207500D01*
X11239500Y-4572000D02*
X9461500Y-4572000D01*
X18796000Y-5588000D02*
X16954500Y-5588000D01*
X3619500Y-5207000D02*
X3619500Y-12001500D01*
X3619500Y-12001500D02*
X4064000Y-12446000D01*
X18796000Y-9207500D02*
X18796000Y-5588000D01*
X7683500Y-13716000D02*
X8001000Y-13398500D01*
X7683500Y-4889500D02*
X7366000Y-5207000D01*
X8001000Y-13398500D02*
X10922000Y-13398500D01*
X4064000Y-13716000D02*
X7683500Y-13716000D01*
X10922000Y-13398500D02*
X13525500Y-14351000D01*
X13525500Y-14351000D02*
X16256000Y-16637000D01*
D11*
D12*
X4291789Y-9816289D02*
X4331789Y-9856289D01*
X4331789Y-9816289D02*
X4291789Y-9856289D01*
X4298000Y-6393500D02*
X4338000Y-6433500D01*
X4338000Y-6393500D02*
X4298000Y-6433500D01*
X4298000Y-6711000D02*
X4338000Y-6751000D01*
X4338000Y-6711000D02*
X4298000Y-6751000D01*
X4298000Y-8108000D02*
X4338000Y-8148000D01*
X4338000Y-8108000D02*
X4298000Y-8148000D01*
X4298000Y-11537000D02*
X4338000Y-11577000D01*
X4338000Y-11537000D02*
X4298000Y-11577000D01*
X4425000Y-8489000D02*
X4465000Y-8529000D01*
X4465000Y-8489000D02*
X4425000Y-8529000D01*
X4488500Y-10140000D02*
X4528500Y-10180000D01*
X4528500Y-10140000D02*
X4488500Y-10180000D01*
X4500434Y-13239566D02*
X4540434Y-13279566D01*
X4540434Y-13239566D02*
X4500434Y-13279566D01*
X4552000Y-13505500D02*
X4592000Y-13545500D01*
X4592000Y-13505500D02*
X4552000Y-13545500D01*
X4615500Y-11918000D02*
X4655500Y-11958000D01*
X4655500Y-11918000D02*
X4615500Y-11958000D01*
X4925635Y-10513635D02*
X4965635Y-10553635D01*
X4965635Y-10513635D02*
X4925635Y-10553635D01*
X4932885Y-8806385D02*
X4972885Y-8846385D01*
X4972885Y-8806385D02*
X4932885Y-8846385D01*
X4933000Y-11854500D02*
X4973000Y-11894500D01*
X4973000Y-11854500D02*
X4933000Y-11894500D01*
X4936163Y-5403106D02*
X4976163Y-5443106D01*
X4976163Y-5403106D02*
X4936163Y-5443106D01*
X4936163Y-7103106D02*
X4976163Y-7143106D01*
X4976163Y-7103106D02*
X4936163Y-7143106D01*
X4996500Y-6711000D02*
X5036500Y-6751000D01*
X5036500Y-6711000D02*
X4996500Y-6751000D01*
X4996500Y-8489000D02*
X5036500Y-8529000D01*
X5036500Y-8489000D02*
X4996500Y-8529000D01*
X4996500Y-10140000D02*
X5036500Y-10180000D01*
X5036500Y-10140000D02*
X4996500Y-10180000D01*
X5137260Y-11650240D02*
X5177260Y-11690240D01*
X5177260Y-11650240D02*
X5137260Y-11690240D01*
X5154760Y-12203260D02*
X5194760Y-12243260D01*
X5194760Y-12203260D02*
X5154760Y-12243260D01*
X5170000Y-9982980D02*
X5210000Y-10022980D01*
X5210000Y-9982980D02*
X5170000Y-10022980D01*
X5187000Y-13505500D02*
X5227000Y-13545500D01*
X5227000Y-13505500D02*
X5187000Y-13545500D01*
X5188020Y-6582980D02*
X5228020Y-6622980D01*
X5228020Y-6582980D02*
X5188020Y-6622980D01*
X5202520Y-8282980D02*
X5242520Y-8322980D01*
X5242520Y-8282980D02*
X5202520Y-8322980D01*
X5266163Y-7103106D02*
X5306163Y-7143106D01*
X5306163Y-7103106D02*
X5266163Y-7143106D01*
X5266163Y-8803106D02*
X5306163Y-8843106D01*
X5306163Y-8803106D02*
X5266163Y-8843106D01*
X5266163Y-10503106D02*
X5306163Y-10543106D01*
X5306163Y-10503106D02*
X5266163Y-10543106D01*
X5271135Y-5398135D02*
X5311135Y-5438135D01*
X5311135Y-5398135D02*
X5271135Y-5438135D01*
X5380885Y-13375115D02*
X5420885Y-13415115D01*
X5420885Y-13375115D02*
X5380885Y-13415115D01*
X5484913Y-12203106D02*
X5524913Y-12243106D01*
X5524913Y-12203106D02*
X5484913Y-12243106D01*
X5631500Y-6393500D02*
X5671500Y-6433500D01*
X5671500Y-6393500D02*
X5631500Y-6433500D01*
X5631500Y-6711000D02*
X5671500Y-6751000D01*
X5671500Y-6711000D02*
X5631500Y-6751000D01*
X5631500Y-8108000D02*
X5671500Y-8148000D01*
X5671500Y-8108000D02*
X5631500Y-8148000D01*
X5631500Y-9441500D02*
X5671500Y-9481500D01*
X5671500Y-9441500D02*
X5631500Y-9481500D01*
X6233020Y-9982980D02*
X6273020Y-10022980D01*
X6273020Y-9982980D02*
X6233020Y-10022980D01*
X6262020Y-13382980D02*
X6302020Y-13422980D01*
X6302020Y-13382980D02*
X6262020Y-13422980D01*
X6267520Y-6582980D02*
X6307520Y-6622980D01*
X6307520Y-6582980D02*
X6267520Y-6622980D01*
X6282020Y-8282980D02*
X6322020Y-8322980D01*
X6322020Y-8282980D02*
X6282020Y-8322980D01*
X6311020Y-11682980D02*
X6351020Y-11722980D01*
X6351020Y-11682980D02*
X6311020Y-11722980D01*
X6330000Y-13251500D02*
X6370000Y-13291500D01*
X6370000Y-13251500D02*
X6330000Y-13291500D01*
X6393500Y-6774500D02*
X6433500Y-6814500D01*
X6433500Y-6774500D02*
X6393500Y-6814500D01*
X6393500Y-8489000D02*
X6433500Y-8529000D01*
X6433500Y-8489000D02*
X6393500Y-8529000D01*
X6393500Y-11854500D02*
X6433500Y-11894500D01*
X6433500Y-11854500D02*
X6393500Y-11894500D01*
X6457000Y-10203500D02*
X6497000Y-10243500D01*
X6497000Y-10203500D02*
X6457000Y-10243500D01*
X6951009Y-10507010D02*
X6991009Y-10547010D01*
X6991009Y-10507010D02*
X6951009Y-10547010D01*
X6954913Y-5403106D02*
X6994913Y-5443106D01*
X6994913Y-5403106D02*
X6954913Y-5443106D01*
X6954913Y-7103106D02*
X6994913Y-7143106D01*
X6994913Y-7103106D02*
X6954913Y-7143106D01*
X6954913Y-8803106D02*
X6994913Y-8843106D01*
X6994913Y-8803106D02*
X6954913Y-8843106D01*
X6954913Y-12203106D02*
X6994913Y-12243106D01*
X6994913Y-12203106D02*
X6954913Y-12243106D01*
X7028500Y-6711000D02*
X7068500Y-6751000D01*
X7068500Y-6711000D02*
X7028500Y-6751000D01*
X7028500Y-8425500D02*
X7068500Y-8465500D01*
X7068500Y-8425500D02*
X7028500Y-8465500D01*
X7028500Y-11854500D02*
X7068500Y-11894500D01*
X7068500Y-11854500D02*
X7028500Y-11894500D01*
X7028500Y-13505500D02*
X7068500Y-13545500D01*
X7068500Y-13505500D02*
X7028500Y-13545500D01*
X7092000Y-10140000D02*
X7132000Y-10180000D01*
X7132000Y-10140000D02*
X7092000Y-10180000D01*
X7194020Y-8132980D02*
X7234020Y-8172980D01*
X7234020Y-8132980D02*
X7194020Y-8172980D01*
X7223020Y-11532980D02*
X7263020Y-11572980D01*
X7263020Y-11532980D02*
X7223020Y-11572980D01*
X7237520Y-13232980D02*
X7277520Y-13272980D01*
X7277520Y-13232980D02*
X7237520Y-13272980D01*
X7243020Y-6432980D02*
X7283020Y-6472980D01*
X7283020Y-6432980D02*
X7243020Y-6472980D01*
X7270903Y-5389097D02*
X7310903Y-5429097D01*
X7310903Y-5389097D02*
X7270903Y-5429097D01*
X7272020Y-9832980D02*
X7312020Y-9872980D01*
X7312020Y-9832980D02*
X7272020Y-9872980D01*
X7278153Y-7096347D02*
X7318153Y-7136347D01*
X7318153Y-7096347D02*
X7278153Y-7136347D01*
X7284913Y-8803106D02*
X7324913Y-8843106D01*
X7324913Y-8803106D02*
X7284913Y-8843106D01*
X7284913Y-10503106D02*
X7324913Y-10543106D01*
X7324913Y-10503106D02*
X7284913Y-10543106D01*
X7284913Y-12203106D02*
X7324913Y-12243106D01*
X7324913Y-12203106D02*
X7284913Y-12243106D01*
X8083020Y-8132980D02*
X8123020Y-8172980D01*
X8123020Y-8132980D02*
X8083020Y-8172980D01*
X8108000Y-6266500D02*
X8148000Y-6306500D01*
X8148000Y-6266500D02*
X8108000Y-6306500D01*
X8108000Y-13061000D02*
X8148000Y-13101000D01*
X8148000Y-13061000D02*
X8108000Y-13101000D01*
X8112020Y-11532980D02*
X8152020Y-11572980D01*
X8152020Y-11532980D02*
X8112020Y-11572980D01*
X8126520Y-13232980D02*
X8166520Y-13272980D01*
X8166520Y-13232980D02*
X8126520Y-13272980D01*
X8134750Y-6432980D02*
X8174750Y-6472980D01*
X8174750Y-6432980D02*
X8134750Y-6472980D01*
X8158365Y-9809365D02*
X8198365Y-9849365D01*
X8198365Y-9809365D02*
X8158365Y-9849365D01*
X8298500Y-8171500D02*
X8338500Y-8211500D01*
X8338500Y-8171500D02*
X8298500Y-8211500D01*
X8362000Y-9886000D02*
X8402000Y-9926000D01*
X8402000Y-9886000D02*
X8362000Y-9926000D01*
X8362000Y-11600500D02*
X8402000Y-11640500D01*
X8402000Y-11600500D02*
X8362000Y-11640500D01*
X8741510Y-11916509D02*
X8781510Y-11956509D01*
X8781510Y-11916509D02*
X8741510Y-11956509D01*
X8748760Y-10209260D02*
X8788760Y-10249260D01*
X8788760Y-10209260D02*
X8748760Y-10249260D01*
X8754913Y-5103106D02*
X8794913Y-5143106D01*
X8794913Y-5103106D02*
X8754913Y-5143106D01*
X8754913Y-6803106D02*
X8794913Y-6843106D01*
X8794913Y-6803106D02*
X8754913Y-6843106D01*
X8754913Y-8503106D02*
X8794913Y-8543106D01*
X8794913Y-8503106D02*
X8754913Y-8543106D01*
X8806500Y-6393500D02*
X8846500Y-6433500D01*
X8846500Y-6393500D02*
X8806500Y-6433500D01*
X8806500Y-9886000D02*
X8846500Y-9926000D01*
X8846500Y-9886000D02*
X8806500Y-9926000D01*
X8806500Y-11537000D02*
X8846500Y-11577000D01*
X8846500Y-11537000D02*
X8806500Y-11577000D01*
X8806500Y-13251500D02*
X8846500Y-13291500D01*
X8846500Y-13251500D02*
X8806500Y-13291500D01*
X8870000Y-8171500D02*
X8910000Y-8211500D01*
X8910000Y-8171500D02*
X8870000Y-8211500D01*
X9003520Y-6132980D02*
X9043520Y-6172980D01*
X9043520Y-6132980D02*
X9003520Y-6172980D01*
X9018020Y-7832980D02*
X9058020Y-7872980D01*
X9058020Y-7832980D02*
X9018020Y-7872980D01*
X9032520Y-9532980D02*
X9072520Y-9572980D01*
X9072520Y-9532980D02*
X9032520Y-9572980D01*
X9047020Y-11232980D02*
X9087020Y-11272980D01*
X9087020Y-11232980D02*
X9047020Y-11272980D01*
X9061520Y-12932980D02*
X9101520Y-12972980D01*
X9101520Y-12932980D02*
X9061520Y-12972980D01*
X9072903Y-10191097D02*
X9112903Y-10231097D01*
X9112903Y-10191097D02*
X9072903Y-10231097D01*
X9080153Y-11898347D02*
X9120153Y-11938347D01*
X9120153Y-11898347D02*
X9080153Y-11938347D01*
X9082903Y-5101097D02*
X9122903Y-5141097D01*
X9122903Y-5101097D02*
X9082903Y-5141097D01*
X9084913Y-6803106D02*
X9124913Y-6843106D01*
X9124913Y-6803106D02*
X9084913Y-6843106D01*
X9111510Y-8476510D02*
X9151510Y-8516510D01*
X9151510Y-8476510D02*
X9111510Y-8516510D01*
X9378000Y-5885500D02*
X9418000Y-5925500D01*
X9418000Y-5885500D02*
X9378000Y-5925500D01*
X9441500Y-6266500D02*
X9481500Y-6306500D01*
X9481500Y-6266500D02*
X9441500Y-6306500D01*
X9441500Y-7155500D02*
X9481500Y-7195500D01*
X9481500Y-7155500D02*
X9441500Y-7195500D01*
X9843520Y-7832980D02*
X9883520Y-7872980D01*
X9883520Y-7832980D02*
X9843520Y-7872980D01*
X9858020Y-9532980D02*
X9898020Y-9572980D01*
X9898020Y-9532980D02*
X9858020Y-9572980D01*
X9872520Y-11232980D02*
X9912520Y-11272980D01*
X9912520Y-11232980D02*
X9872520Y-11272980D01*
X9886000Y-12743500D02*
X9926000Y-12783500D01*
X9926000Y-12743500D02*
X9886000Y-12783500D01*
X9938865Y-6128865D02*
X9978865Y-6168865D01*
X9978865Y-6128865D02*
X9938865Y-6168865D01*
X9941615Y-12926115D02*
X9981615Y-12966115D01*
X9981615Y-12926115D02*
X9941615Y-12966115D01*
X10140000Y-6203000D02*
X10180000Y-6243000D01*
X10180000Y-6203000D02*
X10140000Y-6243000D01*
X10140000Y-7917500D02*
X10180000Y-7957500D01*
X10180000Y-7917500D02*
X10140000Y-7957500D01*
X10140000Y-9568500D02*
X10180000Y-9608500D01*
X10180000Y-9568500D02*
X10140000Y-9608500D01*
X10140000Y-11283000D02*
X10180000Y-11323000D01*
X10180000Y-11283000D02*
X10140000Y-11323000D01*
X10539260Y-11618760D02*
X10579260Y-11658760D01*
X10579260Y-11618760D02*
X10539260Y-11658760D01*
X10554913Y-4803106D02*
X10594913Y-4843106D01*
X10594913Y-4803106D02*
X10554913Y-4843106D01*
X10554913Y-6503106D02*
X10594913Y-6543106D01*
X10594913Y-6503106D02*
X10554913Y-6543106D01*
X10554913Y-8203106D02*
X10594913Y-8243106D01*
X10594913Y-8203106D02*
X10554913Y-8243106D01*
X10554913Y-9903106D02*
X10594913Y-9943106D01*
X10594913Y-9903106D02*
X10554913Y-9943106D01*
X10584500Y-12934000D02*
X10624500Y-12974000D01*
X10624500Y-12934000D02*
X10584500Y-12974000D01*
X10648000Y-6139500D02*
X10688000Y-6179500D01*
X10688000Y-6139500D02*
X10648000Y-6179500D01*
X10648000Y-7854000D02*
X10688000Y-7894000D01*
X10688000Y-7854000D02*
X10648000Y-7894000D01*
X10648000Y-9568500D02*
X10688000Y-9608500D01*
X10688000Y-9568500D02*
X10648000Y-9608500D01*
X10648000Y-11283000D02*
X10688000Y-11323000D01*
X10688000Y-11283000D02*
X10648000Y-11323000D01*
X10779385Y-9373615D02*
X10819385Y-9413615D01*
X10819385Y-9373615D02*
X10779385Y-9413615D01*
X10796635Y-5990865D02*
X10836635Y-6030865D01*
X10836635Y-5990865D02*
X10796635Y-6030865D01*
X10818385Y-11112615D02*
X10858385Y-11152615D01*
X10858385Y-11112615D02*
X10818385Y-11152615D01*
X10822020Y-12632980D02*
X10862020Y-12672980D01*
X10862020Y-12632980D02*
X10822020Y-12672980D01*
X10835635Y-7729865D02*
X10875635Y-7769865D01*
X10875635Y-7729865D02*
X10835635Y-7769865D01*
X10884913Y-6503106D02*
X10924913Y-6543106D01*
X10924913Y-6503106D02*
X10884913Y-6543106D01*
X10884913Y-8203106D02*
X10924913Y-8243106D01*
X10924913Y-8203106D02*
X10884913Y-8243106D01*
X10884913Y-9903106D02*
X10924913Y-9943106D01*
X10924913Y-9903106D02*
X10884913Y-9943106D01*
X10894903Y-4813097D02*
X10934903Y-4853097D01*
X10934903Y-4813097D02*
X10894903Y-4853097D01*
X10899394Y-11603106D02*
X10939394Y-11643106D01*
X10939394Y-11603106D02*
X10899394Y-11643106D01*
X11598520Y-7982980D02*
X11638520Y-8022980D01*
X11638520Y-7982980D02*
X11598520Y-8022980D01*
X11676520Y-9682980D02*
X11716520Y-9722980D01*
X11716520Y-9682980D02*
X11676520Y-9722980D01*
X11691020Y-11382980D02*
X11731020Y-11422980D01*
X11731020Y-11382980D02*
X11691020Y-11422980D01*
X11711020Y-6282980D02*
X11751020Y-6322980D01*
X11751020Y-6282980D02*
X11711020Y-6322980D01*
X11727500Y-8108000D02*
X11767500Y-8148000D01*
X11767500Y-8108000D02*
X11727500Y-8148000D01*
X11791000Y-9822500D02*
X11831000Y-9862500D01*
X11831000Y-9822500D02*
X11791000Y-9862500D01*
X11854500Y-6457000D02*
X11894500Y-6497000D01*
X11894500Y-6457000D02*
X11854500Y-6497000D01*
X11854500Y-11537000D02*
X11894500Y-11577000D01*
X11894500Y-11537000D02*
X11854500Y-11577000D01*
X11915430Y-13317570D02*
X11955430Y-13357570D01*
X11955430Y-13317570D02*
X11915430Y-13357570D01*
X11981500Y-13188000D02*
X12021500Y-13228000D01*
X12021500Y-13188000D02*
X11981500Y-13228000D01*
X12354913Y-5103106D02*
X12394913Y-5143106D01*
X12394913Y-5103106D02*
X12354913Y-5143106D01*
X12354913Y-6803106D02*
X12394913Y-6843106D01*
X12394913Y-6803106D02*
X12354913Y-6843106D01*
X12354913Y-8503106D02*
X12394913Y-8543106D01*
X12394913Y-8503106D02*
X12354913Y-8543106D01*
X12354913Y-10203106D02*
X12394913Y-10243106D01*
X12394913Y-10203106D02*
X12354913Y-10243106D01*
X12426000Y-6393500D02*
X12466000Y-6433500D01*
X12466000Y-6393500D02*
X12426000Y-6433500D01*
X12426000Y-11537000D02*
X12466000Y-11577000D01*
X12466000Y-11537000D02*
X12426000Y-11577000D01*
X12489500Y-8171500D02*
X12529500Y-8211500D01*
X12529500Y-8171500D02*
X12489500Y-8211500D01*
X12489500Y-9822500D02*
X12529500Y-9862500D01*
X12529500Y-9822500D02*
X12489500Y-9862500D01*
X12553000Y-13823000D02*
X12593000Y-13863000D01*
X12593000Y-13823000D02*
X12553000Y-13863000D01*
X12577135Y-9671365D02*
X12617135Y-9711365D01*
X12617135Y-9671365D02*
X12577135Y-9711365D01*
X12584385Y-11378615D02*
X12624385Y-11418615D01*
X12624385Y-11378615D02*
X12584385Y-11418615D01*
X12594385Y-6288615D02*
X12634385Y-6328615D01*
X12634385Y-6288615D02*
X12594385Y-6328615D01*
X12601635Y-7995865D02*
X12641635Y-8035865D01*
X12641635Y-7995865D02*
X12601635Y-8035865D01*
X12668153Y-6786347D02*
X12708153Y-6826347D01*
X12708153Y-6786347D02*
X12668153Y-6826347D01*
X12682653Y-10200847D02*
X12722653Y-10240847D01*
X12722653Y-10200847D02*
X12682653Y-10240847D01*
X12684913Y-5103106D02*
X12724913Y-5143106D01*
X12724913Y-5103106D02*
X12684913Y-5143106D01*
X12684913Y-8503106D02*
X12724913Y-8543106D01*
X12724913Y-8503106D02*
X12684913Y-8543106D01*
X12792714Y-13519786D02*
X12832714Y-13559786D01*
X12832714Y-13519786D02*
X12792714Y-13559786D01*
X12930037Y-12538783D02*
X12970037Y-12578783D01*
X12970037Y-12538783D02*
X12930037Y-12578783D01*
X12997500Y-8108000D02*
X13037500Y-8148000D01*
X13037500Y-8108000D02*
X12997500Y-8148000D01*
X12997500Y-8425500D02*
X13037500Y-8465500D01*
X13037500Y-8425500D02*
X12997500Y-8465500D01*
X13240136Y-12651650D02*
X13280136Y-12691650D01*
X13280136Y-12651650D02*
X13240136Y-12691650D01*
X13378500Y-12807000D02*
X13418500Y-12847000D01*
X13418500Y-12807000D02*
X13378500Y-12847000D01*
X13432620Y-8307880D02*
X13472620Y-8347880D01*
X13472620Y-8307880D02*
X13432620Y-8347880D01*
X13433064Y-9887431D02*
X13473064Y-9927431D01*
X13473064Y-9887431D02*
X13433064Y-9927431D01*
X13442000Y-9695500D02*
X13482000Y-9735500D01*
X13482000Y-9695500D02*
X13442000Y-9735500D01*
X13442000Y-12426000D02*
X13482000Y-12466000D01*
X13482000Y-12426000D02*
X13442000Y-12466000D01*
X13486520Y-11682980D02*
X13526520Y-11722980D01*
X13526520Y-11682980D02*
X13486520Y-11722980D01*
X13506520Y-6582980D02*
X13546520Y-6622980D01*
X13546520Y-6582980D02*
X13506520Y-6622980D01*
X13569000Y-6711000D02*
X13609000Y-6751000D01*
X13609000Y-6711000D02*
X13569000Y-6751000D01*
X13569000Y-8425500D02*
X13609000Y-8465500D01*
X13609000Y-8425500D02*
X13569000Y-8465500D01*
X13632500Y-11918000D02*
X13672500Y-11958000D01*
X13672500Y-11918000D02*
X13632500Y-11958000D01*
X13985380Y-14295620D02*
X14025380Y-14335620D01*
X14025380Y-14295620D02*
X13985380Y-14335620D01*
X14077000Y-14140500D02*
X14117000Y-14180500D01*
X14117000Y-14140500D02*
X14077000Y-14180500D01*
X14133959Y-7148959D02*
X14173959Y-7188959D01*
X14173959Y-7148959D02*
X14133959Y-7188959D01*
X14154913Y-8707406D02*
X14194913Y-8747406D01*
X14194913Y-8707406D02*
X14154913Y-8747406D01*
X14154913Y-10503106D02*
X14194913Y-10543106D01*
X14194913Y-10503106D02*
X14154913Y-10543106D01*
X14169913Y-5403106D02*
X14209913Y-5443106D01*
X14209913Y-5403106D02*
X14169913Y-5443106D01*
X14204000Y-11854500D02*
X14244000Y-11894500D01*
X14244000Y-11854500D02*
X14204000Y-11894500D01*
X14267500Y-6711000D02*
X14307500Y-6751000D01*
X14307500Y-6711000D02*
X14267500Y-6751000D01*
X14267500Y-10076500D02*
X14307500Y-10116500D01*
X14307500Y-10076500D02*
X14267500Y-10116500D01*
X14267500Y-12299000D02*
X14307500Y-12339000D01*
X14307500Y-12299000D02*
X14267500Y-12339000D01*
X14382135Y-11676365D02*
X14422135Y-11716365D01*
X14422135Y-11676365D02*
X14382135Y-11716365D01*
X14386935Y-8306065D02*
X14426935Y-8346065D01*
X14426935Y-8306065D02*
X14386935Y-8346065D01*
X14390985Y-9889515D02*
X14430985Y-9929515D01*
X14430985Y-9889515D02*
X14390985Y-9929515D01*
X14394500Y-8489000D02*
X14434500Y-8529000D01*
X14434500Y-8489000D02*
X14394500Y-8529000D01*
X14394500Y-14902500D02*
X14434500Y-14942500D01*
X14434500Y-14902500D02*
X14394500Y-14942500D01*
X14399635Y-6578865D02*
X14439635Y-6618865D01*
X14439635Y-6578865D02*
X14399635Y-6618865D01*
X14458000Y-12299000D02*
X14498000Y-12339000D01*
X14498000Y-12299000D02*
X14458000Y-12339000D01*
X14480403Y-10498597D02*
X14520403Y-10538597D01*
X14520403Y-10498597D02*
X14480403Y-10538597D01*
X14484913Y-7128006D02*
X14524913Y-7168006D01*
X14524913Y-7128006D02*
X14484913Y-7168006D01*
X14484913Y-8707406D02*
X14524913Y-8747406D01*
X14524913Y-8707406D02*
X14484913Y-8747406D01*
X14500750Y-5401440D02*
X14540750Y-5441440D01*
X14540750Y-5401440D02*
X14500750Y-5441440D01*
X14712000Y-8870000D02*
X14752000Y-8910000D01*
X14752000Y-8870000D02*
X14712000Y-8910000D01*
X14712000Y-10711500D02*
X14752000Y-10751500D01*
X14752000Y-10711500D02*
X14712000Y-10751500D01*
X14757473Y-14793527D02*
X14797473Y-14833527D01*
X14797473Y-14793527D02*
X14757473Y-14833527D01*
X14775500Y-9060500D02*
X14815500Y-9100500D01*
X14815500Y-9060500D02*
X14775500Y-9100500D01*
X14775500Y-11410000D02*
X14815500Y-11450000D01*
X14815500Y-11410000D02*
X14775500Y-11450000D01*
X14839000Y-7219000D02*
X14879000Y-7259000D01*
X14879000Y-7219000D02*
X14839000Y-7259000D01*
X14839000Y-10711500D02*
X14879000Y-10751500D01*
X14879000Y-10711500D02*
X14839000Y-10751500D01*
X14839000Y-10965500D02*
X14879000Y-11005500D01*
X14879000Y-10965500D02*
X14839000Y-11005500D01*
X14902500Y-8044500D02*
X14942500Y-8084500D01*
X14942500Y-8044500D02*
X14902500Y-8084500D01*
X14902500Y-12997500D02*
X14942500Y-13037500D01*
X14942500Y-12997500D02*
X14902500Y-13037500D01*
X15029500Y-8362000D02*
X15069500Y-8402000D01*
X15069500Y-8362000D02*
X15029500Y-8402000D01*
X15029500Y-8806500D02*
X15069500Y-8846500D01*
X15069500Y-8806500D02*
X15029500Y-8846500D01*
X15029500Y-11346500D02*
X15069500Y-11386500D01*
X15069500Y-11346500D02*
X15029500Y-11386500D01*
X15029500Y-13188000D02*
X15069500Y-13228000D01*
X15069500Y-13188000D02*
X15029500Y-13228000D01*
X15087637Y-13002863D02*
X15127637Y-13042863D01*
X15127637Y-13002863D02*
X15087637Y-13042863D01*
X15093000Y-6965000D02*
X15133000Y-7005000D01*
X15133000Y-6965000D02*
X15093000Y-7005000D01*
X15093000Y-7854000D02*
X15133000Y-7894000D01*
X15133000Y-7854000D02*
X15093000Y-7894000D01*
X15141095Y-8592445D02*
X15181095Y-8632445D01*
X15181095Y-8592445D02*
X15141095Y-8632445D01*
X15156500Y-6774500D02*
X15196500Y-6814500D01*
X15196500Y-6774500D02*
X15156500Y-6814500D01*
X15156500Y-12743500D02*
X15196500Y-12783500D01*
X15196500Y-12743500D02*
X15156500Y-12783500D01*
X15250353Y-13840451D02*
X15290353Y-13880451D01*
X15290353Y-13840451D02*
X15250353Y-13880451D01*
X15287184Y-7913816D02*
X15327184Y-7953816D01*
X15327184Y-7913816D02*
X15287184Y-7953816D01*
X15335520Y-9770480D02*
X15375520Y-9810480D01*
X15375520Y-9770480D02*
X15335520Y-9810480D01*
X15347000Y-10584500D02*
X15387000Y-10624500D01*
X15387000Y-10584500D02*
X15347000Y-10624500D01*
X15347000Y-10965500D02*
X15387000Y-11005500D01*
X15387000Y-10965500D02*
X15347000Y-11005500D01*
X15392473Y-15428527D02*
X15432473Y-15468527D01*
X15432473Y-15428527D02*
X15392473Y-15468527D01*
X15410500Y-8235000D02*
X15450500Y-8275000D01*
X15450500Y-8235000D02*
X15410500Y-8275000D01*
X15474000Y-11092500D02*
X15514000Y-11132500D01*
X15514000Y-11092500D02*
X15474000Y-11132500D01*
X15474000Y-15283500D02*
X15514000Y-15323500D01*
X15514000Y-15283500D02*
X15474000Y-15323500D01*
X15503148Y-14052571D02*
X15543148Y-14092571D01*
X15543148Y-14052571D02*
X15503148Y-14092571D01*
X15537500Y-7282500D02*
X15577500Y-7322500D01*
X15577500Y-7282500D02*
X15537500Y-7322500D01*
X15537500Y-10394000D02*
X15577500Y-10434000D01*
X15577500Y-10394000D02*
X15537500Y-10434000D01*
X15537500Y-13632500D02*
X15577500Y-13672500D01*
X15577500Y-13632500D02*
X15537500Y-13672500D01*
X15664500Y-10203500D02*
X15704500Y-10243500D01*
X15704500Y-10203500D02*
X15664500Y-10243500D01*
X15791500Y-16045500D02*
X15831500Y-16085500D01*
X15831500Y-16045500D02*
X15791500Y-16085500D01*
X15859730Y-13500770D02*
X15899730Y-13540770D01*
X15899730Y-13500770D02*
X15859730Y-13540770D01*
X15918500Y-8570605D02*
X15958500Y-8610605D01*
X15958500Y-8570605D02*
X15918500Y-8610605D01*
X15982000Y-6901500D02*
X16022000Y-6941500D01*
X16022000Y-6901500D02*
X15982000Y-6941500D01*
X16045500Y-8235000D02*
X16085500Y-8275000D01*
X16085500Y-8235000D02*
X16045500Y-8275000D01*
X16045500Y-9949500D02*
X16085500Y-9989500D01*
X16085500Y-9949500D02*
X16045500Y-9989500D01*
X16109000Y-15982000D02*
X16149000Y-16022000D01*
X16149000Y-15982000D02*
X16109000Y-16022000D01*
X16172500Y-8044500D02*
X16212500Y-8084500D01*
X16212500Y-8044500D02*
X16172500Y-8084500D01*
X16172500Y-9759000D02*
X16212500Y-9799000D01*
X16212500Y-9759000D02*
X16172500Y-9799000D01*
X16285750Y-8588940D02*
X16325750Y-8628940D01*
X16325750Y-8588940D02*
X16285750Y-8628940D01*
X16312060Y-6888940D02*
X16352060Y-6928940D01*
X16352060Y-6888940D02*
X16312060Y-6928940D01*
X16328708Y-12523792D02*
X16368708Y-12563792D01*
X16368708Y-12523792D02*
X16328708Y-12563792D01*
X16368793Y-14307668D02*
X16408793Y-14347668D01*
X16408793Y-14307668D02*
X16368793Y-14347668D01*
X16482990Y-5956010D02*
X16522990Y-5996010D01*
X16522990Y-5956010D02*
X16482990Y-5996010D01*
X16490000Y-14140500D02*
X16530000Y-14180500D01*
X16530000Y-14140500D02*
X16490000Y-14180500D01*
X16505240Y-6143260D02*
X16545240Y-6183260D01*
X16545240Y-6143260D02*
X16505240Y-6183260D01*
X16553500Y-6838000D02*
X16593500Y-6878000D01*
X16593500Y-6838000D02*
X16553500Y-6878000D01*
X16553500Y-7155500D02*
X16593500Y-7195500D01*
X16593500Y-7155500D02*
X16553500Y-7195500D01*
X16617000Y-12743500D02*
X16657000Y-12783500D01*
X16657000Y-12743500D02*
X16617000Y-12783500D01*
X16629233Y-14997469D02*
X16669233Y-15037469D01*
X16669233Y-14997469D02*
X16629233Y-15037469D01*
X16744000Y-5758500D02*
X16784000Y-5798500D01*
X16784000Y-5758500D02*
X16744000Y-5798500D01*
X16744000Y-6266500D02*
X16784000Y-6306500D01*
X16784000Y-6266500D02*
X16744000Y-6306500D01*
X16744000Y-8933500D02*
X16784000Y-8973500D01*
X16784000Y-8933500D02*
X16744000Y-8973500D01*
X16882028Y-15209589D02*
X16922028Y-15249589D01*
X16922028Y-15209589D02*
X16882028Y-15249589D01*
X16934500Y-14775500D02*
X16974500Y-14815500D01*
X16974500Y-14775500D02*
X16934500Y-14815500D01*
X17149958Y-14742204D02*
X17189958Y-14782204D01*
X17189958Y-14742204D02*
X17149958Y-14782204D01*
X17709639Y-13682861D02*
X17749639Y-13722861D01*
X17749639Y-13682861D02*
X17709639Y-13722861D01*
X17974767Y-13907313D02*
X18014767Y-13947313D01*
X18014767Y-13907313D02*
X17974767Y-13947313D01*
X18044360Y-7058860D02*
X18084360Y-7098860D01*
X18084360Y-7058860D02*
X18044360Y-7098860D01*
X18204500Y-6520500D02*
X18244500Y-6560500D01*
X18244500Y-6520500D02*
X18204500Y-6560500D01*
X18204500Y-8489000D02*
X18244500Y-8529000D01*
X18244500Y-8489000D02*
X18204500Y-8529000D01*
X18331500Y-5758500D02*
X18371500Y-5798500D01*
X18371500Y-5758500D02*
X18331500Y-5798500D01*
D13*
X15118500Y-6460750D02*
G75*
G03*
X15118500Y-6460750I-45000J0D01*
G01*
D11*
X15038500Y-6440750D02*
X15038500Y-6480750D01*
X15108500Y-6440750D02*
X15108500Y-6480750D01*
X15038500Y-6480750D02*
G75*
G03*
X15108500Y-6480750I35000J0D01*
G01*
X15108500Y-6440750D02*
G75*
G03*
X15038500Y-6440750I-35000J0D01*
G01*
D13*
X15578500Y-5650750D02*
G75*
G03*
X15578500Y-5650750I-45000J0D01*
G01*
D11*
X15498500Y-5630750D02*
X15498500Y-5670750D01*
X15568500Y-5630750D02*
X15568500Y-5670750D01*
X15498500Y-5670750D02*
G75*
G03*
X15568500Y-5670750I35000J0D01*
G01*
X15568500Y-5630750D02*
G75*
G03*
X15498500Y-5630750I-35000J0D01*
G01*
D13*
X15578500Y-5950750D02*
G75*
G03*
X15578500Y-5950750I-45000J0D01*
G01*
D11*
X15498500Y-5930750D02*
X15498500Y-5970750D01*
X15568500Y-5930750D02*
X15568500Y-5970750D01*
X15498500Y-5970750D02*
G75*
G03*
X15568500Y-5970750I35000J0D01*
G01*
X15568500Y-5930750D02*
G75*
G03*
X15498500Y-5930750I-35000J0D01*
G01*
D13*
X15578500Y-6350750D02*
G75*
G03*
X15578500Y-6350750I-45000J0D01*
G01*
D11*
X15498500Y-6330750D02*
X15498500Y-6370750D01*
X15568500Y-6330750D02*
X15568500Y-6370750D01*
X15498500Y-6370750D02*
G75*
G03*
X15568500Y-6370750I35000J0D01*
G01*
X15568500Y-6330750D02*
G75*
G03*
X15498500Y-6330750I-35000J0D01*
G01*
D13*
X15579291Y-5651182D02*
G75*
G03*
X15579291Y-5651182I-45000J0D01*
G01*
D11*
X15569291Y-5671182D02*
X15569291Y-5631182D01*
X15499291Y-5671182D02*
X15499291Y-5631182D01*
X15569291Y-5631182D02*
G75*
G03*
X15499291Y-5631182I-35000J0D01*
G01*
X15499291Y-5671182D02*
G75*
G03*
X15569291Y-5671182I35000J0D01*
G01*
D13*
X15579291Y-5951182D02*
G75*
G03*
X15579291Y-5951182I-45000J0D01*
G01*
D11*
X15569291Y-5971182D02*
X15569291Y-5931182D01*
X15499291Y-5971182D02*
X15499291Y-5931182D01*
X15569291Y-5931182D02*
G75*
G03*
X15499291Y-5931182I-35000J0D01*
G01*
X15499291Y-5971182D02*
G75*
G03*
X15569291Y-5971182I35000J0D01*
G01*
D13*
X15579291Y-6351182D02*
G75*
G03*
X15579291Y-6351182I-45000J0D01*
G01*
D11*
X15569291Y-6371182D02*
X15569291Y-6331182D01*
X15499291Y-6371182D02*
X15499291Y-6331182D01*
X15569291Y-6331182D02*
G75*
G03*
X15499291Y-6331182I-35000J0D01*
G01*
X15499291Y-6371182D02*
G75*
G03*
X15569291Y-6371182I35000J0D01*
G01*
D13*
X16039291Y-6461182D02*
G75*
G03*
X16039291Y-6461182I-45000J0D01*
G01*
D11*
X16029291Y-6481182D02*
X16029291Y-6441182D01*
X15959291Y-6481182D02*
X15959291Y-6441182D01*
X16029291Y-6441182D02*
G75*
G03*
X15959291Y-6441182I-35000J0D01*
G01*
X15959291Y-6481182D02*
G75*
G03*
X16029291Y-6481182I35000J0D01*
G01*
D14*
X17082500Y-5993250D02*
X17082500Y-6093250D01*
X17032500Y-6043250D02*
X17132500Y-6043250D01*
X17082500Y-6247250D02*
X17082500Y-6347250D01*
X17032500Y-6297250D02*
X17132500Y-6297250D01*
X17082500Y-6501250D02*
X17082500Y-6601250D01*
X17032500Y-6551250D02*
X17132500Y-6551250D01*
X17082500Y-6755250D02*
X17082500Y-6855250D01*
X17032500Y-6805250D02*
X17132500Y-6805250D01*
X17082500Y-7009250D02*
X17082500Y-7109250D01*
X17032500Y-7059250D02*
X17132500Y-7059250D01*
X17082500Y-7263250D02*
X17082500Y-7363250D01*
X17032500Y-7313250D02*
X17132500Y-7313250D01*
X17082500Y-7517250D02*
X17082500Y-7617250D01*
X17032500Y-7567250D02*
X17132500Y-7567250D01*
X17082500Y-7771250D02*
X17082500Y-7871250D01*
X17032500Y-7821250D02*
X17132500Y-7821250D01*
X17082500Y-8025250D02*
X17082500Y-8125250D01*
X17032500Y-8075250D02*
X17132500Y-8075250D01*
X17082500Y-8279250D02*
X17082500Y-8379250D01*
X17032500Y-8329250D02*
X17132500Y-8329250D01*
X17082500Y-8533250D02*
X17082500Y-8633250D01*
X17032500Y-8583250D02*
X17132500Y-8583250D01*
X17082500Y-8787250D02*
X17082500Y-8887250D01*
X17032500Y-8837250D02*
X17132500Y-8837250D01*
X18606500Y-5993250D02*
X18606500Y-6093250D01*
X18556500Y-6043250D02*
X18656500Y-6043250D01*
X18606500Y-6247250D02*
X18606500Y-6347250D01*
X18556500Y-6297250D02*
X18656500Y-6297250D01*
X18606500Y-6501250D02*
X18606500Y-6601250D01*
X18556500Y-6551250D02*
X18656500Y-6551250D01*
X18606500Y-6755250D02*
X18606500Y-6855250D01*
X18556500Y-6805250D02*
X18656500Y-6805250D01*
X18606500Y-7009250D02*
X18606500Y-7109250D01*
X18556500Y-7059250D02*
X18656500Y-7059250D01*
X18606500Y-7263250D02*
X18606500Y-7363250D01*
X18556500Y-7313250D02*
X18656500Y-7313250D01*
X18606500Y-7517250D02*
X18606500Y-7617250D01*
X18556500Y-7567250D02*
X18656500Y-7567250D01*
X18606500Y-7771250D02*
X18606500Y-7871250D01*
X18556500Y-7821250D02*
X18656500Y-7821250D01*
X18606500Y-8025250D02*
X18606500Y-8125250D01*
X18556500Y-8075250D02*
X18656500Y-8075250D01*
X18606500Y-8279250D02*
X18606500Y-8379250D01*
X18556500Y-8329250D02*
X18656500Y-8329250D01*
X18606500Y-8533250D02*
X18606500Y-8633250D01*
X18556500Y-8583250D02*
X18656500Y-8583250D01*
X18606500Y-8787250D02*
X18606500Y-8887250D01*
X18556500Y-8837250D02*
X18656500Y-8837250D01*
D15*
X17453251Y-11020371D02*
X17453251Y-10942589D01*
X17375469Y-10942589D01*
X17375469Y-11020371D01*
X17453251Y-11020371D01*
X17453251Y-11020371D02*
X17453251Y-10942589D01*
X17375469Y-10942589D01*
X17375469Y-11020371D01*
X17453251Y-11020371D01*
X17453251Y-11470371D02*
X17453251Y-11392589D01*
X17375469Y-11392589D01*
X17375469Y-11470371D01*
X17453251Y-11470371D01*
X17453251Y-11470371D02*
X17453251Y-11392589D01*
X17375469Y-11392589D01*
X17375469Y-11470371D01*
X17453251Y-11470371D01*
X18103251Y-11020371D02*
X18103251Y-10942589D01*
X18025469Y-10942589D01*
X18025469Y-11020371D01*
X18103251Y-11020371D01*
X18103251Y-11020371D02*
X18103251Y-10942589D01*
X18025469Y-10942589D01*
X18025469Y-11020371D01*
X18103251Y-11020371D01*
X18103251Y-11470371D02*
X18103251Y-11392589D01*
X18025469Y-11392589D01*
X18025469Y-11470371D01*
X18103251Y-11470371D01*
X18103251Y-11470371D02*
X18103251Y-11392589D01*
X18025469Y-11392589D01*
X18025469Y-11470371D01*
X18103251Y-11470371D01*
D16*
X4241000Y-5736440D02*
X4301000Y-5676440D01*
X4241000Y-5616440D01*
X4181000Y-5676440D01*
X4241000Y-5736440D01*
X4241000Y-7436440D02*
X4301000Y-7376440D01*
X4241000Y-7316440D01*
X4181000Y-7376440D01*
X4241000Y-7436440D01*
X4241000Y-9136440D02*
X4301000Y-9076440D01*
X4241000Y-9016440D01*
X4181000Y-9076440D01*
X4241000Y-9136440D01*
X4241000Y-10836440D02*
X4301000Y-10776440D01*
X4241000Y-10716440D01*
X4181000Y-10776440D01*
X4241000Y-10836440D01*
X4459750Y-12536440D02*
X4519750Y-12476440D01*
X4459750Y-12416440D01*
X4399750Y-12476440D01*
X4459750Y-12536440D01*
X4741000Y-5526440D02*
X4801000Y-5466440D01*
X4741000Y-5406440D01*
X4681000Y-5466440D01*
X4741000Y-5526440D01*
X4741000Y-7226440D02*
X4801000Y-7166440D01*
X4741000Y-7106440D01*
X4681000Y-7166440D01*
X4741000Y-7226440D01*
X4741000Y-8926440D02*
X4801000Y-8866440D01*
X4741000Y-8806440D01*
X4681000Y-8866440D01*
X4741000Y-8926440D01*
X4741000Y-10626440D02*
X4801000Y-10566440D01*
X4741000Y-10506440D01*
X4681000Y-10566440D01*
X4741000Y-10626440D01*
X4959750Y-12326440D02*
X5019750Y-12266440D01*
X4959750Y-12206440D01*
X4899750Y-12266440D01*
X4959750Y-12326440D01*
X5241000Y-5736440D02*
X5301000Y-5676440D01*
X5241000Y-5616440D01*
X5181000Y-5676440D01*
X5241000Y-5736440D01*
X5241000Y-7436440D02*
X5301000Y-7376440D01*
X5241000Y-7316440D01*
X5181000Y-7376440D01*
X5241000Y-7436440D01*
X5241000Y-9136440D02*
X5301000Y-9076440D01*
X5241000Y-9016440D01*
X5181000Y-9076440D01*
X5241000Y-9136440D01*
X5241000Y-10836440D02*
X5301000Y-10776440D01*
X5241000Y-10716440D01*
X5181000Y-10776440D01*
X5241000Y-10836440D01*
X5459750Y-12536440D02*
X5519750Y-12476440D01*
X5459750Y-12416440D01*
X5399750Y-12476440D01*
X5459750Y-12536440D01*
X6259750Y-5736440D02*
X6319750Y-5676440D01*
X6259750Y-5616440D01*
X6199750Y-5676440D01*
X6259750Y-5736440D01*
X6259750Y-7436440D02*
X6319750Y-7376440D01*
X6259750Y-7316440D01*
X6199750Y-7376440D01*
X6259750Y-7436440D01*
X6259750Y-9136440D02*
X6319750Y-9076440D01*
X6259750Y-9016440D01*
X6199750Y-9076440D01*
X6259750Y-9136440D01*
X6259750Y-10836440D02*
X6319750Y-10776440D01*
X6259750Y-10716440D01*
X6199750Y-10776440D01*
X6259750Y-10836440D01*
X6259750Y-12536440D02*
X6319750Y-12476440D01*
X6259750Y-12416440D01*
X6199750Y-12476440D01*
X6259750Y-12536440D01*
X6759750Y-5526440D02*
X6819750Y-5466440D01*
X6759750Y-5406440D01*
X6699750Y-5466440D01*
X6759750Y-5526440D01*
X6759750Y-7226440D02*
X6819750Y-7166440D01*
X6759750Y-7106440D01*
X6699750Y-7166440D01*
X6759750Y-7226440D01*
X6759750Y-8926440D02*
X6819750Y-8866440D01*
X6759750Y-8806440D01*
X6699750Y-8866440D01*
X6759750Y-8926440D01*
X6759750Y-10626440D02*
X6819750Y-10566440D01*
X6759750Y-10506440D01*
X6699750Y-10566440D01*
X6759750Y-10626440D01*
X6759750Y-12326440D02*
X6819750Y-12266440D01*
X6759750Y-12206440D01*
X6699750Y-12266440D01*
X6759750Y-12326440D01*
X7259750Y-5736440D02*
X7319750Y-5676440D01*
X7259750Y-5616440D01*
X7199750Y-5676440D01*
X7259750Y-5736440D01*
X7259750Y-7436440D02*
X7319750Y-7376440D01*
X7259750Y-7316440D01*
X7199750Y-7376440D01*
X7259750Y-7436440D01*
X7259750Y-9136440D02*
X7319750Y-9076440D01*
X7259750Y-9016440D01*
X7199750Y-9076440D01*
X7259750Y-9136440D01*
X7259750Y-10836440D02*
X7319750Y-10776440D01*
X7259750Y-10716440D01*
X7199750Y-10776440D01*
X7259750Y-10836440D01*
X7259750Y-12536440D02*
X7319750Y-12476440D01*
X7259750Y-12416440D01*
X7199750Y-12476440D01*
X7259750Y-12536440D01*
X8059750Y-5436440D02*
X8119750Y-5376440D01*
X8059750Y-5316440D01*
X7999750Y-5376440D01*
X8059750Y-5436440D01*
X8059750Y-7136440D02*
X8119750Y-7076440D01*
X8059750Y-7016440D01*
X7999750Y-7076440D01*
X8059750Y-7136440D01*
X8059750Y-8836440D02*
X8119750Y-8776440D01*
X8059750Y-8716440D01*
X7999750Y-8776440D01*
X8059750Y-8836440D01*
X8059750Y-10536440D02*
X8119750Y-10476440D01*
X8059750Y-10416440D01*
X7999750Y-10476440D01*
X8059750Y-10536440D01*
X8059750Y-12236440D02*
X8119750Y-12176440D01*
X8059750Y-12116440D01*
X7999750Y-12176440D01*
X8059750Y-12236440D01*
X8559750Y-5226440D02*
X8619750Y-5166440D01*
X8559750Y-5106440D01*
X8499750Y-5166440D01*
X8559750Y-5226440D01*
X8559750Y-6926440D02*
X8619750Y-6866440D01*
X8559750Y-6806440D01*
X8499750Y-6866440D01*
X8559750Y-6926440D01*
X8559750Y-8626440D02*
X8619750Y-8566440D01*
X8559750Y-8506440D01*
X8499750Y-8566440D01*
X8559750Y-8626440D01*
X8559750Y-10326440D02*
X8619750Y-10266440D01*
X8559750Y-10206440D01*
X8499750Y-10266440D01*
X8559750Y-10326440D01*
X8559750Y-12026440D02*
X8619750Y-11966440D01*
X8559750Y-11906440D01*
X8499750Y-11966440D01*
X8559750Y-12026440D01*
X9059750Y-5436440D02*
X9119750Y-5376440D01*
X9059750Y-5316440D01*
X8999750Y-5376440D01*
X9059750Y-5436440D01*
X9059750Y-7136440D02*
X9119750Y-7076440D01*
X9059750Y-7016440D01*
X8999750Y-7076440D01*
X9059750Y-7136440D01*
X9059750Y-8836440D02*
X9119750Y-8776440D01*
X9059750Y-8716440D01*
X8999750Y-8776440D01*
X9059750Y-8836440D01*
X9059750Y-10536440D02*
X9119750Y-10476440D01*
X9059750Y-10416440D01*
X8999750Y-10476440D01*
X9059750Y-10536440D01*
X9059750Y-12236440D02*
X9119750Y-12176440D01*
X9059750Y-12116440D01*
X8999750Y-12176440D01*
X9059750Y-12236440D01*
X9859750Y-5136440D02*
X9919750Y-5076440D01*
X9859750Y-5016440D01*
X9799750Y-5076440D01*
X9859750Y-5136440D01*
X9859750Y-6836440D02*
X9919750Y-6776440D01*
X9859750Y-6716440D01*
X9799750Y-6776440D01*
X9859750Y-6836440D01*
X9859750Y-8536440D02*
X9919750Y-8476440D01*
X9859750Y-8416440D01*
X9799750Y-8476440D01*
X9859750Y-8536440D01*
X9859750Y-10236440D02*
X9919750Y-10176440D01*
X9859750Y-10116440D01*
X9799750Y-10176440D01*
X9859750Y-10236440D01*
X9859750Y-11936440D02*
X9919750Y-11876440D01*
X9859750Y-11816440D01*
X9799750Y-11876440D01*
X9859750Y-11936440D01*
X10359750Y-4926440D02*
X10419750Y-4866440D01*
X10359750Y-4806440D01*
X10299750Y-4866440D01*
X10359750Y-4926440D01*
X10359750Y-6626440D02*
X10419750Y-6566440D01*
X10359750Y-6506440D01*
X10299750Y-6566440D01*
X10359750Y-6626440D01*
X10359750Y-8326440D02*
X10419750Y-8266440D01*
X10359750Y-8206440D01*
X10299750Y-8266440D01*
X10359750Y-8326440D01*
X10359750Y-10026440D02*
X10419750Y-9966440D01*
X10359750Y-9906440D01*
X10299750Y-9966440D01*
X10359750Y-10026440D01*
X10359750Y-11726440D02*
X10419750Y-11666440D01*
X10359750Y-11606440D01*
X10299750Y-11666440D01*
X10359750Y-11726440D01*
X10859750Y-5136440D02*
X10919750Y-5076440D01*
X10859750Y-5016440D01*
X10799750Y-5076440D01*
X10859750Y-5136440D01*
X10859750Y-6836440D02*
X10919750Y-6776440D01*
X10859750Y-6716440D01*
X10799750Y-6776440D01*
X10859750Y-6836440D01*
X10859750Y-8536440D02*
X10919750Y-8476440D01*
X10859750Y-8416440D01*
X10799750Y-8476440D01*
X10859750Y-8536440D01*
X10859750Y-10236440D02*
X10919750Y-10176440D01*
X10859750Y-10116440D01*
X10799750Y-10176440D01*
X10859750Y-10236440D01*
X10859750Y-11936440D02*
X10919750Y-11876440D01*
X10859750Y-11816440D01*
X10799750Y-11876440D01*
X10859750Y-11936440D01*
X11659750Y-5436440D02*
X11719750Y-5376440D01*
X11659750Y-5316440D01*
X11599750Y-5376440D01*
X11659750Y-5436440D01*
X11659750Y-7136440D02*
X11719750Y-7076440D01*
X11659750Y-7016440D01*
X11599750Y-7076440D01*
X11659750Y-7136440D01*
X11659750Y-8836440D02*
X11719750Y-8776440D01*
X11659750Y-8716440D01*
X11599750Y-8776440D01*
X11659750Y-8836440D01*
X11659750Y-10536440D02*
X11719750Y-10476440D01*
X11659750Y-10416440D01*
X11599750Y-10476440D01*
X11659750Y-10536440D01*
X12159750Y-5226440D02*
X12219750Y-5166440D01*
X12159750Y-5106440D01*
X12099750Y-5166440D01*
X12159750Y-5226440D01*
X12159750Y-6926440D02*
X12219750Y-6866440D01*
X12159750Y-6806440D01*
X12099750Y-6866440D01*
X12159750Y-6926440D01*
X12159750Y-8626440D02*
X12219750Y-8566440D01*
X12159750Y-8506440D01*
X12099750Y-8566440D01*
X12159750Y-8626440D01*
X12159750Y-10326440D02*
X12219750Y-10266440D01*
X12159750Y-10206440D01*
X12099750Y-10266440D01*
X12159750Y-10326440D01*
X12190840Y-12611852D02*
X12250840Y-12551852D01*
X12190840Y-12491852D01*
X12130840Y-12551852D01*
X12190840Y-12611852D01*
X12659750Y-5436440D02*
X12719750Y-5376440D01*
X12659750Y-5316440D01*
X12599750Y-5376440D01*
X12659750Y-5436440D01*
X12659750Y-7136440D02*
X12719750Y-7076440D01*
X12659750Y-7016440D01*
X12599750Y-7076440D01*
X12659750Y-7136440D01*
X12659750Y-8836440D02*
X12719750Y-8776440D01*
X12659750Y-8716440D01*
X12599750Y-8776440D01*
X12659750Y-8836440D01*
X12659750Y-10536440D02*
X12719750Y-10476440D01*
X12659750Y-10416440D01*
X12599750Y-10476440D01*
X12659750Y-10536440D01*
X12732510Y-12585527D02*
X12792510Y-12525527D01*
X12732510Y-12465527D01*
X12672510Y-12525527D01*
X12732510Y-12585527D01*
X13130532Y-12953872D02*
X13190532Y-12893872D01*
X13130532Y-12833872D01*
X13070532Y-12893872D01*
X13130532Y-12953872D01*
X13459750Y-5736440D02*
X13519750Y-5676440D01*
X13459750Y-5616440D01*
X13399750Y-5676440D01*
X13459750Y-5736440D01*
X13459750Y-7436440D02*
X13519750Y-7376440D01*
X13459750Y-7316440D01*
X13399750Y-7376440D01*
X13459750Y-7436440D01*
X13459750Y-9136440D02*
X13519750Y-9076440D01*
X13459750Y-9016440D01*
X13399750Y-9076440D01*
X13459750Y-9136440D01*
X13459750Y-10836440D02*
X13519750Y-10776440D01*
X13459750Y-10716440D01*
X13399750Y-10776440D01*
X13459750Y-10836440D01*
X13959750Y-5526440D02*
X14019750Y-5466440D01*
X13959750Y-5406440D01*
X13899750Y-5466440D01*
X13959750Y-5526440D01*
X13959750Y-7226440D02*
X14019750Y-7166440D01*
X13959750Y-7106440D01*
X13899750Y-7166440D01*
X13959750Y-7226440D01*
X13959750Y-8926440D02*
X14019750Y-8866440D01*
X13959750Y-8806440D01*
X13899750Y-8866440D01*
X13959750Y-8926440D01*
X13959750Y-10626440D02*
X14019750Y-10566440D01*
X13959750Y-10506440D01*
X13899750Y-10566440D01*
X13959750Y-10626440D01*
X14459750Y-5736440D02*
X14519750Y-5676440D01*
X14459750Y-5616440D01*
X14399750Y-5676440D01*
X14459750Y-5736440D01*
X14459750Y-7436440D02*
X14519750Y-7376440D01*
X14459750Y-7316440D01*
X14399750Y-7376440D01*
X14459750Y-7436440D01*
X14459750Y-9136440D02*
X14519750Y-9076440D01*
X14459750Y-9016440D01*
X14399750Y-9076440D01*
X14459750Y-9136440D01*
X14459750Y-10836440D02*
X14519750Y-10776440D01*
X14459750Y-10716440D01*
X14399750Y-10776440D01*
X14459750Y-10836440D01*
X14558792Y-13653890D02*
X14618792Y-13593890D01*
X14558792Y-13533890D01*
X14498792Y-13593890D01*
X14558792Y-13653890D01*
X15076799Y-13814415D02*
X15136799Y-13754415D01*
X15076799Y-13694415D01*
X15016799Y-13754415D01*
X15076799Y-13814415D01*
X15259750Y-7223940D02*
X15319750Y-7163940D01*
X15259750Y-7103940D01*
X15199750Y-7163940D01*
X15259750Y-7223940D01*
X15259750Y-8923940D02*
X15319750Y-8863940D01*
X15259750Y-8803940D01*
X15199750Y-8863940D01*
X15259750Y-8923940D01*
X15324836Y-14296678D02*
X15384836Y-14236678D01*
X15324836Y-14176678D01*
X15264836Y-14236678D01*
X15324836Y-14296678D01*
X15651531Y-12351614D02*
X15711531Y-12291614D01*
X15651531Y-12231614D01*
X15591531Y-12291614D01*
X15651531Y-12351614D01*
X15759750Y-7013940D02*
X15819750Y-6953940D01*
X15759750Y-6893940D01*
X15699750Y-6953940D01*
X15759750Y-7013940D01*
X15759750Y-8713940D02*
X15819750Y-8653940D01*
X15759750Y-8593940D01*
X15699750Y-8653940D01*
X15759750Y-8713940D01*
X15937672Y-14810908D02*
X15997672Y-14750908D01*
X15937672Y-14690908D01*
X15877672Y-14750908D01*
X15937672Y-14810908D01*
X16169538Y-12512139D02*
X16229538Y-12452139D01*
X16169538Y-12392139D01*
X16109538Y-12452139D01*
X16169538Y-12512139D01*
X16259750Y-7223940D02*
X16319750Y-7163940D01*
X16259750Y-7103940D01*
X16199750Y-7163940D01*
X16259750Y-7223940D01*
X16259750Y-8923940D02*
X16319750Y-8863940D01*
X16259750Y-8803940D01*
X16199750Y-8863940D01*
X16259750Y-8923940D01*
X16417575Y-12994402D02*
X16477575Y-12934402D01*
X16417575Y-12874402D01*
X16357575Y-12934402D01*
X16417575Y-12994402D01*
X16455679Y-14971432D02*
X16515679Y-14911432D01*
X16455679Y-14851432D01*
X16395679Y-14911432D01*
X16455679Y-14971432D01*
X16703716Y-15453695D02*
X16763716Y-15393695D01*
X16703716Y-15333695D01*
X16643716Y-15393695D01*
X16703716Y-15453695D01*
X17030411Y-13508632D02*
X17090411Y-13448632D01*
X17030411Y-13388632D01*
X16970411Y-13448632D01*
X17030411Y-13508632D01*
X17548418Y-13669157D02*
X17608418Y-13609157D01*
X17548418Y-13549157D01*
X17488418Y-13609157D01*
X17548418Y-13669157D01*
X17796455Y-14151420D02*
X17856455Y-14091420D01*
X17796455Y-14031420D01*
X17736455Y-14091420D01*
X17796455Y-14151420D01*
D11*
X3872119Y-16952476D02*
X3872119Y-16752476D01*
X3919738Y-16752476D01*
X3948309Y-16762000D01*
X3967357Y-16781048D01*
X3976881Y-16800095D01*
X3986405Y-16838190D01*
X3986405Y-16866762D01*
X3976881Y-16904857D01*
X3967357Y-16923905D01*
X3948309Y-16942952D01*
X3919738Y-16952476D01*
X3872119Y-16952476D01*
X4072119Y-16952476D02*
X4072119Y-16819143D01*
X4072119Y-16857238D02*
X4081643Y-16838190D01*
X4091167Y-16828667D01*
X4110214Y-16819143D01*
X4129262Y-16819143D01*
X4195929Y-16952476D02*
X4195929Y-16819143D01*
X4195929Y-16752476D02*
X4186405Y-16762000D01*
X4195929Y-16771524D01*
X4205452Y-16762000D01*
X4195929Y-16752476D01*
X4195929Y-16771524D01*
X4319738Y-16952476D02*
X4300690Y-16942952D01*
X4291167Y-16923905D01*
X4291167Y-16752476D01*
X4424500Y-16952476D02*
X4405452Y-16942952D01*
X4395929Y-16923905D01*
X4395929Y-16752476D01*
X4653071Y-16952476D02*
X4653071Y-16752476D01*
X4719738Y-16895333D01*
X4786405Y-16752476D01*
X4786405Y-16952476D01*
X4967357Y-16952476D02*
X4967357Y-16847714D01*
X4957833Y-16828667D01*
X4938786Y-16819143D01*
X4900690Y-16819143D01*
X4881643Y-16828667D01*
X4967357Y-16942952D02*
X4948310Y-16952476D01*
X4900690Y-16952476D01*
X4881643Y-16942952D01*
X4872119Y-16923905D01*
X4872119Y-16904857D01*
X4881643Y-16885810D01*
X4900690Y-16876286D01*
X4948310Y-16876286D01*
X4967357Y-16866762D01*
X5062595Y-16819143D02*
X5062595Y-17019143D01*
X5062595Y-16828667D02*
X5081643Y-16819143D01*
X5119738Y-16819143D01*
X5138786Y-16828667D01*
X5148310Y-16838190D01*
X5157833Y-16857238D01*
X5157833Y-16914381D01*
X5148310Y-16933429D01*
X5138786Y-16942952D01*
X5119738Y-16952476D01*
X5081643Y-16952476D01*
X5062595Y-16942952D01*
X5243548Y-16933429D02*
X5253071Y-16942952D01*
X5243548Y-16952476D01*
X5234024Y-16942952D01*
X5243548Y-16933429D01*
X5243548Y-16952476D01*
X5243548Y-16828667D02*
X5253071Y-16838190D01*
X5243548Y-16847714D01*
X5234024Y-16838190D01*
X5243548Y-16828667D01*
X5243548Y-16847714D01*
D12*
X3574500Y-17262000D02*
X3614500Y-17302000D01*
X3614500Y-17262000D02*
X3574500Y-17302000D01*
D11*
X3910214Y-17172476D02*
X3929262Y-17172476D01*
X3948309Y-17182000D01*
X3957833Y-17191524D01*
X3967357Y-17210571D01*
X3976881Y-17248667D01*
X3976881Y-17296286D01*
X3967357Y-17334381D01*
X3957833Y-17353429D01*
X3948309Y-17362952D01*
X3929262Y-17372476D01*
X3910214Y-17372476D01*
X3891167Y-17362952D01*
X3881643Y-17353429D01*
X3872119Y-17334381D01*
X3862595Y-17296286D01*
X3862595Y-17248667D01*
X3872119Y-17210571D01*
X3881643Y-17191524D01*
X3891167Y-17182000D01*
X3910214Y-17172476D01*
X4062595Y-17353429D02*
X4072119Y-17362952D01*
X4062595Y-17372476D01*
X4053071Y-17362952D01*
X4062595Y-17353429D01*
X4062595Y-17372476D01*
X4243548Y-17239143D02*
X4243548Y-17372476D01*
X4195929Y-17162952D02*
X4148309Y-17305810D01*
X4272119Y-17305810D01*
X4386405Y-17172476D02*
X4405452Y-17172476D01*
X4424500Y-17182000D01*
X4434024Y-17191524D01*
X4443548Y-17210571D01*
X4453071Y-17248667D01*
X4453071Y-17296286D01*
X4443548Y-17334381D01*
X4434024Y-17353429D01*
X4424500Y-17362952D01*
X4405452Y-17372476D01*
X4386405Y-17372476D01*
X4367357Y-17362952D01*
X4357833Y-17353429D01*
X4348310Y-17334381D01*
X4338786Y-17296286D01*
X4338786Y-17248667D01*
X4348310Y-17210571D01*
X4357833Y-17191524D01*
X4367357Y-17182000D01*
X4386405Y-17172476D01*
X4576881Y-17172476D02*
X4595929Y-17172476D01*
X4614976Y-17182000D01*
X4624500Y-17191524D01*
X4634024Y-17210571D01*
X4643548Y-17248667D01*
X4643548Y-17296286D01*
X4634024Y-17334381D01*
X4624500Y-17353429D01*
X4614976Y-17362952D01*
X4595929Y-17372476D01*
X4576881Y-17372476D01*
X4557833Y-17362952D01*
X4548310Y-17353429D01*
X4538786Y-17334381D01*
X4529262Y-17296286D01*
X4529262Y-17248667D01*
X4538786Y-17210571D01*
X4548310Y-17191524D01*
X4557833Y-17182000D01*
X4576881Y-17172476D01*
X4729262Y-17372476D02*
X4729262Y-17239143D01*
X4729262Y-17258190D02*
X4738786Y-17248667D01*
X4757833Y-17239143D01*
X4786405Y-17239143D01*
X4805452Y-17248667D01*
X4814976Y-17267714D01*
X4814976Y-17372476D01*
X4814976Y-17267714D02*
X4824500Y-17248667D01*
X4843548Y-17239143D01*
X4872119Y-17239143D01*
X4891167Y-17248667D01*
X4900690Y-17267714D01*
X4900690Y-17372476D01*
X4995929Y-17372476D02*
X4995929Y-17239143D01*
X4995929Y-17258190D02*
X5005452Y-17248667D01*
X5024500Y-17239143D01*
X5053071Y-17239143D01*
X5072119Y-17248667D01*
X5081643Y-17267714D01*
X5081643Y-17372476D01*
X5081643Y-17267714D02*
X5091167Y-17248667D01*
X5110214Y-17239143D01*
X5138786Y-17239143D01*
X5157833Y-17248667D01*
X5167357Y-17267714D01*
X5167357Y-17372476D01*
X5557833Y-17162952D02*
X5386405Y-17420095D01*
X5814976Y-17172476D02*
X5834024Y-17172476D01*
X5853071Y-17182000D01*
X5862595Y-17191524D01*
X5872119Y-17210571D01*
X5881643Y-17248667D01*
X5881643Y-17296286D01*
X5872119Y-17334381D01*
X5862595Y-17353429D01*
X5853071Y-17362952D01*
X5834024Y-17372476D01*
X5814976Y-17372476D01*
X5795928Y-17362952D01*
X5786405Y-17353429D01*
X5776881Y-17334381D01*
X5767357Y-17296286D01*
X5767357Y-17248667D01*
X5776881Y-17210571D01*
X5786405Y-17191524D01*
X5795928Y-17182000D01*
X5814976Y-17172476D01*
X5967357Y-17353429D02*
X5976881Y-17362952D01*
X5967357Y-17372476D01*
X5957833Y-17362952D01*
X5967357Y-17353429D01*
X5967357Y-17372476D01*
X6100690Y-17172476D02*
X6119738Y-17172476D01*
X6138786Y-17182000D01*
X6148309Y-17191524D01*
X6157833Y-17210571D01*
X6167357Y-17248667D01*
X6167357Y-17296286D01*
X6157833Y-17334381D01*
X6148309Y-17353429D01*
X6138786Y-17362952D01*
X6119738Y-17372476D01*
X6100690Y-17372476D01*
X6081643Y-17362952D01*
X6072119Y-17353429D01*
X6062595Y-17334381D01*
X6053071Y-17296286D01*
X6053071Y-17248667D01*
X6062595Y-17210571D01*
X6072119Y-17191524D01*
X6081643Y-17182000D01*
X6100690Y-17172476D01*
X6357833Y-17372476D02*
X6243548Y-17372476D01*
X6300690Y-17372476D02*
X6300690Y-17172476D01*
X6281643Y-17201048D01*
X6262595Y-17220095D01*
X6243548Y-17229619D01*
X6538786Y-17172476D02*
X6443548Y-17172476D01*
X6434024Y-17267714D01*
X6443548Y-17258190D01*
X6462595Y-17248667D01*
X6510214Y-17248667D01*
X6529262Y-17258190D01*
X6538786Y-17267714D01*
X6548309Y-17286762D01*
X6548309Y-17334381D01*
X6538786Y-17353429D01*
X6529262Y-17362952D01*
X6510214Y-17372476D01*
X6462595Y-17372476D01*
X6443548Y-17362952D01*
X6434024Y-17353429D01*
X6614976Y-17172476D02*
X6748309Y-17172476D01*
X6662595Y-17372476D01*
X6814976Y-17172476D02*
X6814976Y-17210571D01*
X6891167Y-17172476D02*
X6891167Y-17210571D01*
X7186405Y-17448667D02*
X7176881Y-17439143D01*
X7157833Y-17410571D01*
X7148309Y-17391524D01*
X7138786Y-17362952D01*
X7129262Y-17315333D01*
X7129262Y-17277238D01*
X7138786Y-17229619D01*
X7148309Y-17201048D01*
X7157833Y-17182000D01*
X7176881Y-17153429D01*
X7186405Y-17143905D01*
X7253071Y-17191524D02*
X7262595Y-17182000D01*
X7281643Y-17172476D01*
X7329262Y-17172476D01*
X7348309Y-17182000D01*
X7357833Y-17191524D01*
X7367357Y-17210571D01*
X7367357Y-17229619D01*
X7357833Y-17258190D01*
X7243548Y-17372476D01*
X7367357Y-17372476D01*
X7548309Y-17172476D02*
X7453071Y-17172476D01*
X7443548Y-17267714D01*
X7453071Y-17258190D01*
X7472119Y-17248667D01*
X7519738Y-17248667D01*
X7538786Y-17258190D01*
X7548309Y-17267714D01*
X7557833Y-17286762D01*
X7557833Y-17334381D01*
X7548309Y-17353429D01*
X7538786Y-17362952D01*
X7519738Y-17372476D01*
X7472119Y-17372476D01*
X7453071Y-17362952D01*
X7443548Y-17353429D01*
X7729262Y-17172476D02*
X7691167Y-17172476D01*
X7672119Y-17182000D01*
X7662595Y-17191524D01*
X7643548Y-17220095D01*
X7634024Y-17258190D01*
X7634024Y-17334381D01*
X7643548Y-17353429D01*
X7653071Y-17362952D01*
X7672119Y-17372476D01*
X7710214Y-17372476D01*
X7729262Y-17362952D01*
X7738786Y-17353429D01*
X7748309Y-17334381D01*
X7748309Y-17286762D01*
X7738786Y-17267714D01*
X7729262Y-17258190D01*
X7710214Y-17248667D01*
X7672119Y-17248667D01*
X7653071Y-17258190D01*
X7643548Y-17267714D01*
X7634024Y-17286762D01*
X7986405Y-17372476D02*
X7986405Y-17172476D01*
X8072119Y-17372476D02*
X8072119Y-17267714D01*
X8062595Y-17248667D01*
X8043548Y-17239143D01*
X8014976Y-17239143D01*
X7995928Y-17248667D01*
X7986405Y-17258190D01*
X8195928Y-17372476D02*
X8176881Y-17362952D01*
X8167357Y-17353429D01*
X8157833Y-17334381D01*
X8157833Y-17277238D01*
X8167357Y-17258190D01*
X8176881Y-17248667D01*
X8195928Y-17239143D01*
X8224500Y-17239143D01*
X8243548Y-17248667D01*
X8253071Y-17258190D01*
X8262595Y-17277238D01*
X8262595Y-17334381D01*
X8253071Y-17353429D01*
X8243548Y-17362952D01*
X8224500Y-17372476D01*
X8195928Y-17372476D01*
X8376881Y-17372476D02*
X8357833Y-17362952D01*
X8348309Y-17343905D01*
X8348309Y-17172476D01*
X8529262Y-17362952D02*
X8510214Y-17372476D01*
X8472119Y-17372476D01*
X8453071Y-17362952D01*
X8443548Y-17343905D01*
X8443548Y-17267714D01*
X8453071Y-17248667D01*
X8472119Y-17239143D01*
X8510214Y-17239143D01*
X8529262Y-17248667D01*
X8538786Y-17267714D01*
X8538786Y-17286762D01*
X8443548Y-17305810D01*
X8614976Y-17362952D02*
X8634024Y-17372476D01*
X8672119Y-17372476D01*
X8691167Y-17362952D01*
X8700690Y-17343905D01*
X8700690Y-17334381D01*
X8691167Y-17315333D01*
X8672119Y-17305810D01*
X8643548Y-17305810D01*
X8624500Y-17296286D01*
X8614976Y-17277238D01*
X8614976Y-17267714D01*
X8624500Y-17248667D01*
X8643548Y-17239143D01*
X8672119Y-17239143D01*
X8691167Y-17248667D01*
X8767357Y-17448667D02*
X8776881Y-17439143D01*
X8795929Y-17410571D01*
X8805452Y-17391524D01*
X8814976Y-17362952D01*
X8824500Y-17315333D01*
X8824500Y-17277238D01*
X8814976Y-17229619D01*
X8805452Y-17201048D01*
X8795929Y-17182000D01*
X8776881Y-17153429D01*
X8767357Y-17143905D01*
D13*
X3614500Y-17546000D02*
G75*
G03*
X3614500Y-17546000I-45000J0D01*
G01*
D11*
X3910214Y-17436476D02*
X3929262Y-17436476D01*
X3948309Y-17446000D01*
X3957833Y-17455524D01*
X3967357Y-17474571D01*
X3976881Y-17512667D01*
X3976881Y-17560286D01*
X3967357Y-17598381D01*
X3957833Y-17617429D01*
X3948309Y-17626952D01*
X3929262Y-17636476D01*
X3910214Y-17636476D01*
X3891167Y-17626952D01*
X3881643Y-17617429D01*
X3872119Y-17598381D01*
X3862595Y-17560286D01*
X3862595Y-17512667D01*
X3872119Y-17474571D01*
X3881643Y-17455524D01*
X3891167Y-17446000D01*
X3910214Y-17436476D01*
X4062595Y-17617429D02*
X4072119Y-17626952D01*
X4062595Y-17636476D01*
X4053071Y-17626952D01*
X4062595Y-17617429D01*
X4062595Y-17636476D01*
X4167357Y-17636476D02*
X4205452Y-17636476D01*
X4224500Y-17626952D01*
X4234024Y-17617429D01*
X4253071Y-17588857D01*
X4262595Y-17550762D01*
X4262595Y-17474571D01*
X4253071Y-17455524D01*
X4243548Y-17446000D01*
X4224500Y-17436476D01*
X4186405Y-17436476D01*
X4167357Y-17446000D01*
X4157833Y-17455524D01*
X4148309Y-17474571D01*
X4148309Y-17522190D01*
X4157833Y-17541238D01*
X4167357Y-17550762D01*
X4186405Y-17560286D01*
X4224500Y-17560286D01*
X4243548Y-17550762D01*
X4253071Y-17541238D01*
X4262595Y-17522190D01*
X4386405Y-17436476D02*
X4405452Y-17436476D01*
X4424500Y-17446000D01*
X4434024Y-17455524D01*
X4443548Y-17474571D01*
X4453071Y-17512667D01*
X4453071Y-17560286D01*
X4443548Y-17598381D01*
X4434024Y-17617429D01*
X4424500Y-17626952D01*
X4405452Y-17636476D01*
X4386405Y-17636476D01*
X4367357Y-17626952D01*
X4357833Y-17617429D01*
X4348310Y-17598381D01*
X4338786Y-17560286D01*
X4338786Y-17512667D01*
X4348310Y-17474571D01*
X4357833Y-17455524D01*
X4367357Y-17446000D01*
X4386405Y-17436476D01*
X4576881Y-17436476D02*
X4595929Y-17436476D01*
X4614976Y-17446000D01*
X4624500Y-17455524D01*
X4634024Y-17474571D01*
X4643548Y-17512667D01*
X4643548Y-17560286D01*
X4634024Y-17598381D01*
X4624500Y-17617429D01*
X4614976Y-17626952D01*
X4595929Y-17636476D01*
X4576881Y-17636476D01*
X4557833Y-17626952D01*
X4548310Y-17617429D01*
X4538786Y-17598381D01*
X4529262Y-17560286D01*
X4529262Y-17512667D01*
X4538786Y-17474571D01*
X4548310Y-17455524D01*
X4557833Y-17446000D01*
X4576881Y-17436476D01*
X4729262Y-17636476D02*
X4729262Y-17503143D01*
X4729262Y-17522190D02*
X4738786Y-17512667D01*
X4757833Y-17503143D01*
X4786405Y-17503143D01*
X4805452Y-17512667D01*
X4814976Y-17531714D01*
X4814976Y-17636476D01*
X4814976Y-17531714D02*
X4824500Y-17512667D01*
X4843548Y-17503143D01*
X4872119Y-17503143D01*
X4891167Y-17512667D01*
X4900690Y-17531714D01*
X4900690Y-17636476D01*
X4995929Y-17636476D02*
X4995929Y-17503143D01*
X4995929Y-17522190D02*
X5005452Y-17512667D01*
X5024500Y-17503143D01*
X5053071Y-17503143D01*
X5072119Y-17512667D01*
X5081643Y-17531714D01*
X5081643Y-17636476D01*
X5081643Y-17531714D02*
X5091167Y-17512667D01*
X5110214Y-17503143D01*
X5138786Y-17503143D01*
X5157833Y-17512667D01*
X5167357Y-17531714D01*
X5167357Y-17636476D01*
X5557833Y-17426952D02*
X5386405Y-17684095D01*
X5814976Y-17436476D02*
X5834024Y-17436476D01*
X5853071Y-17446000D01*
X5862595Y-17455524D01*
X5872119Y-17474571D01*
X5881643Y-17512667D01*
X5881643Y-17560286D01*
X5872119Y-17598381D01*
X5862595Y-17617429D01*
X5853071Y-17626952D01*
X5834024Y-17636476D01*
X5814976Y-17636476D01*
X5795928Y-17626952D01*
X5786405Y-17617429D01*
X5776881Y-17598381D01*
X5767357Y-17560286D01*
X5767357Y-17512667D01*
X5776881Y-17474571D01*
X5786405Y-17455524D01*
X5795928Y-17446000D01*
X5814976Y-17436476D01*
X5967357Y-17617429D02*
X5976881Y-17626952D01*
X5967357Y-17636476D01*
X5957833Y-17626952D01*
X5967357Y-17617429D01*
X5967357Y-17636476D01*
X6100690Y-17436476D02*
X6119738Y-17436476D01*
X6138786Y-17446000D01*
X6148309Y-17455524D01*
X6157833Y-17474571D01*
X6167357Y-17512667D01*
X6167357Y-17560286D01*
X6157833Y-17598381D01*
X6148309Y-17617429D01*
X6138786Y-17626952D01*
X6119738Y-17636476D01*
X6100690Y-17636476D01*
X6081643Y-17626952D01*
X6072119Y-17617429D01*
X6062595Y-17598381D01*
X6053071Y-17560286D01*
X6053071Y-17512667D01*
X6062595Y-17474571D01*
X6072119Y-17455524D01*
X6081643Y-17446000D01*
X6100690Y-17436476D01*
X6234024Y-17436476D02*
X6357833Y-17436476D01*
X6291167Y-17512667D01*
X6319738Y-17512667D01*
X6338786Y-17522190D01*
X6348309Y-17531714D01*
X6357833Y-17550762D01*
X6357833Y-17598381D01*
X6348309Y-17617429D01*
X6338786Y-17626952D01*
X6319738Y-17636476D01*
X6262595Y-17636476D01*
X6243548Y-17626952D01*
X6234024Y-17617429D01*
X6538786Y-17436476D02*
X6443548Y-17436476D01*
X6434024Y-17531714D01*
X6443548Y-17522190D01*
X6462595Y-17512667D01*
X6510214Y-17512667D01*
X6529262Y-17522190D01*
X6538786Y-17531714D01*
X6548309Y-17550762D01*
X6548309Y-17598381D01*
X6538786Y-17617429D01*
X6529262Y-17626952D01*
X6510214Y-17636476D01*
X6462595Y-17636476D01*
X6443548Y-17626952D01*
X6434024Y-17617429D01*
X6719738Y-17503143D02*
X6719738Y-17636476D01*
X6672119Y-17426952D02*
X6624500Y-17569810D01*
X6748309Y-17569810D01*
X6814976Y-17436476D02*
X6814976Y-17474571D01*
X6891167Y-17436476D02*
X6891167Y-17474571D01*
X7186405Y-17712667D02*
X7176881Y-17703143D01*
X7157833Y-17674571D01*
X7148309Y-17655524D01*
X7138786Y-17626952D01*
X7129262Y-17579333D01*
X7129262Y-17541238D01*
X7138786Y-17493619D01*
X7148309Y-17465048D01*
X7157833Y-17446000D01*
X7176881Y-17417429D01*
X7186405Y-17407905D01*
X7300690Y-17436476D02*
X7319738Y-17436476D01*
X7338786Y-17446000D01*
X7348309Y-17455524D01*
X7357833Y-17474571D01*
X7367357Y-17512667D01*
X7367357Y-17560286D01*
X7357833Y-17598381D01*
X7348309Y-17617429D01*
X7338786Y-17626952D01*
X7319738Y-17636476D01*
X7300690Y-17636476D01*
X7281643Y-17626952D01*
X7272119Y-17617429D01*
X7262595Y-17598381D01*
X7253071Y-17560286D01*
X7253071Y-17512667D01*
X7262595Y-17474571D01*
X7272119Y-17455524D01*
X7281643Y-17446000D01*
X7300690Y-17436476D01*
X7605452Y-17636476D02*
X7605452Y-17436476D01*
X7691167Y-17636476D02*
X7691167Y-17531714D01*
X7681643Y-17512667D01*
X7662595Y-17503143D01*
X7634024Y-17503143D01*
X7614976Y-17512667D01*
X7605452Y-17522190D01*
X7814976Y-17636476D02*
X7795928Y-17626952D01*
X7786405Y-17617429D01*
X7776881Y-17598381D01*
X7776881Y-17541238D01*
X7786405Y-17522190D01*
X7795928Y-17512667D01*
X7814976Y-17503143D01*
X7843548Y-17503143D01*
X7862595Y-17512667D01*
X7872119Y-17522190D01*
X7881643Y-17541238D01*
X7881643Y-17598381D01*
X7872119Y-17617429D01*
X7862595Y-17626952D01*
X7843548Y-17636476D01*
X7814976Y-17636476D01*
X7995928Y-17636476D02*
X7976881Y-17626952D01*
X7967357Y-17607905D01*
X7967357Y-17436476D01*
X8148309Y-17626952D02*
X8129262Y-17636476D01*
X8091167Y-17636476D01*
X8072119Y-17626952D01*
X8062595Y-17607905D01*
X8062595Y-17531714D01*
X8072119Y-17512667D01*
X8091167Y-17503143D01*
X8129262Y-17503143D01*
X8148309Y-17512667D01*
X8157833Y-17531714D01*
X8157833Y-17550762D01*
X8062595Y-17569810D01*
X8234024Y-17626952D02*
X8253071Y-17636476D01*
X8291167Y-17636476D01*
X8310214Y-17626952D01*
X8319738Y-17607905D01*
X8319738Y-17598381D01*
X8310214Y-17579333D01*
X8291167Y-17569810D01*
X8262595Y-17569810D01*
X8243548Y-17560286D01*
X8234024Y-17541238D01*
X8234024Y-17531714D01*
X8243548Y-17512667D01*
X8262595Y-17503143D01*
X8291167Y-17503143D01*
X8310214Y-17512667D01*
X8557833Y-17560286D02*
X8710214Y-17560286D01*
X8634024Y-17636476D02*
X8634024Y-17484095D01*
X8986405Y-17522190D02*
X8967357Y-17512667D01*
X8957833Y-17503143D01*
X8948310Y-17484095D01*
X8948310Y-17474571D01*
X8957833Y-17455524D01*
X8967357Y-17446000D01*
X8986405Y-17436476D01*
X9024500Y-17436476D01*
X9043548Y-17446000D01*
X9053071Y-17455524D01*
X9062595Y-17474571D01*
X9062595Y-17484095D01*
X9053071Y-17503143D01*
X9043548Y-17512667D01*
X9024500Y-17522190D01*
X8986405Y-17522190D01*
X8967357Y-17531714D01*
X8957833Y-17541238D01*
X8948310Y-17560286D01*
X8948310Y-17598381D01*
X8957833Y-17617429D01*
X8967357Y-17626952D01*
X8986405Y-17636476D01*
X9024500Y-17636476D01*
X9043548Y-17626952D01*
X9053071Y-17617429D01*
X9062595Y-17598381D01*
X9062595Y-17560286D01*
X9053071Y-17541238D01*
X9043548Y-17531714D01*
X9024500Y-17522190D01*
X9291167Y-17626952D02*
X9310214Y-17636476D01*
X9348310Y-17636476D01*
X9367357Y-17626952D01*
X9376881Y-17607905D01*
X9376881Y-17598381D01*
X9367357Y-17579333D01*
X9348310Y-17569810D01*
X9319738Y-17569810D01*
X9300690Y-17560286D01*
X9291167Y-17541238D01*
X9291167Y-17531714D01*
X9300690Y-17512667D01*
X9319738Y-17503143D01*
X9348310Y-17503143D01*
X9367357Y-17512667D01*
X9491167Y-17636476D02*
X9472119Y-17626952D01*
X9462595Y-17607905D01*
X9462595Y-17436476D01*
X9595929Y-17636476D02*
X9576881Y-17626952D01*
X9567357Y-17617429D01*
X9557833Y-17598381D01*
X9557833Y-17541238D01*
X9567357Y-17522190D01*
X9576881Y-17512667D01*
X9595929Y-17503143D01*
X9624500Y-17503143D01*
X9643548Y-17512667D01*
X9653071Y-17522190D01*
X9662595Y-17541238D01*
X9662595Y-17598381D01*
X9653071Y-17617429D01*
X9643548Y-17626952D01*
X9624500Y-17636476D01*
X9595929Y-17636476D01*
X9719738Y-17503143D02*
X9795929Y-17503143D01*
X9748310Y-17436476D02*
X9748310Y-17607905D01*
X9757833Y-17626952D01*
X9776881Y-17636476D01*
X9795929Y-17636476D01*
X9853071Y-17626952D02*
X9872119Y-17636476D01*
X9910214Y-17636476D01*
X9929262Y-17626952D01*
X9938786Y-17607905D01*
X9938786Y-17598381D01*
X9929262Y-17579333D01*
X9910214Y-17569810D01*
X9881643Y-17569810D01*
X9862595Y-17560286D01*
X9853071Y-17541238D01*
X9853071Y-17531714D01*
X9862595Y-17512667D01*
X9881643Y-17503143D01*
X9910214Y-17503143D01*
X9929262Y-17512667D01*
X10005452Y-17712667D02*
X10014976Y-17703143D01*
X10034024Y-17674571D01*
X10043548Y-17655524D01*
X10053071Y-17626952D01*
X10062595Y-17579333D01*
X10062595Y-17541238D01*
X10053071Y-17493619D01*
X10043548Y-17465048D01*
X10034024Y-17446000D01*
X10014976Y-17417429D01*
X10005452Y-17407905D01*
D14*
X3564500Y-17760000D02*
X3564500Y-17860000D01*
X3514500Y-17810000D02*
X3614500Y-17810000D01*
D11*
X3976881Y-17900476D02*
X3862595Y-17900476D01*
X3919738Y-17900476D02*
X3919738Y-17700476D01*
X3900690Y-17729048D01*
X3881643Y-17748095D01*
X3862595Y-17757619D01*
X4062595Y-17881429D02*
X4072119Y-17890952D01*
X4062595Y-17900476D01*
X4053071Y-17890952D01*
X4062595Y-17881429D01*
X4062595Y-17900476D01*
X4195929Y-17700476D02*
X4214976Y-17700476D01*
X4234024Y-17710000D01*
X4243548Y-17719524D01*
X4253071Y-17738571D01*
X4262595Y-17776667D01*
X4262595Y-17824286D01*
X4253071Y-17862381D01*
X4243548Y-17881429D01*
X4234024Y-17890952D01*
X4214976Y-17900476D01*
X4195929Y-17900476D01*
X4176881Y-17890952D01*
X4167357Y-17881429D01*
X4157833Y-17862381D01*
X4148309Y-17824286D01*
X4148309Y-17776667D01*
X4157833Y-17738571D01*
X4167357Y-17719524D01*
X4176881Y-17710000D01*
X4195929Y-17700476D01*
X4386405Y-17700476D02*
X4405452Y-17700476D01*
X4424500Y-17710000D01*
X4434024Y-17719524D01*
X4443548Y-17738571D01*
X4453071Y-17776667D01*
X4453071Y-17824286D01*
X4443548Y-17862381D01*
X4434024Y-17881429D01*
X4424500Y-17890952D01*
X4405452Y-17900476D01*
X4386405Y-17900476D01*
X4367357Y-17890952D01*
X4357833Y-17881429D01*
X4348310Y-17862381D01*
X4338786Y-17824286D01*
X4338786Y-17776667D01*
X4348310Y-17738571D01*
X4357833Y-17719524D01*
X4367357Y-17710000D01*
X4386405Y-17700476D01*
X4576881Y-17700476D02*
X4595929Y-17700476D01*
X4614976Y-17710000D01*
X4624500Y-17719524D01*
X4634024Y-17738571D01*
X4643548Y-17776667D01*
X4643548Y-17824286D01*
X4634024Y-17862381D01*
X4624500Y-17881429D01*
X4614976Y-17890952D01*
X4595929Y-17900476D01*
X4576881Y-17900476D01*
X4557833Y-17890952D01*
X4548310Y-17881429D01*
X4538786Y-17862381D01*
X4529262Y-17824286D01*
X4529262Y-17776667D01*
X4538786Y-17738571D01*
X4548310Y-17719524D01*
X4557833Y-17710000D01*
X4576881Y-17700476D01*
X4729262Y-17900476D02*
X4729262Y-17767143D01*
X4729262Y-17786190D02*
X4738786Y-17776667D01*
X4757833Y-17767143D01*
X4786405Y-17767143D01*
X4805452Y-17776667D01*
X4814976Y-17795714D01*
X4814976Y-17900476D01*
X4814976Y-17795714D02*
X4824500Y-17776667D01*
X4843548Y-17767143D01*
X4872119Y-17767143D01*
X4891167Y-17776667D01*
X4900690Y-17795714D01*
X4900690Y-17900476D01*
X4995929Y-17900476D02*
X4995929Y-17767143D01*
X4995929Y-17786190D02*
X5005452Y-17776667D01*
X5024500Y-17767143D01*
X5053071Y-17767143D01*
X5072119Y-17776667D01*
X5081643Y-17795714D01*
X5081643Y-17900476D01*
X5081643Y-17795714D02*
X5091167Y-17776667D01*
X5110214Y-17767143D01*
X5138786Y-17767143D01*
X5157833Y-17776667D01*
X5167357Y-17795714D01*
X5167357Y-17900476D01*
X5557833Y-17690952D02*
X5386405Y-17948095D01*
X5814976Y-17700476D02*
X5834024Y-17700476D01*
X5853071Y-17710000D01*
X5862595Y-17719524D01*
X5872119Y-17738571D01*
X5881643Y-17776667D01*
X5881643Y-17824286D01*
X5872119Y-17862381D01*
X5862595Y-17881429D01*
X5853071Y-17890952D01*
X5834024Y-17900476D01*
X5814976Y-17900476D01*
X5795928Y-17890952D01*
X5786405Y-17881429D01*
X5776881Y-17862381D01*
X5767357Y-17824286D01*
X5767357Y-17776667D01*
X5776881Y-17738571D01*
X5786405Y-17719524D01*
X5795928Y-17710000D01*
X5814976Y-17700476D01*
X5967357Y-17881429D02*
X5976881Y-17890952D01*
X5967357Y-17900476D01*
X5957833Y-17890952D01*
X5967357Y-17881429D01*
X5967357Y-17900476D01*
X6100690Y-17700476D02*
X6119738Y-17700476D01*
X6138786Y-17710000D01*
X6148309Y-17719524D01*
X6157833Y-17738571D01*
X6167357Y-17776667D01*
X6167357Y-17824286D01*
X6157833Y-17862381D01*
X6148309Y-17881429D01*
X6138786Y-17890952D01*
X6119738Y-17900476D01*
X6100690Y-17900476D01*
X6081643Y-17890952D01*
X6072119Y-17881429D01*
X6062595Y-17862381D01*
X6053071Y-17824286D01*
X6053071Y-17776667D01*
X6062595Y-17738571D01*
X6072119Y-17719524D01*
X6081643Y-17710000D01*
X6100690Y-17700476D01*
X6234024Y-17700476D02*
X6357833Y-17700476D01*
X6291167Y-17776667D01*
X6319738Y-17776667D01*
X6338786Y-17786190D01*
X6348309Y-17795714D01*
X6357833Y-17814762D01*
X6357833Y-17862381D01*
X6348309Y-17881429D01*
X6338786Y-17890952D01*
X6319738Y-17900476D01*
X6262595Y-17900476D01*
X6243548Y-17890952D01*
X6234024Y-17881429D01*
X6453071Y-17900476D02*
X6491167Y-17900476D01*
X6510214Y-17890952D01*
X6519738Y-17881429D01*
X6538786Y-17852857D01*
X6548309Y-17814762D01*
X6548309Y-17738571D01*
X6538786Y-17719524D01*
X6529262Y-17710000D01*
X6510214Y-17700476D01*
X6472119Y-17700476D01*
X6453071Y-17710000D01*
X6443548Y-17719524D01*
X6434024Y-17738571D01*
X6434024Y-17786190D01*
X6443548Y-17805238D01*
X6453071Y-17814762D01*
X6472119Y-17824286D01*
X6510214Y-17824286D01*
X6529262Y-17814762D01*
X6538786Y-17805238D01*
X6548309Y-17786190D01*
X6719738Y-17767143D02*
X6719738Y-17900476D01*
X6672119Y-17690952D02*
X6624500Y-17833810D01*
X6748309Y-17833810D01*
X6814976Y-17700476D02*
X6814976Y-17738571D01*
X6891167Y-17700476D02*
X6891167Y-17738571D01*
X7186405Y-17976667D02*
X7176881Y-17967143D01*
X7157833Y-17938571D01*
X7148309Y-17919524D01*
X7138786Y-17890952D01*
X7129262Y-17843333D01*
X7129262Y-17805238D01*
X7138786Y-17757619D01*
X7148309Y-17729048D01*
X7157833Y-17710000D01*
X7176881Y-17681429D01*
X7186405Y-17671905D01*
X7253071Y-17719524D02*
X7262595Y-17710000D01*
X7281643Y-17700476D01*
X7329262Y-17700476D01*
X7348309Y-17710000D01*
X7357833Y-17719524D01*
X7367357Y-17738571D01*
X7367357Y-17757619D01*
X7357833Y-17786190D01*
X7243548Y-17900476D01*
X7367357Y-17900476D01*
X7538786Y-17767143D02*
X7538786Y-17900476D01*
X7491167Y-17690952D02*
X7443548Y-17833810D01*
X7567357Y-17833810D01*
X7795928Y-17900476D02*
X7795928Y-17700476D01*
X7881643Y-17900476D02*
X7881643Y-17795714D01*
X7872119Y-17776667D01*
X7853071Y-17767143D01*
X7824500Y-17767143D01*
X7805452Y-17776667D01*
X7795928Y-17786190D01*
X8005452Y-17900476D02*
X7986405Y-17890952D01*
X7976881Y-17881429D01*
X7967357Y-17862381D01*
X7967357Y-17805238D01*
X7976881Y-17786190D01*
X7986405Y-17776667D01*
X8005452Y-17767143D01*
X8034024Y-17767143D01*
X8053071Y-17776667D01*
X8062595Y-17786190D01*
X8072119Y-17805238D01*
X8072119Y-17862381D01*
X8062595Y-17881429D01*
X8053071Y-17890952D01*
X8034024Y-17900476D01*
X8005452Y-17900476D01*
X8186405Y-17900476D02*
X8167357Y-17890952D01*
X8157833Y-17871905D01*
X8157833Y-17700476D01*
X8338786Y-17890952D02*
X8319738Y-17900476D01*
X8281643Y-17900476D01*
X8262595Y-17890952D01*
X8253071Y-17871905D01*
X8253071Y-17795714D01*
X8262595Y-17776667D01*
X8281643Y-17767143D01*
X8319738Y-17767143D01*
X8338786Y-17776667D01*
X8348309Y-17795714D01*
X8348309Y-17814762D01*
X8253071Y-17833810D01*
X8424500Y-17890952D02*
X8443548Y-17900476D01*
X8481643Y-17900476D01*
X8500690Y-17890952D01*
X8510214Y-17871905D01*
X8510214Y-17862381D01*
X8500690Y-17843333D01*
X8481643Y-17833810D01*
X8453071Y-17833810D01*
X8434024Y-17824286D01*
X8424500Y-17805238D01*
X8424500Y-17795714D01*
X8434024Y-17776667D01*
X8453071Y-17767143D01*
X8481643Y-17767143D01*
X8500690Y-17776667D01*
X8576881Y-17976667D02*
X8586405Y-17967143D01*
X8605452Y-17938571D01*
X8614976Y-17919524D01*
X8624500Y-17890952D01*
X8634024Y-17843333D01*
X8634024Y-17805238D01*
X8624500Y-17757619D01*
X8614976Y-17729048D01*
X8605452Y-17710000D01*
X8586405Y-17681429D01*
X8576881Y-17671905D01*
D15*
X3598391Y-18112891D02*
X3598391Y-18035109D01*
X3520609Y-18035109D01*
X3520609Y-18112891D01*
X3598391Y-18112891D01*
D11*
X3976881Y-18164476D02*
X3862595Y-18164476D01*
X3919738Y-18164476D02*
X3919738Y-17964476D01*
X3900690Y-17993048D01*
X3881643Y-18012095D01*
X3862595Y-18021619D01*
X4062595Y-18145429D02*
X4072119Y-18154952D01*
X4062595Y-18164476D01*
X4053071Y-18154952D01*
X4062595Y-18145429D01*
X4062595Y-18164476D01*
X4262595Y-18164476D02*
X4148309Y-18164476D01*
X4205452Y-18164476D02*
X4205452Y-17964476D01*
X4186405Y-17993048D01*
X4167357Y-18012095D01*
X4148309Y-18021619D01*
X4386405Y-17964476D02*
X4405452Y-17964476D01*
X4424500Y-17974000D01*
X4434024Y-17983524D01*
X4443548Y-18002571D01*
X4453071Y-18040667D01*
X4453071Y-18088286D01*
X4443548Y-18126381D01*
X4434024Y-18145429D01*
X4424500Y-18154952D01*
X4405452Y-18164476D01*
X4386405Y-18164476D01*
X4367357Y-18154952D01*
X4357833Y-18145429D01*
X4348310Y-18126381D01*
X4338786Y-18088286D01*
X4338786Y-18040667D01*
X4348310Y-18002571D01*
X4357833Y-17983524D01*
X4367357Y-17974000D01*
X4386405Y-17964476D01*
X4576881Y-17964476D02*
X4595929Y-17964476D01*
X4614976Y-17974000D01*
X4624500Y-17983524D01*
X4634024Y-18002571D01*
X4643548Y-18040667D01*
X4643548Y-18088286D01*
X4634024Y-18126381D01*
X4624500Y-18145429D01*
X4614976Y-18154952D01*
X4595929Y-18164476D01*
X4576881Y-18164476D01*
X4557833Y-18154952D01*
X4548310Y-18145429D01*
X4538786Y-18126381D01*
X4529262Y-18088286D01*
X4529262Y-18040667D01*
X4538786Y-18002571D01*
X4548310Y-17983524D01*
X4557833Y-17974000D01*
X4576881Y-17964476D01*
X4729262Y-18164476D02*
X4729262Y-18031143D01*
X4729262Y-18050190D02*
X4738786Y-18040667D01*
X4757833Y-18031143D01*
X4786405Y-18031143D01*
X4805452Y-18040667D01*
X4814976Y-18059714D01*
X4814976Y-18164476D01*
X4814976Y-18059714D02*
X4824500Y-18040667D01*
X4843548Y-18031143D01*
X4872119Y-18031143D01*
X4891167Y-18040667D01*
X4900690Y-18059714D01*
X4900690Y-18164476D01*
X4995929Y-18164476D02*
X4995929Y-18031143D01*
X4995929Y-18050190D02*
X5005452Y-18040667D01*
X5024500Y-18031143D01*
X5053071Y-18031143D01*
X5072119Y-18040667D01*
X5081643Y-18059714D01*
X5081643Y-18164476D01*
X5081643Y-18059714D02*
X5091167Y-18040667D01*
X5110214Y-18031143D01*
X5138786Y-18031143D01*
X5157833Y-18040667D01*
X5167357Y-18059714D01*
X5167357Y-18164476D01*
X5557833Y-17954952D02*
X5386405Y-18212095D01*
X5814976Y-17964476D02*
X5834024Y-17964476D01*
X5853071Y-17974000D01*
X5862595Y-17983524D01*
X5872119Y-18002571D01*
X5881643Y-18040667D01*
X5881643Y-18088286D01*
X5872119Y-18126381D01*
X5862595Y-18145429D01*
X5853071Y-18154952D01*
X5834024Y-18164476D01*
X5814976Y-18164476D01*
X5795928Y-18154952D01*
X5786405Y-18145429D01*
X5776881Y-18126381D01*
X5767357Y-18088286D01*
X5767357Y-18040667D01*
X5776881Y-18002571D01*
X5786405Y-17983524D01*
X5795928Y-17974000D01*
X5814976Y-17964476D01*
X5967357Y-18145429D02*
X5976881Y-18154952D01*
X5967357Y-18164476D01*
X5957833Y-18154952D01*
X5967357Y-18145429D01*
X5967357Y-18164476D01*
X6100690Y-17964476D02*
X6119738Y-17964476D01*
X6138786Y-17974000D01*
X6148309Y-17983524D01*
X6157833Y-18002571D01*
X6167357Y-18040667D01*
X6167357Y-18088286D01*
X6157833Y-18126381D01*
X6148309Y-18145429D01*
X6138786Y-18154952D01*
X6119738Y-18164476D01*
X6100690Y-18164476D01*
X6081643Y-18154952D01*
X6072119Y-18145429D01*
X6062595Y-18126381D01*
X6053071Y-18088286D01*
X6053071Y-18040667D01*
X6062595Y-18002571D01*
X6072119Y-17983524D01*
X6081643Y-17974000D01*
X6100690Y-17964476D01*
X6338786Y-18031143D02*
X6338786Y-18164476D01*
X6291167Y-17954952D02*
X6243548Y-18097810D01*
X6367357Y-18097810D01*
X6424500Y-17964476D02*
X6548309Y-17964476D01*
X6481643Y-18040667D01*
X6510214Y-18040667D01*
X6529262Y-18050190D01*
X6538786Y-18059714D01*
X6548309Y-18078762D01*
X6548309Y-18126381D01*
X6538786Y-18145429D01*
X6529262Y-18154952D01*
X6510214Y-18164476D01*
X6453071Y-18164476D01*
X6434024Y-18154952D01*
X6424500Y-18145429D01*
X6614976Y-17964476D02*
X6738786Y-17964476D01*
X6672119Y-18040667D01*
X6700690Y-18040667D01*
X6719738Y-18050190D01*
X6729262Y-18059714D01*
X6738786Y-18078762D01*
X6738786Y-18126381D01*
X6729262Y-18145429D01*
X6719738Y-18154952D01*
X6700690Y-18164476D01*
X6643548Y-18164476D01*
X6624500Y-18154952D01*
X6614976Y-18145429D01*
X6814976Y-17964476D02*
X6814976Y-18002571D01*
X6891167Y-17964476D02*
X6891167Y-18002571D01*
X7186405Y-18240667D02*
X7176881Y-18231143D01*
X7157833Y-18202571D01*
X7148309Y-18183524D01*
X7138786Y-18154952D01*
X7129262Y-18107333D01*
X7129262Y-18069238D01*
X7138786Y-18021619D01*
X7148309Y-17993048D01*
X7157833Y-17974000D01*
X7176881Y-17945429D01*
X7186405Y-17935905D01*
X7291167Y-18050190D02*
X7272119Y-18040667D01*
X7262595Y-18031143D01*
X7253071Y-18012095D01*
X7253071Y-18002571D01*
X7262595Y-17983524D01*
X7272119Y-17974000D01*
X7291167Y-17964476D01*
X7329262Y-17964476D01*
X7348309Y-17974000D01*
X7357833Y-17983524D01*
X7367357Y-18002571D01*
X7367357Y-18012095D01*
X7357833Y-18031143D01*
X7348309Y-18040667D01*
X7329262Y-18050190D01*
X7291167Y-18050190D01*
X7272119Y-18059714D01*
X7262595Y-18069238D01*
X7253071Y-18088286D01*
X7253071Y-18126381D01*
X7262595Y-18145429D01*
X7272119Y-18154952D01*
X7291167Y-18164476D01*
X7329262Y-18164476D01*
X7348309Y-18154952D01*
X7357833Y-18145429D01*
X7367357Y-18126381D01*
X7367357Y-18088286D01*
X7357833Y-18069238D01*
X7348309Y-18059714D01*
X7329262Y-18050190D01*
X7605452Y-18164476D02*
X7605452Y-17964476D01*
X7691167Y-18164476D02*
X7691167Y-18059714D01*
X7681643Y-18040667D01*
X7662595Y-18031143D01*
X7634024Y-18031143D01*
X7614976Y-18040667D01*
X7605452Y-18050190D01*
X7814976Y-18164476D02*
X7795928Y-18154952D01*
X7786405Y-18145429D01*
X7776881Y-18126381D01*
X7776881Y-18069238D01*
X7786405Y-18050190D01*
X7795928Y-18040667D01*
X7814976Y-18031143D01*
X7843548Y-18031143D01*
X7862595Y-18040667D01*
X7872119Y-18050190D01*
X7881643Y-18069238D01*
X7881643Y-18126381D01*
X7872119Y-18145429D01*
X7862595Y-18154952D01*
X7843548Y-18164476D01*
X7814976Y-18164476D01*
X7995928Y-18164476D02*
X7976881Y-18154952D01*
X7967357Y-18135905D01*
X7967357Y-17964476D01*
X8148309Y-18154952D02*
X8129262Y-18164476D01*
X8091167Y-18164476D01*
X8072119Y-18154952D01*
X8062595Y-18135905D01*
X8062595Y-18059714D01*
X8072119Y-18040667D01*
X8091167Y-18031143D01*
X8129262Y-18031143D01*
X8148309Y-18040667D01*
X8157833Y-18059714D01*
X8157833Y-18078762D01*
X8062595Y-18097810D01*
X8234024Y-18154952D02*
X8253071Y-18164476D01*
X8291167Y-18164476D01*
X8310214Y-18154952D01*
X8319738Y-18135905D01*
X8319738Y-18126381D01*
X8310214Y-18107333D01*
X8291167Y-18097810D01*
X8262595Y-18097810D01*
X8243548Y-18088286D01*
X8234024Y-18069238D01*
X8234024Y-18059714D01*
X8243548Y-18040667D01*
X8262595Y-18031143D01*
X8291167Y-18031143D01*
X8310214Y-18040667D01*
X8386405Y-18240667D02*
X8395929Y-18231143D01*
X8414976Y-18202571D01*
X8424500Y-18183524D01*
X8434024Y-18154952D01*
X8443548Y-18107333D01*
X8443548Y-18069238D01*
X8434024Y-18021619D01*
X8424500Y-17993048D01*
X8414976Y-17974000D01*
X8395929Y-17945429D01*
X8386405Y-17935905D01*
D16*
X3554500Y-18398000D02*
X3614500Y-18338000D01*
X3554500Y-18278000D01*
X3494500Y-18338000D01*
X3554500Y-18398000D01*
D11*
X3976881Y-18428476D02*
X3862595Y-18428476D01*
X3919738Y-18428476D02*
X3919738Y-18228476D01*
X3900690Y-18257048D01*
X3881643Y-18276095D01*
X3862595Y-18285619D01*
X4062595Y-18409429D02*
X4072119Y-18418952D01*
X4062595Y-18428476D01*
X4053071Y-18418952D01*
X4062595Y-18409429D01*
X4062595Y-18428476D01*
X4148309Y-18247524D02*
X4157833Y-18238000D01*
X4176881Y-18228476D01*
X4224500Y-18228476D01*
X4243548Y-18238000D01*
X4253071Y-18247524D01*
X4262595Y-18266571D01*
X4262595Y-18285619D01*
X4253071Y-18314190D01*
X4138786Y-18428476D01*
X4262595Y-18428476D01*
X4386405Y-18228476D02*
X4405452Y-18228476D01*
X4424500Y-18238000D01*
X4434024Y-18247524D01*
X4443548Y-18266571D01*
X4453071Y-18304667D01*
X4453071Y-18352286D01*
X4443548Y-18390381D01*
X4434024Y-18409429D01*
X4424500Y-18418952D01*
X4405452Y-18428476D01*
X4386405Y-18428476D01*
X4367357Y-18418952D01*
X4357833Y-18409429D01*
X4348310Y-18390381D01*
X4338786Y-18352286D01*
X4338786Y-18304667D01*
X4348310Y-18266571D01*
X4357833Y-18247524D01*
X4367357Y-18238000D01*
X4386405Y-18228476D01*
X4576881Y-18228476D02*
X4595929Y-18228476D01*
X4614976Y-18238000D01*
X4624500Y-18247524D01*
X4634024Y-18266571D01*
X4643548Y-18304667D01*
X4643548Y-18352286D01*
X4634024Y-18390381D01*
X4624500Y-18409429D01*
X4614976Y-18418952D01*
X4595929Y-18428476D01*
X4576881Y-18428476D01*
X4557833Y-18418952D01*
X4548310Y-18409429D01*
X4538786Y-18390381D01*
X4529262Y-18352286D01*
X4529262Y-18304667D01*
X4538786Y-18266571D01*
X4548310Y-18247524D01*
X4557833Y-18238000D01*
X4576881Y-18228476D01*
X4729262Y-18428476D02*
X4729262Y-18295143D01*
X4729262Y-18314190D02*
X4738786Y-18304667D01*
X4757833Y-18295143D01*
X4786405Y-18295143D01*
X4805452Y-18304667D01*
X4814976Y-18323714D01*
X4814976Y-18428476D01*
X4814976Y-18323714D02*
X4824500Y-18304667D01*
X4843548Y-18295143D01*
X4872119Y-18295143D01*
X4891167Y-18304667D01*
X4900690Y-18323714D01*
X4900690Y-18428476D01*
X4995929Y-18428476D02*
X4995929Y-18295143D01*
X4995929Y-18314190D02*
X5005452Y-18304667D01*
X5024500Y-18295143D01*
X5053071Y-18295143D01*
X5072119Y-18304667D01*
X5081643Y-18323714D01*
X5081643Y-18428476D01*
X5081643Y-18323714D02*
X5091167Y-18304667D01*
X5110214Y-18295143D01*
X5138786Y-18295143D01*
X5157833Y-18304667D01*
X5167357Y-18323714D01*
X5167357Y-18428476D01*
X5557833Y-18218952D02*
X5386405Y-18476095D01*
X5814976Y-18228476D02*
X5834024Y-18228476D01*
X5853071Y-18238000D01*
X5862595Y-18247524D01*
X5872119Y-18266571D01*
X5881643Y-18304667D01*
X5881643Y-18352286D01*
X5872119Y-18390381D01*
X5862595Y-18409429D01*
X5853071Y-18418952D01*
X5834024Y-18428476D01*
X5814976Y-18428476D01*
X5795928Y-18418952D01*
X5786405Y-18409429D01*
X5776881Y-18390381D01*
X5767357Y-18352286D01*
X5767357Y-18304667D01*
X5776881Y-18266571D01*
X5786405Y-18247524D01*
X5795928Y-18238000D01*
X5814976Y-18228476D01*
X5967357Y-18409429D02*
X5976881Y-18418952D01*
X5967357Y-18428476D01*
X5957833Y-18418952D01*
X5967357Y-18409429D01*
X5967357Y-18428476D01*
X6100690Y-18228476D02*
X6119738Y-18228476D01*
X6138786Y-18238000D01*
X6148309Y-18247524D01*
X6157833Y-18266571D01*
X6167357Y-18304667D01*
X6167357Y-18352286D01*
X6157833Y-18390381D01*
X6148309Y-18409429D01*
X6138786Y-18418952D01*
X6119738Y-18428476D01*
X6100690Y-18428476D01*
X6081643Y-18418952D01*
X6072119Y-18409429D01*
X6062595Y-18390381D01*
X6053071Y-18352286D01*
X6053071Y-18304667D01*
X6062595Y-18266571D01*
X6072119Y-18247524D01*
X6081643Y-18238000D01*
X6100690Y-18228476D01*
X6338786Y-18295143D02*
X6338786Y-18428476D01*
X6291167Y-18218952D02*
X6243548Y-18361810D01*
X6367357Y-18361810D01*
X6424500Y-18228476D02*
X6557833Y-18228476D01*
X6472119Y-18428476D01*
X6624500Y-18247524D02*
X6634024Y-18238000D01*
X6653071Y-18228476D01*
X6700690Y-18228476D01*
X6719738Y-18238000D01*
X6729262Y-18247524D01*
X6738786Y-18266571D01*
X6738786Y-18285619D01*
X6729262Y-18314190D01*
X6614976Y-18428476D01*
X6738786Y-18428476D01*
X6814976Y-18228476D02*
X6814976Y-18266571D01*
X6891167Y-18228476D02*
X6891167Y-18266571D01*
X7186405Y-18504667D02*
X7176881Y-18495143D01*
X7157833Y-18466571D01*
X7148309Y-18447524D01*
X7138786Y-18418952D01*
X7129262Y-18371333D01*
X7129262Y-18333238D01*
X7138786Y-18285619D01*
X7148309Y-18257048D01*
X7157833Y-18238000D01*
X7176881Y-18209429D01*
X7186405Y-18199905D01*
X7367357Y-18428476D02*
X7253071Y-18428476D01*
X7310214Y-18428476D02*
X7310214Y-18228476D01*
X7291167Y-18257048D01*
X7272119Y-18276095D01*
X7253071Y-18285619D01*
X7491167Y-18228476D02*
X7510214Y-18228476D01*
X7529262Y-18238000D01*
X7538786Y-18247524D01*
X7548309Y-18266571D01*
X7557833Y-18304667D01*
X7557833Y-18352286D01*
X7548309Y-18390381D01*
X7538786Y-18409429D01*
X7529262Y-18418952D01*
X7510214Y-18428476D01*
X7491167Y-18428476D01*
X7472119Y-18418952D01*
X7462595Y-18409429D01*
X7453071Y-18390381D01*
X7443548Y-18352286D01*
X7443548Y-18304667D01*
X7453071Y-18266571D01*
X7462595Y-18247524D01*
X7472119Y-18238000D01*
X7491167Y-18228476D01*
X7738786Y-18228476D02*
X7643548Y-18228476D01*
X7634024Y-18323714D01*
X7643548Y-18314190D01*
X7662595Y-18304667D01*
X7710214Y-18304667D01*
X7729262Y-18314190D01*
X7738786Y-18323714D01*
X7748309Y-18342762D01*
X7748309Y-18390381D01*
X7738786Y-18409429D01*
X7729262Y-18418952D01*
X7710214Y-18428476D01*
X7662595Y-18428476D01*
X7643548Y-18418952D01*
X7634024Y-18409429D01*
X7986405Y-18428476D02*
X7986405Y-18228476D01*
X8072119Y-18428476D02*
X8072119Y-18323714D01*
X8062595Y-18304667D01*
X8043548Y-18295143D01*
X8014976Y-18295143D01*
X7995928Y-18304667D01*
X7986405Y-18314190D01*
X8195928Y-18428476D02*
X8176881Y-18418952D01*
X8167357Y-18409429D01*
X8157833Y-18390381D01*
X8157833Y-18333238D01*
X8167357Y-18314190D01*
X8176881Y-18304667D01*
X8195928Y-18295143D01*
X8224500Y-18295143D01*
X8243548Y-18304667D01*
X8253071Y-18314190D01*
X8262595Y-18333238D01*
X8262595Y-18390381D01*
X8253071Y-18409429D01*
X8243548Y-18418952D01*
X8224500Y-18428476D01*
X8195928Y-18428476D01*
X8376881Y-18428476D02*
X8357833Y-18418952D01*
X8348309Y-18399905D01*
X8348309Y-18228476D01*
X8529262Y-18418952D02*
X8510214Y-18428476D01*
X8472119Y-18428476D01*
X8453071Y-18418952D01*
X8443548Y-18399905D01*
X8443548Y-18323714D01*
X8453071Y-18304667D01*
X8472119Y-18295143D01*
X8510214Y-18295143D01*
X8529262Y-18304667D01*
X8538786Y-18323714D01*
X8538786Y-18342762D01*
X8443548Y-18361810D01*
X8614976Y-18418952D02*
X8634024Y-18428476D01*
X8672119Y-18428476D01*
X8691167Y-18418952D01*
X8700690Y-18399905D01*
X8700690Y-18390381D01*
X8691167Y-18371333D01*
X8672119Y-18361810D01*
X8643548Y-18361810D01*
X8624500Y-18352286D01*
X8614976Y-18333238D01*
X8614976Y-18323714D01*
X8624500Y-18304667D01*
X8643548Y-18295143D01*
X8672119Y-18295143D01*
X8691167Y-18304667D01*
X8767357Y-18504667D02*
X8776881Y-18495143D01*
X8795929Y-18466571D01*
X8805452Y-18447524D01*
X8814976Y-18418952D01*
X8824500Y-18371333D01*
X8824500Y-18333238D01*
X8814976Y-18285619D01*
X8805452Y-18257048D01*
X8795929Y-18238000D01*
X8776881Y-18209429D01*
X8767357Y-18199905D01*
M02*
