%TF.GenerationSoftware,KiCad,Pcbnew,(6.0.5)*%
%TF.CreationDate,2022-05-24T22:08:53+02:00*%
%TF.ProjectId,LPKeyboard,4c504b65-7962-46f6-9172-642e6b696361,rev?*%
%TF.SameCoordinates,Original*%
%TF.FileFunction,Paste,Top*%
%TF.FilePolarity,Positive*%
%FSLAX46Y46*%
G04 Gerber Fmt 4.6, Leading zero omitted, Abs format (unit mm)*
G04 Created by KiCad (PCBNEW (6.0.5)) date 2022-05-24 22:08:53*
%MOMM*%
%LPD*%
G01*
G04 APERTURE LIST*
G04 Aperture macros list*
%AMRoundRect*
0 Rectangle with rounded corners*
0 $1 Rounding radius*
0 $2 $3 $4 $5 $6 $7 $8 $9 X,Y pos of 4 corners*
0 Add a 4 corners polygon primitive as box body*
4,1,4,$2,$3,$4,$5,$6,$7,$8,$9,$2,$3,0*
0 Add four circle primitives for the rounded corners*
1,1,$1+$1,$2,$3*
1,1,$1+$1,$4,$5*
1,1,$1+$1,$6,$7*
1,1,$1+$1,$8,$9*
0 Add four rect primitives between the rounded corners*
20,1,$1+$1,$2,$3,$4,$5,0*
20,1,$1+$1,$4,$5,$6,$7,0*
20,1,$1+$1,$6,$7,$8,$9,0*
20,1,$1+$1,$8,$9,$2,$3,0*%
%AMRotRect*
0 Rectangle, with rotation*
0 The origin of the aperture is its center*
0 $1 length*
0 $2 width*
0 $3 Rotation angle, in degrees counterclockwise*
0 Add horizontal line*
21,1,$1,$2,0,0,$3*%
G04 Aperture macros list end*
%ADD10R,0.900000X1.200000*%
%ADD11R,1.700000X0.820000*%
%ADD12RoundRect,0.205000X0.645000X0.205000X-0.645000X0.205000X-0.645000X-0.205000X0.645000X-0.205000X0*%
%ADD13RotRect,0.900000X1.200000X140.000000*%
%ADD14RotRect,0.900000X1.200000X160.000000*%
%ADD15RotRect,1.700000X0.820000X140.000000*%
%ADD16RoundRect,0.205000X0.625870X-0.257559X-0.362327X0.571637X-0.625870X0.257559X0.362327X-0.571637X0*%
%ADD17RotRect,1.700000X0.820000X160.000000*%
%ADD18RoundRect,0.205000X0.676216X-0.027966X-0.535988X0.413240X-0.676216X0.027966X0.535988X-0.413240X0*%
%ADD19RoundRect,0.200000X0.275000X-0.200000X0.275000X0.200000X-0.275000X0.200000X-0.275000X-0.200000X0*%
G04 APERTURE END LIST*
D10*
%TO.C,D47*%
X91049127Y-68231064D03*
X87749127Y-68231064D03*
%TD*%
D11*
%TO.C,D11*%
X88147500Y-61529800D03*
X88147500Y-63029800D03*
D12*
X83047500Y-63029800D03*
D11*
X83047500Y-61529800D03*
%TD*%
D13*
%TO.C,D70*%
X169020276Y-152295887D03*
X166492330Y-150174687D03*
%TD*%
D11*
%TO.C,D28*%
X142147500Y-97572800D03*
X142147500Y-99072800D03*
D12*
X137047500Y-99072800D03*
D11*
X137047500Y-97572800D03*
%TD*%
D14*
%TO.C,D60*%
X132601361Y-126716500D03*
X129500375Y-125587834D03*
%TD*%
D11*
%TO.C,D3*%
X49960000Y-98529800D03*
X49960000Y-100029800D03*
D12*
X44860000Y-100029800D03*
D11*
X44860000Y-98529800D03*
%TD*%
D10*
%TO.C,D39*%
X52861627Y-105231064D03*
X49561627Y-105231064D03*
%TD*%
D11*
%TO.C,D31*%
X160147500Y-79404800D03*
X160147500Y-80904800D03*
D12*
X155047500Y-80904800D03*
D11*
X155047500Y-79404800D03*
%TD*%
D10*
%TO.C,D37*%
X52861627Y-71231064D03*
X49561627Y-71231064D03*
%TD*%
D13*
%TO.C,D65*%
X155231477Y-140725711D03*
X152703531Y-138604511D03*
%TD*%
D11*
%TO.C,D29*%
X142147500Y-115529800D03*
X142147500Y-117029800D03*
D12*
X137047500Y-117029800D03*
D11*
X137047500Y-115529800D03*
%TD*%
D10*
%TO.C,D49*%
X91049127Y-102231064D03*
X87749127Y-102231064D03*
%TD*%
%TO.C,D44*%
X73049127Y-105231064D03*
X69749127Y-105231064D03*
%TD*%
%TO.C,D40*%
X55049127Y-122231064D03*
X51749127Y-122231064D03*
%TD*%
%TO.C,D46*%
X91049127Y-51231064D03*
X87749127Y-51231064D03*
%TD*%
D11*
%TO.C,D12*%
X88147500Y-78529800D03*
X88147500Y-80029800D03*
D12*
X83047500Y-80029800D03*
D11*
X83047500Y-78529800D03*
%TD*%
%TO.C,D9*%
X70147500Y-115529800D03*
X70147500Y-117029800D03*
D12*
X65047500Y-117029800D03*
D11*
X65047500Y-115529800D03*
%TD*%
%TO.C,D6*%
X70147500Y-64529800D03*
X70147500Y-66029800D03*
D12*
X65047500Y-66029800D03*
D11*
X65047500Y-64529800D03*
%TD*%
%TO.C,D18*%
X106147500Y-92529800D03*
X106147500Y-94029800D03*
D12*
X101047500Y-94029800D03*
D11*
X101047500Y-92529800D03*
%TD*%
D15*
%TO.C,D33*%
X157307439Y-133717832D03*
X156343258Y-134866899D03*
D16*
X152436431Y-131588682D03*
D15*
X153400612Y-130439615D03*
%TD*%
D10*
%TO.C,D43*%
X73049127Y-88231064D03*
X69749127Y-88231064D03*
%TD*%
%TO.C,D61*%
X145199127Y-54231064D03*
X141899127Y-54231064D03*
%TD*%
%TO.C,D55*%
X109049127Y-116231064D03*
X105749127Y-116231064D03*
%TD*%
%TO.C,D54*%
X109049127Y-99231064D03*
X105749127Y-99231064D03*
%TD*%
%TO.C,D45*%
X73049127Y-122231064D03*
X69749127Y-122231064D03*
%TD*%
%TO.C,D66*%
X163049127Y-69106064D03*
X159749127Y-69106064D03*
%TD*%
D11*
%TO.C,D1*%
X49960000Y-64529800D03*
X49960000Y-66029800D03*
D12*
X44860000Y-66029800D03*
D11*
X44860000Y-64529800D03*
%TD*%
D10*
%TO.C,D59*%
X127049127Y-102231064D03*
X123749127Y-102231064D03*
%TD*%
D11*
%TO.C,D24*%
X124147500Y-112529800D03*
X124147500Y-114029800D03*
D12*
X119047500Y-114029800D03*
D11*
X119047500Y-112529800D03*
%TD*%
%TO.C,D23*%
X124147500Y-95529800D03*
X124147500Y-97029800D03*
D12*
X119047500Y-97029800D03*
D11*
X119047500Y-95529800D03*
%TD*%
%TO.C,D14*%
X88147500Y-112529800D03*
X88147500Y-114029800D03*
D12*
X83047500Y-114029800D03*
D11*
X83047500Y-112529800D03*
%TD*%
%TO.C,D20*%
X106147500Y-126529800D03*
X106147500Y-128029800D03*
D12*
X101047500Y-128029800D03*
D11*
X101047500Y-126529800D03*
%TD*%
%TO.C,D19*%
X106147500Y-109529800D03*
X106147500Y-111029800D03*
D12*
X101047500Y-111029800D03*
D11*
X101047500Y-109529800D03*
%TD*%
%TO.C,D5*%
X52147500Y-132529800D03*
X52147500Y-134029800D03*
D12*
X47047500Y-134029800D03*
D11*
X47047500Y-132529800D03*
%TD*%
%TO.C,D2*%
X49960000Y-81529800D03*
X49960000Y-83029800D03*
D12*
X44860000Y-83029800D03*
D11*
X44860000Y-81529800D03*
%TD*%
D10*
%TO.C,D38*%
X52861627Y-88231064D03*
X49561627Y-88231064D03*
%TD*%
D15*
%TO.C,D30*%
X146380050Y-146740589D03*
X145415869Y-147889656D03*
D16*
X141509042Y-144611439D03*
D15*
X142473223Y-143462372D03*
%TD*%
D11*
%TO.C,D7*%
X70147500Y-81529800D03*
X70147500Y-83029800D03*
D12*
X65047500Y-83029800D03*
D11*
X65047500Y-81529800D03*
%TD*%
D10*
%TO.C,D41*%
X73049127Y-54231064D03*
X69749127Y-54231064D03*
%TD*%
%TO.C,D42*%
X73049127Y-71231064D03*
X69749127Y-71231064D03*
%TD*%
%TO.C,D57*%
X127049127Y-68231064D03*
X123749127Y-68231064D03*
%TD*%
D15*
%TO.C,D35*%
X160168849Y-158310766D03*
X159204668Y-159459833D03*
D16*
X155297841Y-156181616D03*
D15*
X156262022Y-155032549D03*
%TD*%
D13*
%TO.C,D68*%
X166158866Y-127702955D03*
X163630920Y-125581755D03*
%TD*%
D11*
%TO.C,D15*%
X88147500Y-129529800D03*
X88147500Y-131029800D03*
D12*
X83047500Y-131029800D03*
D11*
X83047500Y-129529800D03*
%TD*%
D10*
%TO.C,D36*%
X52861627Y-54231064D03*
X49561627Y-54231064D03*
%TD*%
D11*
%TO.C,D32*%
X160147500Y-96404800D03*
X160147500Y-97904800D03*
D12*
X155047500Y-97904800D03*
D11*
X155047500Y-96404800D03*
%TD*%
D10*
%TO.C,D52*%
X109049127Y-65231064D03*
X105749127Y-65231064D03*
%TD*%
D11*
%TO.C,D27*%
X142297500Y-81529800D03*
X142297500Y-83029800D03*
D12*
X137197500Y-83029800D03*
D11*
X137197500Y-81529800D03*
%TD*%
D15*
%TO.C,D34*%
X171096240Y-145288010D03*
X170132059Y-146437077D03*
D16*
X166225232Y-143158860D03*
D15*
X167189413Y-142009793D03*
%TD*%
D10*
%TO.C,D64*%
X145049127Y-105231064D03*
X141749127Y-105231064D03*
%TD*%
D17*
%TO.C,D25*%
X126347153Y-135397863D03*
X125834123Y-136807402D03*
D18*
X121041691Y-135063099D03*
D17*
X121554721Y-133653560D03*
%TD*%
D10*
%TO.C,D63*%
X145049127Y-87274064D03*
X141749127Y-87274064D03*
%TD*%
D11*
%TO.C,D8*%
X70147500Y-98529800D03*
X70147500Y-100029800D03*
D12*
X65047500Y-100029800D03*
D11*
X65047500Y-98529800D03*
%TD*%
%TO.C,D4*%
X49960000Y-115529800D03*
X49960000Y-117029800D03*
D12*
X44860000Y-117029800D03*
D11*
X44860000Y-115529800D03*
%TD*%
D10*
%TO.C,D48*%
X91049127Y-85231064D03*
X87749127Y-85231064D03*
%TD*%
D11*
%TO.C,D22*%
X124147500Y-78529800D03*
X124147500Y-80029800D03*
D12*
X119047500Y-80029800D03*
D11*
X119047500Y-78529800D03*
%TD*%
%TO.C,D21*%
X124147500Y-61529800D03*
X124147500Y-63029800D03*
D12*
X119047500Y-63029800D03*
D11*
X119047500Y-61529800D03*
%TD*%
D10*
%TO.C,D62*%
X145199127Y-71231064D03*
X141899127Y-71231064D03*
%TD*%
%TO.C,D50*%
X91049127Y-119231064D03*
X87749127Y-119231064D03*
%TD*%
D11*
%TO.C,D10*%
X70147500Y-132529800D03*
X70147500Y-134029800D03*
D12*
X65047500Y-134029800D03*
D11*
X65047500Y-132529800D03*
%TD*%
D10*
%TO.C,D56*%
X127049127Y-51231064D03*
X123749127Y-51231064D03*
%TD*%
%TO.C,D58*%
X127049127Y-85231064D03*
X123749127Y-85231064D03*
%TD*%
D11*
%TO.C,D16*%
X106147500Y-58529800D03*
X106147500Y-60029800D03*
D12*
X101047500Y-60029800D03*
D11*
X101047500Y-58529800D03*
%TD*%
D10*
%TO.C,D67*%
X163049127Y-86106064D03*
X159749127Y-86106064D03*
%TD*%
%TO.C,D51*%
X109049127Y-48231064D03*
X105749127Y-48231064D03*
%TD*%
D11*
%TO.C,D26*%
X142297500Y-64529800D03*
X142297500Y-66029800D03*
D12*
X137197500Y-66029800D03*
D11*
X137197500Y-64529800D03*
%TD*%
%TO.C,D13*%
X88147500Y-95529800D03*
X88147500Y-97029800D03*
D12*
X83047500Y-97029800D03*
D11*
X83047500Y-95529800D03*
%TD*%
D10*
%TO.C,D53*%
X109049127Y-82231064D03*
X105749127Y-82231064D03*
%TD*%
D19*
%TO.C,R1*%
X165252400Y-61632600D03*
X165252400Y-59982600D03*
%TD*%
D13*
%TO.C,D69*%
X179947666Y-139273132D03*
X177419720Y-137151932D03*
%TD*%
D11*
%TO.C,D17*%
X106147500Y-75529800D03*
X106147500Y-77029800D03*
D12*
X101047500Y-77029800D03*
D11*
X101047500Y-75529800D03*
%TD*%
M02*
