G04 #@! TF.GenerationSoftware,KiCad,Pcbnew,(6.0.5)*
G04 #@! TF.CreationDate,2022-05-24T22:09:51+02:00*
G04 #@! TF.ProjectId,LPKeyboard,4c504b65-7962-46f6-9172-642e6b696361,rev?*
G04 #@! TF.SameCoordinates,Original*
G04 #@! TF.FileFunction,Paste,Bot*
G04 #@! TF.FilePolarity,Positive*
%FSLAX46Y46*%
G04 Gerber Fmt 4.6, Leading zero omitted, Abs format (unit mm)*
G04 Created by KiCad (PCBNEW (6.0.5)) date 2022-05-24 22:09:51*
%MOMM*%
%LPD*%
G01*
G04 APERTURE LIST*
G04 Aperture macros list*
%AMRoundRect*
0 Rectangle with rounded corners*
0 $1 Rounding radius*
0 $2 $3 $4 $5 $6 $7 $8 $9 X,Y pos of 4 corners*
0 Add a 4 corners polygon primitive as box body*
4,1,4,$2,$3,$4,$5,$6,$7,$8,$9,$2,$3,0*
0 Add four circle primitives for the rounded corners*
1,1,$1+$1,$2,$3*
1,1,$1+$1,$4,$5*
1,1,$1+$1,$6,$7*
1,1,$1+$1,$8,$9*
0 Add four rect primitives between the rounded corners*
20,1,$1+$1,$2,$3,$4,$5,0*
20,1,$1+$1,$4,$5,$6,$7,0*
20,1,$1+$1,$6,$7,$8,$9,0*
20,1,$1+$1,$8,$9,$2,$3,0*%
%AMRotRect*
0 Rectangle, with rotation*
0 The origin of the aperture is its center*
0 $1 length*
0 $2 width*
0 $3 Rotation angle, in degrees counterclockwise*
0 Add horizontal line*
21,1,$1,$2,0,0,$3*%
G04 Aperture macros list end*
%ADD10R,1.700000X0.820000*%
%ADD11RoundRect,0.205000X0.645000X0.205000X-0.645000X0.205000X-0.645000X-0.205000X0.645000X-0.205000X0*%
%ADD12R,0.900000X1.200000*%
%ADD13RotRect,0.900000X1.200000X140.000000*%
%ADD14RotRect,1.700000X0.820000X140.000000*%
%ADD15RoundRect,0.205000X0.625870X-0.257559X-0.362327X0.571637X-0.625870X0.257559X0.362327X-0.571637X0*%
%ADD16RotRect,1.700000X0.820000X160.000000*%
%ADD17RoundRect,0.205000X0.676216X-0.027966X-0.535988X0.413240X-0.676216X0.027966X0.535988X-0.413240X0*%
%ADD18RoundRect,0.200000X0.275000X-0.200000X0.275000X0.200000X-0.275000X0.200000X-0.275000X-0.200000X0*%
%ADD19RotRect,0.900000X1.200000X160.000000*%
G04 APERTURE END LIST*
D10*
X124142764Y-114027565D03*
X124142764Y-112527565D03*
D11*
X119042764Y-112527565D03*
D10*
X119042764Y-114027565D03*
X49955264Y-66027565D03*
X49955264Y-64527565D03*
D11*
X44855264Y-64527565D03*
D10*
X44855264Y-66027565D03*
D12*
X91057500Y-68214400D03*
X87757500Y-68214400D03*
X127057500Y-51214400D03*
X123757500Y-51214400D03*
X73057500Y-54214400D03*
X69757500Y-54214400D03*
D10*
X70142764Y-134027565D03*
X70142764Y-132527565D03*
D11*
X65042764Y-132527565D03*
D10*
X65042764Y-134027565D03*
D12*
X127057500Y-68214400D03*
X123757500Y-68214400D03*
X73057500Y-122214400D03*
X69757500Y-122214400D03*
D10*
X142292764Y-66027565D03*
X142292764Y-64527565D03*
D11*
X137192764Y-64527565D03*
D10*
X137192764Y-66027565D03*
X124142764Y-63027565D03*
X124142764Y-61527565D03*
D11*
X119042764Y-61527565D03*
D10*
X119042764Y-63027565D03*
D12*
X109057500Y-48214400D03*
X105757500Y-48214400D03*
X52870000Y-105214400D03*
X49570000Y-105214400D03*
D10*
X88142764Y-80027565D03*
X88142764Y-78527565D03*
D11*
X83042764Y-78527565D03*
D10*
X83042764Y-80027565D03*
D12*
X91057500Y-85214400D03*
X87757500Y-85214400D03*
X127057500Y-102214400D03*
X123757500Y-102214400D03*
D13*
X155239850Y-140709047D03*
X152711904Y-138587847D03*
D12*
X52870000Y-54214400D03*
X49570000Y-54214400D03*
D10*
X70142764Y-66027565D03*
X70142764Y-64527565D03*
D11*
X65042764Y-64527565D03*
D10*
X65042764Y-66027565D03*
X106142764Y-94027565D03*
X106142764Y-92527565D03*
D11*
X101042764Y-92527565D03*
D10*
X101042764Y-94027565D03*
D12*
X73057500Y-71214400D03*
X69757500Y-71214400D03*
D10*
X124142764Y-80027565D03*
X124142764Y-78527565D03*
D11*
X119042764Y-78527565D03*
D10*
X119042764Y-80027565D03*
X88142764Y-97027565D03*
X88142764Y-95527565D03*
D11*
X83042764Y-95527565D03*
D10*
X83042764Y-97027565D03*
X124142764Y-97027565D03*
X124142764Y-95527565D03*
D11*
X119042764Y-95527565D03*
D10*
X119042764Y-97027565D03*
D12*
X145207500Y-71214400D03*
X141907500Y-71214400D03*
D10*
X106142764Y-60027565D03*
X106142764Y-58527565D03*
D11*
X101042764Y-58527565D03*
D10*
X101042764Y-60027565D03*
X88142764Y-63027565D03*
X88142764Y-61527565D03*
D11*
X83042764Y-61527565D03*
D10*
X83042764Y-63027565D03*
D12*
X91057500Y-119214400D03*
X87757500Y-119214400D03*
D10*
X106142764Y-111027565D03*
X106142764Y-109527565D03*
D11*
X101042764Y-109527565D03*
D10*
X101042764Y-111027565D03*
D12*
X163057500Y-86089400D03*
X159757500Y-86089400D03*
D10*
X106142764Y-77027565D03*
X106142764Y-75527565D03*
D11*
X101042764Y-75527565D03*
D10*
X101042764Y-77027565D03*
D12*
X91057500Y-51214400D03*
X87757500Y-51214400D03*
D10*
X49955264Y-83027565D03*
X49955264Y-81527565D03*
D11*
X44855264Y-81527565D03*
D10*
X44855264Y-83027565D03*
D12*
X163057500Y-69089400D03*
X159757500Y-69089400D03*
D10*
X70142764Y-83027565D03*
X70142764Y-81527565D03*
D11*
X65042764Y-81527565D03*
D10*
X65042764Y-83027565D03*
X49955264Y-117027565D03*
X49955264Y-115527565D03*
D11*
X44855264Y-115527565D03*
D10*
X44855264Y-117027565D03*
D14*
X159199932Y-159457598D03*
X160164113Y-158308531D03*
D15*
X156257286Y-155030314D03*
D14*
X155293105Y-156179381D03*
D16*
X125829387Y-136805167D03*
X126342417Y-135395628D03*
D17*
X121549985Y-133651325D03*
D16*
X121036955Y-135060864D03*
D12*
X73057500Y-88214400D03*
X69757500Y-88214400D03*
D10*
X70142764Y-100027565D03*
X70142764Y-98527565D03*
D11*
X65042764Y-98527565D03*
D10*
X65042764Y-100027565D03*
D12*
X109057500Y-116214400D03*
X105757500Y-116214400D03*
X145057500Y-87257400D03*
X141757500Y-87257400D03*
D14*
X170127323Y-146434842D03*
X171091504Y-145285775D03*
D15*
X167184677Y-142007558D03*
D14*
X166220496Y-143156625D03*
X145411133Y-147887421D03*
X146375314Y-146738354D03*
D15*
X142468487Y-143460137D03*
D14*
X141504306Y-144609204D03*
D10*
X88142764Y-114027565D03*
X88142764Y-112527565D03*
D11*
X83042764Y-112527565D03*
D10*
X83042764Y-114027565D03*
D13*
X169028649Y-152279223D03*
X166500703Y-150158023D03*
D12*
X127057500Y-85214400D03*
X123757500Y-85214400D03*
D10*
X52142764Y-134027565D03*
X52142764Y-132527565D03*
D11*
X47042764Y-132527565D03*
D10*
X47042764Y-134027565D03*
D18*
X165252400Y-61632600D03*
X165252400Y-59982600D03*
D12*
X73057500Y-105214400D03*
X69757500Y-105214400D03*
X55057500Y-122214400D03*
X51757500Y-122214400D03*
X52870000Y-88214400D03*
X49570000Y-88214400D03*
X52870000Y-71214400D03*
X49570000Y-71214400D03*
D10*
X142142764Y-99070565D03*
X142142764Y-97570565D03*
D11*
X137042764Y-97570565D03*
D10*
X137042764Y-99070565D03*
X160142764Y-80902565D03*
X160142764Y-79402565D03*
D11*
X155042764Y-79402565D03*
D10*
X155042764Y-80902565D03*
D12*
X109057500Y-99214400D03*
X105757500Y-99214400D03*
X91057500Y-102214400D03*
X87757500Y-102214400D03*
D13*
X166167239Y-127686291D03*
X163639293Y-125565091D03*
D10*
X106142764Y-128027565D03*
X106142764Y-126527565D03*
D11*
X101042764Y-126527565D03*
D10*
X101042764Y-128027565D03*
D12*
X109057500Y-82214400D03*
X105757500Y-82214400D03*
D10*
X70142764Y-117027565D03*
X70142764Y-115527565D03*
D11*
X65042764Y-115527565D03*
D10*
X65042764Y-117027565D03*
X160142764Y-97902565D03*
X160142764Y-96402565D03*
D11*
X155042764Y-96402565D03*
D10*
X155042764Y-97902565D03*
X49955264Y-100027565D03*
X49955264Y-98527565D03*
D11*
X44855264Y-98527565D03*
D10*
X44855264Y-100027565D03*
D12*
X145207500Y-54214400D03*
X141907500Y-54214400D03*
X145057500Y-105214400D03*
X141757500Y-105214400D03*
D10*
X142142764Y-117027565D03*
X142142764Y-115527565D03*
D11*
X137042764Y-115527565D03*
D10*
X137042764Y-117027565D03*
X142292764Y-83027565D03*
X142292764Y-81527565D03*
D11*
X137192764Y-81527565D03*
D10*
X137192764Y-83027565D03*
D12*
X109057500Y-65214400D03*
X105757500Y-65214400D03*
D19*
X132609734Y-126699836D03*
X129508748Y-125571170D03*
D10*
X88142764Y-131027565D03*
X88142764Y-129527565D03*
D11*
X83042764Y-129527565D03*
D10*
X83042764Y-131027565D03*
D14*
X156338522Y-134864664D03*
X157302703Y-133715597D03*
D15*
X153395876Y-130437380D03*
D14*
X152431695Y-131586447D03*
D13*
X179956039Y-139256468D03*
X177428093Y-137135268D03*
M02*
