M48
; DRILL file {KiCad (6.0.5)} date Tue 24 May 2022 10:08:36 PM CEST
; FORMAT={-:-/ absolute / inch / decimal}
; #@! TF.CreationDate,2022-05-24T22:08:36+02:00
; #@! TF.GenerationSoftware,Kicad,Pcbnew,(6.0.5)
; #@! TF.FileFunction,NonPlated,1,2,NPTH
FMAT,2
INCH
; #@! TA.AperFunction,NonPlated,NPTH,ComponentDrill
T1C0.0315
; #@! TA.AperFunction,NonPlated,NPTH,ComponentDrill
T2C0.0748
; #@! TA.AperFunction,NonPlated,NPTH,ComponentDrill
T3C0.1339
%
G90
G05
T1
X6.025Y-2.1617
X6.025Y-2.4373
X6.2064Y-2.1619
X6.2064Y-2.4375
T2
X1.65Y-2.3844
X1.65Y-3.0537
X1.65Y-3.723
X1.65Y-4.3923
X1.7361Y-5.0616
X2.0831Y-2.3844
X2.0831Y-3.0537
X2.0831Y-3.723
X2.0831Y-4.3923
X2.1692Y-5.0616
X2.4448Y-2.3844
X2.4448Y-3.0537
X2.4448Y-3.723
X2.4448Y-4.3923
X2.4448Y-5.0616
X2.8779Y-2.3844
X2.8779Y-3.0537
X2.8779Y-3.723
X2.8779Y-4.3923
X2.8779Y-5.0616
X3.1534Y-2.2663
X3.1534Y-2.9356
X3.1534Y-3.6049
X3.1534Y-4.2742
X3.1534Y-4.9435
X3.5865Y-2.2663
X3.5865Y-2.9356
X3.5865Y-3.6049
X3.5865Y-4.2742
X3.5865Y-4.9435
X3.8621Y-2.1482
X3.8621Y-2.8175
X3.8621Y-3.4868
X3.8621Y-4.1561
X3.8621Y-4.8254
X4.2952Y-2.1482
X4.2952Y-2.8175
X4.2952Y-3.4868
X4.2952Y-4.1561
X4.2952Y-4.8254
X4.5708Y-2.2663
X4.5708Y-2.9356
X4.5708Y-3.6049
X4.5708Y-4.2742
X4.7299Y-5.0755
X5.0038Y-2.2663
X5.0038Y-2.9356
X5.0038Y-3.6049
X5.0038Y-4.2742
X5.1368Y-5.2236
X5.2794Y-2.3844
X5.2794Y-3.0537
X5.2794Y-3.723
X5.2794Y-4.3923
X5.6206Y-5.4539
X5.7125Y-2.3844
X5.7125Y-3.0537
X5.7125Y-3.723
X5.7125Y-4.3923
X5.9523Y-5.7322
X5.9881Y-2.9701
X5.9881Y-3.6393
X6.0508Y-4.9412
X6.1634Y-5.9094
X6.3825Y-5.2195
X6.4212Y-2.9701
X6.4212Y-3.6393
X6.4952Y-6.1878
X6.5936Y-5.3967
X6.9254Y-5.6751
T3
X1.8665Y-2.3844
X1.8665Y-3.0537
X1.8665Y-3.723
X1.8665Y-4.3923
X1.9527Y-5.0616
X2.6613Y-2.3844
X2.6613Y-3.0537
X2.6613Y-3.723
X2.6613Y-4.3923
X2.6613Y-5.0616
X3.37Y-2.2663
X3.37Y-2.9356
X3.37Y-3.6049
X3.37Y-4.2742
X3.37Y-4.9435
X4.0786Y-2.1482
X4.0786Y-2.8175
X4.0786Y-3.4868
X4.0786Y-4.1561
X4.0786Y-4.8254
X4.7873Y-2.2663
X4.7873Y-2.9356
X4.7873Y-3.6049
X4.7873Y-4.2742
X4.9334Y-5.1496
X5.496Y-2.3844
X5.496Y-3.0537
X5.496Y-3.723
X5.496Y-4.3923
X5.7864Y-5.5931
X6.2046Y-2.9701
X6.2046Y-3.6393
X6.2167Y-5.0804
X6.3293Y-6.0486
X6.7595Y-5.5359
T0
M30
