M48
; DRILL file {KiCad (6.0.5)} date Mon 20 Jun 2022 01:21:08 AM CEST
; FORMAT={-:-/ absolute / metric / decimal}
; #@! TF.CreationDate,2022-06-20T01:21:08+02:00
; #@! TF.GenerationSoftware,Kicad,Pcbnew,(6.0.5)
; #@! TF.FileFunction,Plated,1,2,PTH
FMAT,2
METRIC
; #@! TA.AperFunction,Plated,PTH,ViaDrill
T1C0.400
; #@! TA.AperFunction,Plated,PTH,ComponentDrill
T2C0.900
; #@! TA.AperFunction,Plated,PTH,ComponentDrill
T3C1.000
; #@! TA.AperFunction,Plated,PTH,ComponentDrill
T4C1.100
; #@! TA.AperFunction,Plated,PTH,ComponentDrill
T5C1.200
%
G90
G05
T1
X39.624Y-68.58
X40.64Y-63.754
X42.154Y-66.03
X42.718Y-100.03
X42.736Y-117.03
X43.18Y-81.79
X43.18Y-113.792
X44.069Y-96.647
X44.45Y-62.738
X44.704Y-79.756
X44.935Y-132.357
X46.99Y-130.81
X49.456Y-105.336
X49.529Y-88.264
X49.562Y-54.231
X49.562Y-71.231
X50.546Y-62.992
X50.8Y-113.792
X51.562Y-97.282
X51.748Y-122.233
X51.9Y-66.03
X51.9Y-83.03
X51.9Y-117.03
X52.024Y-100.03
X52.862Y-71.231
X52.862Y-88.231
X52.862Y-105.231
X52.911Y-54.181
X53.34Y-130.81
X54.184Y-134.03
X54.356Y-84.328
X55.049Y-122.231
X55.372Y-67.564
X55.626Y-64.516
X56.388Y-118.364
X56.642Y-115.316
X61.986Y-66.03
X62.148Y-134.03
X62.166Y-117.03
X62.456Y-83.03
X62.692Y-100.03
X63.5Y-113.792
X63.754Y-79.756
X64.008Y-130.556
X64.262Y-62.992
X64.262Y-96.774
X69.71Y-105.27
X69.749Y-54.231
X69.749Y-71.231
X69.749Y-88.231
X69.749Y-122.231
X70.358Y-62.992
X70.866Y-114.046
X70.866Y-130.302
X71.12Y-96.266
X72.909Y-54.091
X72.956Y-132.53
X72.982Y-71.163
X73.049Y-88.231
X73.049Y-105.231
X73.049Y-122.231
X73.13Y-98.53
X73.138Y-64.53
X73.148Y-81.53
X73.192Y-115.53
X74.168Y-83.566
X78.218Y-64.53
X79.19Y-132.53
X79.734Y-98.53
X80.006Y-81.53
X80.05Y-115.53
X81.28Y-76.962
X81.28Y-94.488
X81.28Y-110.998
X82.296Y-127.762
X82.55Y-59.944
X87.615Y-119.365
X87.688Y-102.293
X87.749Y-51.231
X87.749Y-68.231
X87.749Y-85.231
X88.392Y-59.944
X89.154Y-93.472
X89.154Y-110.49
X89.154Y-127.762
X90.929Y-102.111
X91.002Y-119.183
X91.029Y-51.211
X91.049Y-68.231
X91.315Y-84.965
X91.396Y-78.53
X91.502Y-61.53
X91.668Y-95.53
X91.686Y-112.53
X91.938Y-129.53
X92.71Y-80.264
X96.764Y-129.53
X97.22Y-61.53
X97.544Y-112.53
X97.58Y-78.53
X97.764Y-95.53
X98.806Y-91.948
X98.806Y-108.204
X99.568Y-73.66
X100.076Y-124.46
X100.33Y-56.896
X105.593Y-116.388
X105.749Y-48.231
X105.749Y-65.231
X105.749Y-82.231
X105.749Y-99.231
X106.68Y-56.896
X106.934Y-107.442
X107.188Y-90.932
X107.188Y-124.714
X107.976Y-59.918
X107.994Y-93.936
X108.458Y-79.756
X108.747Y-77.689
X108.765Y-111.707
X109.049Y-65.231
X109.049Y-82.231
X109.049Y-99.231
X109.149Y-48.331
X109.194Y-116.231
X109.944Y-126.53
X115.554Y-114.03
X116.04Y-63.03
X116.076Y-97.03
X116.098Y-80.03
X117.094Y-94.234
X117.602Y-110.744
X118.618Y-59.944
X118.846Y-132.868
X118.872Y-76.708
X121.666Y-131.826
X123.749Y-51.231
X123.749Y-68.231
X123.749Y-85.231
X123.749Y-102.231
X124.714Y-59.69
X124.968Y-110.744
X125.476Y-93.726
X126.144Y-63.086
X126.162Y-97.104
X126.238Y-82.042
X126.407Y-80.349
X126.552Y-114.494
X126.882Y-68.063
X127.027Y-102.208
X127.049Y-51.231
X127.049Y-85.231
X127.508Y-133.604
X129.5Y-125.588
X129.778Y-135.398
X132.601Y-126.716
X133.985Y-128.27
X134.14Y-83.03
X134.176Y-117.03
X134.61Y-66.03
X134.62Y-124.46
X134.923Y-100.027
X135.382Y-97.282
X135.382Y-113.792
X136.398Y-62.738
X136.398Y-79.502
X139.673Y-142.775
X141.54Y-71.69
X141.749Y-87.274
X141.749Y-105.231
X141.899Y-54.231
X142.748Y-113.792
X143.002Y-62.738
X143.256Y-96.52
X143.256Y-141.732
X143.332Y-117.937
X144.077Y-100.017
X144.142Y-82.934
X144.272Y-84.582
X145.004Y-105.186
X145.049Y-71.48
X145.049Y-87.274
X145.207Y-54.214
X145.242Y-66.086
X147.32Y-88.9
X147.32Y-107.315
X147.826Y-145.288
X147.955Y-90.805
X148.537Y-148.897
X148.59Y-72.39
X148.59Y-107.315
X148.59Y-109.855
X150.495Y-83.82
X150.496Y-88.264
X150.622Y-129.774
X151.13Y-69.85
X151.13Y-77.216
X151.611Y-86.124
X152.4Y-79.248
X152.704Y-138.605
X152.855Y-153.215
X153.446Y-96.744
X153.67Y-106.045
X153.67Y-109.855
X153.883Y-78.019
X153.924Y-129.032
X154.686Y-94.488
X154.94Y-76.454
X154.94Y-111.125
X155.231Y-140.726
X155.575Y-104.14
X155.758Y-136.052
X156.972Y-153.416
X157.988Y-136.652
X159.004Y-133.096
X159.385Y-85.906
X160.02Y-69.215
X160.274Y-82.804
X160.782Y-99.822
X160.782Y-140.462
X161.29Y-94.488
X161.29Y-137.922
X161.29Y-157.226
X161.292Y-160.526
X161.798Y-59.69
X162.052Y-56.896
X162.306Y-77.978
X162.306Y-80.01
X162.306Y-161.544
X162.56Y-98.298
X163.058Y-86.089
X163.321Y-69.089
X163.487Y-125.438
X164.568Y-141.502
X165.252Y-59.983
X165.252Y-61.633
X165.862Y-68.834
X166.37Y-127.635
X166.492Y-150.175
X166.878Y-71.628
X167.64Y-89.535
X167.894Y-140.716
X169.02Y-152.296
X171.7Y-147.832
X172.974Y-144.272
X177.296Y-137.029
X179.948Y-139.273
X180.644Y-70.789
X182.245Y-65.405
X182.245Y-85.09
X183.515Y-57.785
T3
X170.825Y-60.432
X170.825Y-62.972
X170.825Y-65.513
X170.825Y-68.052
X170.825Y-70.593
X170.825Y-73.132
X170.825Y-75.672
X170.825Y-78.212
X170.825Y-80.752
X170.825Y-83.292
X170.825Y-85.832
X170.825Y-88.373
X186.065Y-60.432
X186.065Y-62.972
X186.065Y-65.513
X186.065Y-68.052
X186.065Y-70.593
X186.065Y-73.132
X186.065Y-75.672
X186.065Y-78.212
X186.065Y-80.752
X186.065Y-83.292
X186.065Y-85.832
X186.065Y-88.373
T4
X174.144Y-109.815
X174.144Y-109.815
X174.144Y-114.315
X174.144Y-114.315
X180.644Y-109.815
X180.644Y-109.815
X180.644Y-114.315
X180.644Y-114.315
T5
X42.41Y-56.764
X42.41Y-73.764
X42.41Y-90.764
X42.41Y-107.764
X44.597Y-124.764
X47.41Y-54.664
X47.41Y-71.664
X47.41Y-88.664
X47.41Y-105.664
X49.597Y-122.664
X52.41Y-56.764
X52.41Y-73.764
X52.41Y-90.764
X52.41Y-107.764
X54.597Y-124.764
X62.597Y-56.764
X62.597Y-73.764
X62.597Y-90.764
X62.597Y-107.764
X62.597Y-124.764
X67.597Y-54.664
X67.597Y-71.664
X67.597Y-88.664
X67.597Y-105.664
X67.597Y-122.664
X72.597Y-56.764
X72.597Y-73.764
X72.597Y-90.764
X72.597Y-107.764
X72.597Y-124.764
X80.597Y-53.764
X80.597Y-70.764
X80.597Y-87.764
X80.597Y-104.764
X80.597Y-121.764
X85.597Y-51.664
X85.597Y-68.664
X85.597Y-85.664
X85.597Y-102.664
X85.597Y-119.664
X90.597Y-53.764
X90.597Y-70.764
X90.597Y-87.764
X90.597Y-104.764
X90.597Y-121.764
X98.597Y-50.764
X98.597Y-67.764
X98.597Y-84.764
X98.597Y-101.764
X98.597Y-118.764
X103.597Y-48.664
X103.597Y-65.664
X103.597Y-82.664
X103.597Y-99.664
X103.597Y-116.664
X108.597Y-50.764
X108.597Y-67.764
X108.597Y-84.764
X108.597Y-101.764
X108.597Y-118.764
X116.597Y-53.764
X116.597Y-70.764
X116.597Y-87.764
X116.597Y-104.764
X121.597Y-51.664
X121.597Y-68.664
X121.597Y-85.664
X121.597Y-102.664
X121.908Y-125.519
X126.597Y-53.764
X126.597Y-70.764
X126.597Y-87.764
X126.597Y-104.764
X127.325Y-125.255
X131.305Y-128.939
X134.597Y-56.764
X134.597Y-73.764
X134.597Y-90.764
X134.597Y-107.764
X139.597Y-54.664
X139.597Y-71.664
X139.597Y-88.664
X139.597Y-105.664
X144.597Y-56.764
X144.597Y-73.764
X144.597Y-90.764
X144.597Y-107.764
X145.588Y-135.939
X150.768Y-137.544
X152.597Y-71.639
X152.597Y-88.639
X153.248Y-142.367
X156.515Y-122.916
X157.597Y-69.539
X157.597Y-86.539
X159.377Y-147.509
X161.695Y-124.521
X162.597Y-71.639
X162.597Y-88.639
X164.176Y-129.344
X164.557Y-149.114
X167.037Y-153.937
X170.304Y-134.486
X175.484Y-136.092
X177.965Y-140.914
T2
X150.735Y-64.407G85X150.735Y-64.807
G05
X155.335Y-56.307G85X155.335Y-56.707
G05
X155.335Y-59.307G85X155.335Y-59.707
G05
X155.335Y-63.307G85X155.335Y-63.707
G05
X155.343Y-56.712G85X155.343Y-56.312
G05
X155.343Y-59.712G85X155.343Y-59.312
G05
X155.343Y-63.712G85X155.343Y-63.312
G05
X159.943Y-64.812G85X159.943Y-64.412
G05
T0
M30
