G04 #@! TF.GenerationSoftware,KiCad,Pcbnew,(6.0.5)*
G04 #@! TF.CreationDate,2022-06-20T01:21:13+02:00*
G04 #@! TF.ProjectId,LPKeyboard,4c504b65-7962-46f6-9172-642e6b696361,rev?*
G04 #@! TF.SameCoordinates,Original*
G04 #@! TF.FileFunction,Profile,NP*
%FSLAX46Y46*%
G04 Gerber Fmt 4.6, Leading zero omitted, Abs format (unit mm)*
G04 Created by KiCad (PCBNEW (6.0.5)) date 2022-06-20 01:21:13*
%MOMM*%
%LPD*%
G01*
G04 APERTURE LIST*
G04 #@! TA.AperFunction,Profile*
%ADD10C,0.100000*%
G04 #@! TD*
G04 #@! TA.AperFunction,Profile*
%ADD11C,0.120000*%
G04 #@! TD*
G04 APERTURE END LIST*
D10*
X115570000Y-48895000D02*
X112395000Y-45720000D01*
X132715000Y-50800000D02*
X130810000Y-48895000D01*
X160655000Y-50800000D02*
X132715000Y-50800000D01*
X94615000Y-45720000D02*
X91440000Y-48895000D01*
X91440000Y-48895000D02*
X76835000Y-48895000D01*
X169545000Y-55880000D02*
X160655000Y-50800000D01*
X40640000Y-124460000D02*
X40640000Y-137160000D01*
X162560000Y-166370000D02*
X185420000Y-139700000D01*
X73660000Y-52070000D02*
X36195000Y-52070000D01*
X130810000Y-48895000D02*
X115570000Y-48895000D01*
X185420000Y-139700000D02*
X187960000Y-92075000D01*
X112395000Y-45720000D02*
X94615000Y-45720000D01*
X187960000Y-55880000D02*
X169545000Y-55880000D01*
X36195000Y-52070000D02*
X36195000Y-120015000D01*
X36195000Y-120015000D02*
X40640000Y-124460000D01*
X187960000Y-92075000D02*
X187960000Y-55880000D01*
X76835000Y-137160000D02*
X80010000Y-133985000D01*
X76835000Y-48895000D02*
X73660000Y-52070000D01*
X80010000Y-133985000D02*
X109220000Y-133985000D01*
X40640000Y-137160000D02*
X76835000Y-137160000D01*
X109220000Y-133985000D02*
X135255000Y-143510000D01*
X135255000Y-143510000D02*
X162560000Y-166370000D01*
D11*
X45710000Y-63779800D02*
X49110000Y-63779800D01*
X49110000Y-66779800D02*
X45710000Y-66779800D01*
X49110000Y-63779800D02*
X49110000Y-66779800D01*
X45710000Y-66779800D02*
X45710000Y-63779800D01*
X137897500Y-97777400D02*
X141297500Y-97777400D01*
X141297500Y-100777400D02*
X137897500Y-100777400D01*
X141297500Y-97777400D02*
X141297500Y-100777400D01*
X137897500Y-100777400D02*
X137897500Y-97777400D01*
X119897500Y-94779800D02*
X123297500Y-94779800D01*
X123297500Y-97779800D02*
X119897500Y-97779800D01*
X123297500Y-94779800D02*
X123297500Y-97779800D01*
X119897500Y-97779800D02*
X119897500Y-94779800D01*
X83897500Y-60779800D02*
X87297500Y-60779800D01*
X87297500Y-63779800D02*
X83897500Y-63779800D01*
X87297500Y-60779800D02*
X87297500Y-63779800D01*
X83897500Y-63779800D02*
X83897500Y-60779800D01*
X45710000Y-97779800D02*
X49110000Y-97779800D01*
X49110000Y-100779800D02*
X45710000Y-100779800D01*
X49110000Y-97779800D02*
X49110000Y-100779800D01*
X45710000Y-100779800D02*
X45710000Y-97779800D01*
X155897500Y-78654800D02*
X159297500Y-78654800D01*
X159297500Y-81654800D02*
X155897500Y-81654800D01*
X159297500Y-78654800D02*
X159297500Y-81654800D01*
X155897500Y-81654800D02*
X155897500Y-78654800D01*
X137897500Y-114779800D02*
X141297500Y-114779800D01*
X141297500Y-117779800D02*
X137897500Y-117779800D01*
X141297500Y-114779800D02*
X141297500Y-117779800D01*
X137897500Y-117779800D02*
X137897500Y-114779800D01*
X83897500Y-77779800D02*
X87297500Y-77779800D01*
X87297500Y-80779800D02*
X83897500Y-80779800D01*
X87297500Y-77779800D02*
X87297500Y-80779800D01*
X83897500Y-80779800D02*
X83897500Y-77779800D01*
X65897500Y-114779800D02*
X69297500Y-114779800D01*
X69297500Y-117779800D02*
X65897500Y-117779800D01*
X69297500Y-114779800D02*
X69297500Y-117779800D01*
X65897500Y-117779800D02*
X65897500Y-114779800D01*
X65897500Y-63779800D02*
X69297500Y-63779800D01*
X69297500Y-66779800D02*
X65897500Y-66779800D01*
X69297500Y-63779800D02*
X69297500Y-66779800D01*
X65897500Y-66779800D02*
X65897500Y-63779800D01*
X101897500Y-91779800D02*
X105297500Y-91779800D01*
X105297500Y-94779800D02*
X101897500Y-94779800D01*
X105297500Y-91779800D02*
X105297500Y-94779800D01*
X101897500Y-94779800D02*
X101897500Y-91779800D01*
X154533841Y-130411451D02*
X157138392Y-132596929D01*
X155210029Y-134895063D02*
X152605478Y-132709585D01*
X157138392Y-132596929D02*
X155210029Y-134895063D01*
X152605478Y-132709585D02*
X154533841Y-130411451D01*
X119897500Y-111779800D02*
X123297500Y-111779800D01*
X123297500Y-114779800D02*
X119897500Y-114779800D01*
X123297500Y-111779800D02*
X123297500Y-114779800D01*
X119897500Y-114779800D02*
X119897500Y-111779800D01*
X83897500Y-111779800D02*
X87297500Y-111779800D01*
X87297500Y-114779800D02*
X83897500Y-114779800D01*
X87297500Y-111779800D02*
X87297500Y-114779800D01*
X83897500Y-114779800D02*
X83897500Y-111779800D01*
X101897500Y-125779800D02*
X105297500Y-125779800D01*
X105297500Y-128779800D02*
X101897500Y-128779800D01*
X105297500Y-125779800D02*
X105297500Y-128779800D01*
X101897500Y-128779800D02*
X101897500Y-125779800D01*
X101897500Y-108779800D02*
X105297500Y-108779800D01*
X105297500Y-111779800D02*
X101897500Y-111779800D01*
X105297500Y-108779800D02*
X105297500Y-111779800D01*
X101897500Y-111779800D02*
X101897500Y-108779800D01*
X47897500Y-131779800D02*
X51297500Y-131779800D01*
X51297500Y-134779800D02*
X47897500Y-134779800D01*
X51297500Y-131779800D02*
X51297500Y-134779800D01*
X47897500Y-134779800D02*
X47897500Y-131779800D01*
X45710000Y-80779800D02*
X49110000Y-80779800D01*
X49110000Y-83779800D02*
X45710000Y-83779800D01*
X49110000Y-80779800D02*
X49110000Y-83779800D01*
X45710000Y-83779800D02*
X45710000Y-80779800D01*
X143606452Y-143434208D02*
X146211003Y-145619686D01*
X144282640Y-147917820D02*
X141678089Y-145732342D01*
X146211003Y-145619686D02*
X144282640Y-147917820D01*
X141678089Y-145732342D02*
X143606452Y-143434208D01*
X65897500Y-80779800D02*
X69297500Y-80779800D01*
X69297500Y-83779800D02*
X65897500Y-83779800D01*
X69297500Y-80779800D02*
X69297500Y-83779800D01*
X65897500Y-83779800D02*
X65897500Y-80779800D01*
X157395251Y-155004385D02*
X159999802Y-157189863D01*
X158071439Y-159487997D02*
X155466888Y-157302519D01*
X159999802Y-157189863D02*
X158071439Y-159487997D01*
X155466888Y-157302519D02*
X157395251Y-155004385D01*
X83897500Y-128779800D02*
X87297500Y-128779800D01*
X87297500Y-131779800D02*
X83897500Y-131779800D01*
X87297500Y-128779800D02*
X87297500Y-131779800D01*
X83897500Y-131779800D02*
X83897500Y-128779800D01*
X155897500Y-95654800D02*
X159297500Y-95654800D01*
X159297500Y-98654800D02*
X155897500Y-98654800D01*
X159297500Y-95654800D02*
X159297500Y-98654800D01*
X155897500Y-98654800D02*
X155897500Y-95654800D01*
X138047500Y-80779800D02*
X141447500Y-80779800D01*
X141447500Y-83779800D02*
X138047500Y-83779800D01*
X141447500Y-80779800D02*
X141447500Y-83779800D01*
X138047500Y-83779800D02*
X138047500Y-80779800D01*
X168322642Y-141981629D02*
X170927193Y-144167107D01*
X168998830Y-146465241D02*
X166394279Y-144279763D01*
X170927193Y-144167107D02*
X168998830Y-146465241D01*
X166394279Y-144279763D02*
X168322642Y-141981629D01*
X122609975Y-133239508D02*
X125804930Y-134402376D01*
X124778869Y-137221454D02*
X121583914Y-136058586D01*
X125804930Y-134402376D02*
X124778869Y-137221454D01*
X121583914Y-136058586D02*
X122609975Y-133239508D01*
X65897500Y-97779800D02*
X69297500Y-97779800D01*
X69297500Y-100779800D02*
X65897500Y-100779800D01*
X69297500Y-97779800D02*
X69297500Y-100779800D01*
X65897500Y-100779800D02*
X65897500Y-97779800D01*
X45710000Y-114779800D02*
X49110000Y-114779800D01*
X49110000Y-117779800D02*
X45710000Y-117779800D01*
X49110000Y-114779800D02*
X49110000Y-117779800D01*
X45710000Y-117779800D02*
X45710000Y-114779800D01*
X119897500Y-77779800D02*
X123297500Y-77779800D01*
X123297500Y-80779800D02*
X119897500Y-80779800D01*
X123297500Y-77779800D02*
X123297500Y-80779800D01*
X119897500Y-80779800D02*
X119897500Y-77779800D01*
X119897500Y-60779800D02*
X123297500Y-60779800D01*
X123297500Y-63779800D02*
X119897500Y-63779800D01*
X123297500Y-60779800D02*
X123297500Y-63779800D01*
X119897500Y-63779800D02*
X119897500Y-60779800D01*
X65897500Y-131779800D02*
X69297500Y-131779800D01*
X69297500Y-134779800D02*
X65897500Y-134779800D01*
X69297500Y-131779800D02*
X69297500Y-134779800D01*
X65897500Y-134779800D02*
X65897500Y-131779800D01*
X101897500Y-57779800D02*
X105297500Y-57779800D01*
X105297500Y-60779800D02*
X101897500Y-60779800D01*
X105297500Y-57779800D02*
X105297500Y-60779800D01*
X101897500Y-60779800D02*
X101897500Y-57779800D01*
X138047500Y-63779800D02*
X141447500Y-63779800D01*
X141447500Y-66779800D02*
X138047500Y-66779800D01*
X141447500Y-63779800D02*
X141447500Y-66779800D01*
X138047500Y-66779800D02*
X138047500Y-63779800D01*
X83897500Y-94779800D02*
X87297500Y-94779800D01*
X87297500Y-97779800D02*
X83897500Y-97779800D01*
X87297500Y-94779800D02*
X87297500Y-97779800D01*
X83897500Y-97779800D02*
X83897500Y-94779800D01*
X101897500Y-74779800D02*
X105297500Y-74779800D01*
X105297500Y-77779800D02*
X101897500Y-77779800D01*
X105297500Y-74779800D02*
X105297500Y-77779800D01*
X101897500Y-77779800D02*
X101897500Y-74779800D01*
M02*
