M48
; DRILL file {KiCad (6.0.5)} date Mon 20 Jun 2022 01:21:08 AM CEST
; FORMAT={-:-/ absolute / metric / decimal}
; #@! TF.CreationDate,2022-06-20T01:21:08+02:00
; #@! TF.GenerationSoftware,Kicad,Pcbnew,(6.0.5)
; #@! TF.FileFunction,NonPlated,1,2,NPTH
FMAT,2
METRIC
; #@! TA.AperFunction,NonPlated,NPTH,ComponentDrill
T1C0.800
; #@! TA.AperFunction,NonPlated,NPTH,ComponentDrill
T2C1.900
; #@! TA.AperFunction,NonPlated,NPTH,ComponentDrill
T3C3.400
%
G90
G05
T1
X153.035Y-54.907
X153.035Y-61.907
X157.643Y-54.912
X157.643Y-61.912
T2
X41.91Y-60.564
X41.91Y-77.564
X41.91Y-94.564
X41.91Y-111.564
X44.097Y-128.564
X52.91Y-60.564
X52.91Y-77.564
X52.91Y-94.564
X52.91Y-111.564
X55.097Y-128.564
X62.097Y-60.564
X62.097Y-77.564
X62.097Y-94.564
X62.097Y-111.564
X62.097Y-128.564
X73.097Y-60.564
X73.097Y-77.564
X73.097Y-94.564
X73.097Y-111.564
X73.097Y-128.564
X80.097Y-57.564
X80.097Y-74.564
X80.097Y-91.564
X80.097Y-108.564
X80.097Y-125.564
X91.097Y-57.564
X91.097Y-74.564
X91.097Y-91.564
X91.097Y-108.564
X91.097Y-125.564
X98.097Y-54.564
X98.097Y-71.564
X98.097Y-88.564
X98.097Y-105.564
X98.097Y-122.564
X109.097Y-54.564
X109.097Y-71.564
X109.097Y-88.564
X109.097Y-105.564
X109.097Y-122.564
X116.097Y-57.564
X116.097Y-74.564
X116.097Y-91.564
X116.097Y-108.564
X120.139Y-128.918
X127.097Y-57.564
X127.097Y-74.564
X127.097Y-91.564
X127.097Y-108.564
X130.475Y-132.681
X134.097Y-60.564
X134.097Y-77.564
X134.097Y-94.564
X134.097Y-111.564
X142.762Y-138.528
X145.097Y-60.564
X145.097Y-77.564
X145.097Y-94.564
X145.097Y-111.564
X151.189Y-145.599
X152.097Y-75.439
X152.097Y-92.439
X153.69Y-125.506
X156.551Y-150.099
X162.116Y-132.576
X163.097Y-75.439
X163.097Y-92.439
X164.978Y-157.169
X167.478Y-137.076
X175.905Y-144.147
T3
X47.41Y-60.564
X47.41Y-77.564
X47.41Y-94.564
X47.41Y-111.564
X49.597Y-128.564
X67.597Y-60.564
X67.597Y-77.564
X67.597Y-94.564
X67.597Y-111.564
X67.597Y-128.564
X85.597Y-57.564
X85.597Y-74.564
X85.597Y-91.564
X85.597Y-108.564
X85.597Y-125.564
X103.597Y-54.564
X103.597Y-71.564
X103.597Y-88.564
X103.597Y-105.564
X103.597Y-122.564
X121.597Y-57.564
X121.597Y-74.564
X121.597Y-91.564
X121.597Y-108.564
X125.307Y-130.799
X139.597Y-60.564
X139.597Y-77.564
X139.597Y-94.564
X139.597Y-111.564
X146.976Y-142.064
X157.597Y-75.439
X157.597Y-92.439
X157.903Y-129.041
X160.764Y-153.634
X171.692Y-140.611
T0
M30
