G04 #@! TF.GenerationSoftware,KiCad,Pcbnew,(6.0.5)*
G04 #@! TF.CreationDate,2022-06-20T01:21:13+02:00*
G04 #@! TF.ProjectId,LPKeyboard,4c504b65-7962-46f6-9172-642e6b696361,rev?*
G04 #@! TF.SameCoordinates,Original*
G04 #@! TF.FileFunction,Soldermask,Bot*
G04 #@! TF.FilePolarity,Negative*
%FSLAX46Y46*%
G04 Gerber Fmt 4.6, Leading zero omitted, Abs format (unit mm)*
G04 Created by KiCad (PCBNEW (6.0.5)) date 2022-06-20 01:21:13*
%MOMM*%
%LPD*%
G01*
G04 APERTURE LIST*
G04 Aperture macros list*
%AMRoundRect*
0 Rectangle with rounded corners*
0 $1 Rounding radius*
0 $2 $3 $4 $5 $6 $7 $8 $9 X,Y pos of 4 corners*
0 Add a 4 corners polygon primitive as box body*
4,1,4,$2,$3,$4,$5,$6,$7,$8,$9,$2,$3,0*
0 Add four circle primitives for the rounded corners*
1,1,$1+$1,$2,$3*
1,1,$1+$1,$4,$5*
1,1,$1+$1,$6,$7*
1,1,$1+$1,$8,$9*
0 Add four rect primitives between the rounded corners*
20,1,$1+$1,$2,$3,$4,$5,0*
20,1,$1+$1,$4,$5,$6,$7,0*
20,1,$1+$1,$6,$7,$8,$9,0*
20,1,$1+$1,$8,$9,$2,$3,0*%
%AMRotRect*
0 Rectangle, with rotation*
0 The origin of the aperture is its center*
0 $1 length*
0 $2 width*
0 $3 Rotation angle, in degrees counterclockwise*
0 Add horizontal line*
21,1,$1,$2,0,0,$3*%
G04 Aperture macros list end*
%ADD10C,1.900000*%
%ADD11C,3.400000*%
%ADD12R,1.600000X1.600000*%
%ADD13O,1.600000X1.600000*%
%ADD14C,2.000000*%
%ADD15C,0.800000*%
%ADD16O,1.600000X2.000000*%
%ADD17R,1.700000X0.820000*%
%ADD18RoundRect,0.205000X-0.645000X-0.205000X0.645000X-0.205000X0.645000X0.205000X-0.645000X0.205000X0*%
%ADD19R,0.900000X1.200000*%
%ADD20RotRect,0.900000X1.200000X140.000000*%
%ADD21RotRect,1.700000X0.820000X320.000000*%
%ADD22RoundRect,0.205000X-0.625870X0.257559X0.362327X-0.571637X0.625870X-0.257559X-0.362327X0.571637X0*%
%ADD23RotRect,1.700000X0.820000X340.000000*%
%ADD24RoundRect,0.205000X-0.676216X0.027966X0.535988X-0.413240X0.676216X-0.027966X-0.535988X0.413240X0*%
%ADD25RoundRect,0.200000X0.275000X-0.200000X0.275000X0.200000X-0.275000X0.200000X-0.275000X-0.200000X0*%
%ADD26RotRect,0.900000X1.200000X160.000000*%
G04 APERTURE END LIST*
D10*
X145097500Y-94564400D03*
X134097500Y-94564400D03*
D11*
X139597500Y-94564400D03*
D10*
X139597500Y-88664400D03*
X134597500Y-90764400D03*
X144597500Y-90764400D03*
X163097500Y-92439400D03*
X152097500Y-92439400D03*
D11*
X157597500Y-92439400D03*
D10*
X157597500Y-86539400D03*
X152597500Y-88639400D03*
X162597500Y-88639400D03*
X127097500Y-74564400D03*
X116097500Y-74564400D03*
D11*
X121597500Y-74564400D03*
D10*
X121597500Y-68664400D03*
X116597500Y-70764400D03*
X126597500Y-70764400D03*
X73097500Y-77564400D03*
X62097500Y-77564400D03*
D11*
X67597500Y-77564400D03*
D10*
X67597500Y-71664400D03*
X62597500Y-73764400D03*
X72597500Y-73764400D03*
X163097500Y-75439400D03*
X152097500Y-75439400D03*
D11*
X157597500Y-75439400D03*
D10*
X157597500Y-69539400D03*
X152597500Y-71639400D03*
X162597500Y-71639400D03*
X109097500Y-54564400D03*
X98097500Y-54564400D03*
D11*
X103597500Y-54564400D03*
D10*
X103597500Y-48664400D03*
X98597500Y-50764400D03*
X108597500Y-50764400D03*
X73097500Y-60564400D03*
X62097500Y-60564400D03*
D11*
X67597500Y-60564400D03*
D10*
X67597500Y-54664400D03*
X62597500Y-56764400D03*
X72597500Y-56764400D03*
X151188790Y-145599140D03*
X142762302Y-138528476D03*
D11*
X146975546Y-142063808D03*
D10*
X150767993Y-137544146D03*
X145587917Y-135938901D03*
X153248361Y-142366777D03*
X109097500Y-105564400D03*
X98097500Y-105564400D03*
D11*
X103597500Y-105564400D03*
D10*
X103597500Y-99664400D03*
X98597500Y-101764400D03*
X108597500Y-101764400D03*
X145097500Y-77564400D03*
X134097500Y-77564400D03*
D11*
X139597500Y-77564400D03*
D10*
X139597500Y-71664400D03*
X134597500Y-73764400D03*
X144597500Y-73764400D03*
D12*
X170825000Y-60432500D03*
D13*
X170825000Y-62972500D03*
X170825000Y-65512500D03*
X170825000Y-68052500D03*
X170825000Y-70592500D03*
X170825000Y-73132500D03*
X170825000Y-75672500D03*
X170825000Y-78212500D03*
X170825000Y-80752500D03*
X170825000Y-83292500D03*
X170825000Y-85832500D03*
X170825000Y-88372500D03*
X186065000Y-88372500D03*
X186065000Y-85832500D03*
X186065000Y-83292500D03*
X186065000Y-80752500D03*
X186065000Y-78212500D03*
X186065000Y-75672500D03*
X186065000Y-73132500D03*
X186065000Y-70592500D03*
X186065000Y-68052500D03*
X186065000Y-65512500D03*
X186065000Y-62972500D03*
X186065000Y-60432500D03*
D10*
X109097500Y-88564400D03*
X98097500Y-88564400D03*
D11*
X103597500Y-88564400D03*
D10*
X103597500Y-82664400D03*
X98597500Y-84764400D03*
X108597500Y-84764400D03*
X109097500Y-122564400D03*
X98097500Y-122564400D03*
D11*
X103597500Y-122564400D03*
D10*
X103597500Y-116664400D03*
X98597500Y-118764400D03*
X108597500Y-118764400D03*
X52910000Y-60564400D03*
X41910000Y-60564400D03*
D11*
X47410000Y-60564400D03*
D10*
X47410000Y-54664400D03*
X42410000Y-56764400D03*
X52410000Y-56764400D03*
X52910000Y-77564400D03*
X41910000Y-77564400D03*
D11*
X47410000Y-77564400D03*
D10*
X47410000Y-71664400D03*
X42410000Y-73764400D03*
X52410000Y-73764400D03*
X91097500Y-125564400D03*
X80097500Y-125564400D03*
D11*
X85597500Y-125564400D03*
D10*
X85597500Y-119664400D03*
X80597500Y-121764400D03*
X90597500Y-121764400D03*
X91097500Y-74564400D03*
X80097500Y-74564400D03*
D11*
X85597500Y-74564400D03*
D10*
X85597500Y-68664400D03*
X80597500Y-70764400D03*
X90597500Y-70764400D03*
X73097500Y-111564400D03*
X62097500Y-111564400D03*
D11*
X67597500Y-111564400D03*
D10*
X67597500Y-105664400D03*
X62597500Y-107764400D03*
X72597500Y-107764400D03*
X162116179Y-132576384D03*
X153689691Y-125505720D03*
D11*
X157902935Y-129041052D03*
D10*
X161695382Y-124521390D03*
X156515306Y-122916145D03*
X164175750Y-129344021D03*
X145097500Y-111564400D03*
X134097500Y-111564400D03*
D11*
X139597500Y-111564400D03*
D10*
X139597500Y-105664400D03*
X134597500Y-107764400D03*
X144597500Y-107764400D03*
X73097500Y-128564400D03*
X62097500Y-128564400D03*
D11*
X67597500Y-128564400D03*
D10*
X67597500Y-122664400D03*
X62597500Y-124764400D03*
X72597500Y-124764400D03*
X127097500Y-91564400D03*
X116097500Y-91564400D03*
D11*
X121597500Y-91564400D03*
D10*
X121597500Y-85664400D03*
X116597500Y-87764400D03*
X126597500Y-87764400D03*
X52910000Y-94564400D03*
X41910000Y-94564400D03*
D11*
X47410000Y-94564400D03*
D10*
X47410000Y-88664400D03*
X42410000Y-90764400D03*
X52410000Y-90764400D03*
X91097500Y-57564400D03*
X80097500Y-57564400D03*
D11*
X85597500Y-57564400D03*
D10*
X85597500Y-51664400D03*
X80597500Y-53764400D03*
X90597500Y-53764400D03*
D14*
X180643600Y-109814800D03*
X174143600Y-109814800D03*
X174143600Y-114314800D03*
X180643600Y-114314800D03*
D10*
X73097500Y-94564400D03*
X62097500Y-94564400D03*
D11*
X67597500Y-94564400D03*
D10*
X67597500Y-88664400D03*
X62597500Y-90764400D03*
X72597500Y-90764400D03*
X127097500Y-108564400D03*
X116097500Y-108564400D03*
D11*
X121597500Y-108564400D03*
D10*
X121597500Y-102664400D03*
X116597500Y-104764400D03*
X126597500Y-104764400D03*
X91097500Y-108564400D03*
X80097500Y-108564400D03*
D11*
X85597500Y-108564400D03*
D10*
X85597500Y-102664400D03*
X80597500Y-104764400D03*
X90597500Y-104764400D03*
X127097500Y-57564400D03*
X116097500Y-57564400D03*
D11*
X121597500Y-57564400D03*
D10*
X121597500Y-51664400D03*
X116597500Y-53764400D03*
X126597500Y-53764400D03*
X52910000Y-111564400D03*
X41910000Y-111564400D03*
D11*
X47410000Y-111564400D03*
D10*
X47410000Y-105664400D03*
X42410000Y-107764400D03*
X52410000Y-107764400D03*
X175904979Y-144146561D03*
X167478491Y-137075897D03*
D11*
X171691735Y-140611229D03*
D10*
X175484182Y-136091567D03*
X170304106Y-134486322D03*
X177964550Y-140914198D03*
X145097500Y-60564400D03*
X134097500Y-60564400D03*
D11*
X139597500Y-60564400D03*
D10*
X139597500Y-54664400D03*
X134597500Y-56764400D03*
X144597500Y-56764400D03*
X109097500Y-71564400D03*
X98097500Y-71564400D03*
D11*
X103597500Y-71564400D03*
D10*
X103597500Y-65664400D03*
X98597500Y-67764400D03*
X108597500Y-67764400D03*
D15*
X153035000Y-61907500D03*
X153035000Y-54907500D03*
D16*
X150735000Y-64607500D03*
X155335000Y-59507500D03*
X155335000Y-56507500D03*
X155335000Y-63507500D03*
D10*
X130475493Y-132680565D03*
X120138875Y-128918343D03*
D11*
X125307184Y-130799454D03*
D10*
X127325103Y-125255268D03*
X121908397Y-125518521D03*
X131305324Y-128938723D03*
X55097500Y-128564400D03*
X44097500Y-128564400D03*
D11*
X49597500Y-128564400D03*
D10*
X49597500Y-122664400D03*
X44597500Y-124764400D03*
X54597500Y-124764400D03*
X164977590Y-157169317D03*
X156551102Y-150098653D03*
D11*
X160764346Y-153633985D03*
D10*
X164556793Y-149114323D03*
X159376717Y-147509078D03*
X167037161Y-153936954D03*
X91097500Y-91564400D03*
X80097500Y-91564400D03*
D11*
X85597500Y-91564400D03*
D10*
X85597500Y-85664400D03*
X80597500Y-87764400D03*
X90597500Y-87764400D03*
D17*
X124142764Y-114027565D03*
D18*
X119042764Y-114027565D03*
D17*
X119042764Y-112527565D03*
X124142764Y-112527565D03*
X49955264Y-66027565D03*
D18*
X44855264Y-66027565D03*
D17*
X44855264Y-64527565D03*
X49955264Y-64527565D03*
D19*
X91057500Y-68214400D03*
X87757500Y-68214400D03*
X127057500Y-51214400D03*
X123757500Y-51214400D03*
D15*
X157642915Y-61911819D03*
X157642915Y-54911819D03*
D16*
X159942915Y-64611819D03*
X155342915Y-59511819D03*
X155342915Y-56511819D03*
X155342915Y-63511819D03*
D19*
X73057500Y-54214400D03*
X69757500Y-54214400D03*
D17*
X70142764Y-134027565D03*
D18*
X65042764Y-134027565D03*
D17*
X65042764Y-132527565D03*
X70142764Y-132527565D03*
D19*
X127057500Y-68214400D03*
X123757500Y-68214400D03*
X73057500Y-122214400D03*
X69757500Y-122214400D03*
D17*
X142292764Y-66027565D03*
D18*
X137192764Y-66027565D03*
D17*
X137192764Y-64527565D03*
X142292764Y-64527565D03*
X124142764Y-63027565D03*
D18*
X119042764Y-63027565D03*
D17*
X119042764Y-61527565D03*
X124142764Y-61527565D03*
D19*
X109057500Y-48214400D03*
X105757500Y-48214400D03*
X52870000Y-105214400D03*
X49570000Y-105214400D03*
D17*
X88142764Y-80027565D03*
D18*
X83042764Y-80027565D03*
D17*
X83042764Y-78527565D03*
X88142764Y-78527565D03*
D19*
X91057500Y-85214400D03*
X87757500Y-85214400D03*
X127057500Y-102214400D03*
X123757500Y-102214400D03*
D20*
X155239850Y-140709047D03*
X152711904Y-138587847D03*
D19*
X52870000Y-54214400D03*
X49570000Y-54214400D03*
D17*
X70142764Y-66027565D03*
D18*
X65042764Y-66027565D03*
D17*
X65042764Y-64527565D03*
X70142764Y-64527565D03*
X106142764Y-94027565D03*
D18*
X101042764Y-94027565D03*
D17*
X101042764Y-92527565D03*
X106142764Y-92527565D03*
D19*
X73057500Y-71214400D03*
X69757500Y-71214400D03*
D17*
X124142764Y-80027565D03*
D18*
X119042764Y-80027565D03*
D17*
X119042764Y-78527565D03*
X124142764Y-78527565D03*
X88142764Y-97027565D03*
D18*
X83042764Y-97027565D03*
D17*
X83042764Y-95527565D03*
X88142764Y-95527565D03*
X124142764Y-97027565D03*
D18*
X119042764Y-97027565D03*
D17*
X119042764Y-95527565D03*
X124142764Y-95527565D03*
D19*
X145207500Y-71214400D03*
X141907500Y-71214400D03*
D17*
X106142764Y-60027565D03*
D18*
X101042764Y-60027565D03*
D17*
X101042764Y-58527565D03*
X106142764Y-58527565D03*
X88142764Y-63027565D03*
D18*
X83042764Y-63027565D03*
D17*
X83042764Y-61527565D03*
X88142764Y-61527565D03*
D19*
X91057500Y-119214400D03*
X87757500Y-119214400D03*
D17*
X106142764Y-111027565D03*
D18*
X101042764Y-111027565D03*
D17*
X101042764Y-109527565D03*
X106142764Y-109527565D03*
D19*
X163057500Y-86089400D03*
X159757500Y-86089400D03*
D17*
X106142764Y-77027565D03*
D18*
X101042764Y-77027565D03*
D17*
X101042764Y-75527565D03*
X106142764Y-75527565D03*
D19*
X91057500Y-51214400D03*
X87757500Y-51214400D03*
D17*
X49955264Y-83027565D03*
D18*
X44855264Y-83027565D03*
D17*
X44855264Y-81527565D03*
X49955264Y-81527565D03*
D19*
X163057500Y-69089400D03*
X159757500Y-69089400D03*
D17*
X70142764Y-83027565D03*
D18*
X65042764Y-83027565D03*
D17*
X65042764Y-81527565D03*
X70142764Y-81527565D03*
X49955264Y-117027565D03*
D18*
X44855264Y-117027565D03*
D17*
X44855264Y-115527565D03*
X49955264Y-115527565D03*
D21*
X159199932Y-159457598D03*
D22*
X155293105Y-156179381D03*
D21*
X156257286Y-155030314D03*
X160164113Y-158308531D03*
D23*
X125829387Y-136805167D03*
D24*
X121036955Y-135060864D03*
D23*
X121549985Y-133651325D03*
X126342417Y-135395628D03*
D19*
X73057500Y-88214400D03*
X69757500Y-88214400D03*
D17*
X70142764Y-100027565D03*
D18*
X65042764Y-100027565D03*
D17*
X65042764Y-98527565D03*
X70142764Y-98527565D03*
D19*
X109057500Y-116214400D03*
X105757500Y-116214400D03*
X145057500Y-87257400D03*
X141757500Y-87257400D03*
D21*
X170127323Y-146434842D03*
D22*
X166220496Y-143156625D03*
D21*
X167184677Y-142007558D03*
X171091504Y-145285775D03*
X145411133Y-147887421D03*
D22*
X141504306Y-144609204D03*
D21*
X142468487Y-143460137D03*
X146375314Y-146738354D03*
D17*
X88142764Y-114027565D03*
D18*
X83042764Y-114027565D03*
D17*
X83042764Y-112527565D03*
X88142764Y-112527565D03*
D20*
X169028649Y-152279223D03*
X166500703Y-150158023D03*
D19*
X127057500Y-85214400D03*
X123757500Y-85214400D03*
D17*
X52142764Y-134027565D03*
D18*
X47042764Y-134027565D03*
D17*
X47042764Y-132527565D03*
X52142764Y-132527565D03*
D25*
X165252400Y-61632600D03*
X165252400Y-59982600D03*
D19*
X73057500Y-105214400D03*
X69757500Y-105214400D03*
X55057500Y-122214400D03*
X51757500Y-122214400D03*
X52870000Y-88214400D03*
X49570000Y-88214400D03*
X52870000Y-71214400D03*
X49570000Y-71214400D03*
D17*
X142147500Y-100027400D03*
D18*
X137047500Y-100027400D03*
D17*
X137047500Y-98527400D03*
X142147500Y-98527400D03*
X160142764Y-80902565D03*
D18*
X155042764Y-80902565D03*
D17*
X155042764Y-79402565D03*
X160142764Y-79402565D03*
D19*
X109057500Y-99214400D03*
X105757500Y-99214400D03*
X91057500Y-102214400D03*
X87757500Y-102214400D03*
D14*
X174143600Y-109814800D03*
X180643600Y-109814800D03*
X180643600Y-114314800D03*
X174143600Y-114314800D03*
D20*
X166167239Y-127686291D03*
X163639293Y-125565091D03*
D17*
X106142764Y-128027565D03*
D18*
X101042764Y-128027565D03*
D17*
X101042764Y-126527565D03*
X106142764Y-126527565D03*
D19*
X109057500Y-82214400D03*
X105757500Y-82214400D03*
D17*
X70142764Y-117027565D03*
D18*
X65042764Y-117027565D03*
D17*
X65042764Y-115527565D03*
X70142764Y-115527565D03*
X160142764Y-97902565D03*
D18*
X155042764Y-97902565D03*
D17*
X155042764Y-96402565D03*
X160142764Y-96402565D03*
X49955264Y-100027565D03*
D18*
X44855264Y-100027565D03*
D17*
X44855264Y-98527565D03*
X49955264Y-98527565D03*
D19*
X145207500Y-54214400D03*
X141907500Y-54214400D03*
X145057500Y-105214400D03*
X141757500Y-105214400D03*
D17*
X142142764Y-117027565D03*
D18*
X137042764Y-117027565D03*
D17*
X137042764Y-115527565D03*
X142142764Y-115527565D03*
X142292764Y-83027565D03*
D18*
X137192764Y-83027565D03*
D17*
X137192764Y-81527565D03*
X142292764Y-81527565D03*
D19*
X109057500Y-65214400D03*
X105757500Y-65214400D03*
D26*
X132609734Y-126699836D03*
X129508748Y-125571170D03*
D17*
X88142764Y-131027565D03*
D18*
X83042764Y-131027565D03*
D17*
X83042764Y-129527565D03*
X88142764Y-129527565D03*
D21*
X156338522Y-134864664D03*
D22*
X152431695Y-131586447D03*
D21*
X153395876Y-130437380D03*
X157302703Y-133715597D03*
D20*
X179956039Y-139256468D03*
X177428093Y-137135268D03*
M02*
